<?xml version="1.0" encoding="UTF-8"?>
<svg version="1.1" xmlns="http://www.w3.org/2000/svg" width="500" height="500">
<path d="M0 0 C6.84946453 0.08353006 6.84946453 0.08353006 10.25 2.21875 C11.91141044 5.14599696 11.34683629 6.35705683 10.5625 9.53125 C11.47128906 9.51964844 12.38007813 9.50804687 13.31640625 9.49609375 C22.45153054 9.43050824 31.45471529 9.80779476 40.5625 10.53125 C41.1875 12.40625 41.1875 12.40625 41.5625 14.53125 C39.08192372 17.01182628 38.20057536 16.82144005 34.7734375 16.9453125 C33.36191406 17.00332031 33.36191406 17.00332031 31.921875 17.0625 C30.93703125 17.0934375 29.9521875 17.124375 28.9375 17.15625 C27.94492188 17.19492188 26.95234375 17.23359375 25.9296875 17.2734375 C23.47414615 17.3678814 21.0186159 17.45344875 18.5625 17.53125 C21.00164492 19.97039492 21.77696431 19.81787523 25.1328125 19.9453125 C26.02871094 19.98398438 26.92460937 20.02265625 27.84765625 20.0625 C28.78480469 20.0934375 29.72195312 20.124375 30.6875 20.15625 C31.63238281 20.19492188 32.57726562 20.23359375 33.55078125 20.2734375 C35.88782375 20.36786346 38.22485501 20.45343394 40.5625 20.53125 C41.6875 24.28125 41.6875 24.28125 40.5625 26.53125 C30.1675 27.02625 30.1675 27.02625 19.5625 27.53125 C19.5625 28.19125 19.5625 28.85125 19.5625 29.53125 C20.16162704 29.54155746 20.76075409 29.55186493 21.3780365 29.56248474 C27.59060088 29.67031965 33.80301341 29.78493544 40.01538086 29.90356445 C42.33663773 29.94698739 44.65792808 29.98865684 46.97924805 30.02856445 C50.30788278 30.0860894 53.63634785 30.14983425 56.96484375 30.21484375 C58.00962387 30.23155624 59.05440399 30.24826874 60.13084412 30.26548767 C61.09176468 30.28543289 62.05268524 30.30537811 63.04272461 30.32592773 C63.89321884 30.34147202 64.74371307 30.3570163 65.61997986 30.37303162 C67.5625 30.53125 67.5625 30.53125 68.5625 31.53125 C68.5625 33.18125 68.5625 34.83125 68.5625 36.53125 C52.0625 36.86125 35.5625 37.19125 18.5625 37.53125 C18.5625 38.52125 18.5625 39.51125 18.5625 40.53125 C19.59189697 40.51553955 19.59189697 40.51553955 20.64208984 40.49951172 C23.74052289 40.45803126 26.83889761 40.43194931 29.9375 40.40625 C31.01773438 40.38949219 32.09796875 40.37273437 33.2109375 40.35546875 C34.2421875 40.34902344 35.2734375 40.34257812 36.3359375 40.3359375 C37.76558838 40.32022705 37.76558838 40.32022705 39.22412109 40.30419922 C41.5625 40.53125 41.5625 40.53125 43.5625 42.53125 C43.02678571 46.06696429 43.02678571 46.06696429 41.5625 47.53125 C39.85477642 47.61838831 38.14351351 47.63825007 36.43359375 47.62890625 C35.39912109 47.62568359 34.36464844 47.62246094 33.29882812 47.61914062 C32.21021484 47.61076172 31.12160156 47.60238281 30 47.59375 C28.3612793 47.58698242 28.3612793 47.58698242 26.68945312 47.58007812 C23.98041505 47.56824826 21.27148401 47.55176543 18.5625 47.53125 C19.2225 48.52125 19.8825 49.51125 20.5625 50.53125 C23.30237918 50.73307146 25.83044555 50.75906618 28.5625 50.65625 C35.29957874 50.51884272 41.96079642 50.61827806 48.6875 51.03125 C49.47511719 51.07910645 50.26273437 51.12696289 51.07421875 51.17626953 C52.90391113 51.29042073 54.7332534 51.41016512 56.5625 51.53125 C56.605221 53.19736905 56.60313832 54.86507885 56.5625 56.53125 C54.69390976 58.39984024 51.55059017 57.77393708 49.05078125 57.84765625 C48.35476303 57.86839203 47.65874481 57.88912781 46.94163513 57.91049194 C44.58621378 57.97761331 42.23066906 58.03601646 39.875 58.09375 C38.65870911 58.12651535 38.65870911 58.12651535 37.41784668 58.15994263 C25.97404249 58.46353849 14.5375265 58.55816935 3.08984375 58.5234375 C1.25363213 58.51850533 1.25363213 58.51850533 -0.61967468 58.51347351 C-6.7410621 58.49402997 -12.8619669 58.45951226 -18.9831543 58.40649414 C-21.2439768 58.39449257 -23.50480034 58.38268329 -25.765625 58.37109375 C-27.34120934 58.35083633 -27.34120934 58.35083633 -28.94862366 58.33016968 C-29.9082048 58.32683624 -30.86778595 58.32350281 -31.85644531 58.32006836 C-32.6966925 58.31261093 -33.5369397 58.3051535 -34.40264893 58.29747009 C-36.66443693 58.34366782 -36.66443693 58.34366782 -38.4375 60.53125 C-42.0625 60.15625 -42.0625 60.15625 -45.4375 59.53125 C-46.96638746 56.07113627 -47.69419488 54.31844764 -46.5 50.65625 C-44.4375 48.53125 -44.4375 48.53125 -40.875 48.09375 C-37.4375 48.53125 -37.4375 48.53125 -35.4375 50.53125 C-34.1175 50.53125 -32.7975 50.53125 -31.4375 50.53125 C-31.1075 49.54125 -30.7775 48.55125 -30.4375 47.53125 C-34.97666919 47.64921454 -39.51560642 47.77344113 -44.05444336 47.90356445 C-45.59964289 47.94696985 -47.14489214 47.98864071 -48.69018555 48.02856445 C-50.90689096 48.08613199 -53.1233448 48.14986424 -55.33984375 48.21484375 C-56.0346434 48.23155624 -56.72944305 48.24826874 -57.44529724 48.26548767 C-60.72512029 48.09627856 -60.72512029 48.09627856 -63.4375 49.53125 C-66.875 49.71875 -66.875 49.71875 -70.4375 49.53125 C-72.4375 47.53125 -72.4375 47.53125 -72.8125 44.09375 C-72.4375 40.53125 -72.4375 40.53125 -70.75 38.53125 C-67.85761247 37.28048782 -66.39741344 37.57127807 -63.4375 38.53125 C-63.1075 38.86125 -62.7775 39.19125 -62.4375 39.53125 C-60.65880274 39.68889405 -58.87431524 39.78225677 -57.08984375 39.84765625 C-56.01025391 39.88955078 -54.93066406 39.93144531 -53.81835938 39.97460938 C-52.68205078 40.01392578 -51.54574219 40.05324219 -50.375 40.09375 C-49.23482422 40.13693359 -48.09464844 40.18011719 -46.91992188 40.22460938 C-44.09257805 40.33107839 -41.26514262 40.43309207 -38.4375 40.53125 C-38.7675 39.87125 -39.0975 39.21125 -39.4375 38.53125 C-40.2109375 38.77875 -40.2109375 38.77875 -41 39.03125 C-44.24026514 39.69591977 -47.1402333 39.77549198 -50.4375 39.53125 C-52.75111802 36.06082297 -52.94770728 34.61290827 -52.4375 30.53125 C-50.4375 28.65625 -50.4375 28.65625 -48.4375 27.53125 C-52.15349191 27.33038557 -53.20958445 27.3793063 -56.4375 29.53125 C-63.00353774 28.96521226 -63.00353774 28.96521226 -64.4375 27.53125 C-64.71064815 21.79513889 -64.71064815 21.79513889 -64.4375 19.53125 C-62.4375 17.53125 -62.4375 17.53125 -58.9375 17.28125 C-55.4375 17.53125 -55.4375 17.53125 -53.4375 19.53125 C-50.08005888 19.77502883 -50.08005888 19.77502883 -46.3125 19.65625 C-45.03117187 19.63820312 -43.74984375 19.62015625 -42.4296875 19.6015625 C-40.94855469 19.56675781 -40.94855469 19.56675781 -39.4375 19.53125 C-39.34662109 18.64373047 -39.34662109 18.64373047 -39.25390625 17.73828125 C-39.17011719 16.94808594 -39.08632812 16.15789062 -39 15.34375 C-38.91878906 14.56644531 -38.83757812 13.78914062 -38.75390625 12.98828125 C-38.42973678 10.47096527 -37.94623664 8.01699876 -37.4375 5.53125 C-36.51936523 5.5219043 -35.60123047 5.51255859 -34.65527344 5.50292969 C-31.24044722 5.45885069 -27.82686892 5.39721268 -24.41259766 5.32373047 C-22.93647804 5.29554912 -21.46020831 5.27432034 -19.98388672 5.26025391 C-17.85826943 5.23878302 -15.73445121 5.19211957 -13.609375 5.140625 C-12.3315918 5.11967773 -11.05380859 5.09873047 -9.73730469 5.07714844 C-5.18404431 4.32388636 -4.15091466 0.90468653 0 0 Z M-46.4375 26.53125 C-43.34422105 29.50800459 -43.34422105 29.50800459 -39.4375 30.53125 C-39.1075 29.54125 -38.7775 28.55125 -38.4375 27.53125 C-41.0775 27.20125 -43.7175 26.87125 -46.4375 26.53125 Z " fill="#34C5E9" transform="translate(184.4375,206.46875)"/>
<path d="M0 0 C4.46356113 4.01720502 8.32562452 9.15748698 10.16015625 14.90625 C11.11315686 17.4438673 11.11315686 17.4438673 13.6328125 18.40234375 C14.55835938 18.66144531 15.48390625 18.92054688 16.4375 19.1875 C25.59532388 22.1802529 33.05261218 28.03394062 37.5703125 36.6484375 C41.28433954 45.50496351 41.99739723 55.3342533 38.875 64.5 C34.37167188 74.09129884 27.08479687 80.45750212 17.3125 84.25 C12.37151935 85.89699355 7.24133169 85.64684828 2.0625 85.8125 C0.76489746 85.8542334 -0.53270508 85.8959668 -1.86962891 85.93896484 C-27.61932825 86.69507716 -53.44642986 86.60604671 -79.1987915 85.98553467 C-81.18948566 85.93891711 -83.18044498 85.90408799 -85.17138672 85.86962891 C-86.35361816 85.83401855 -87.53584961 85.7984082 -88.75390625 85.76171875 C-90.2689978 85.72244263 -90.2689978 85.72244263 -91.81469727 85.68237305 C-95.21395463 85.1707656 -97.70185442 83.91707093 -100.6875 82.25 C-100.6875 80.6 -100.6875 78.95 -100.6875 77.25 C-97.91488687 76.18361033 -96.80399652 76.20903852 -93.94482422 77.21435547 C-90.48798063 78.31343586 -87.81050546 78.47974291 -84.1953125 78.4453125 C-82.99648437 78.43886719 -81.79765625 78.43242187 -80.5625 78.42578125 C-79.325 78.40902344 -78.0875 78.39226562 -76.8125 78.375 C-75.55179688 78.36597656 -74.29109375 78.35695313 -72.9921875 78.34765625 C-69.8904296 78.32415808 -66.78906348 78.29130334 -63.6875 78.25 C-63.3575 77.59 -63.0275 76.93 -62.6875 76.25 C-60.7075 76.25 -58.7275 76.25 -56.6875 76.25 C-56.3575 77.24 -56.0275 78.23 -55.6875 79.25 C-47.12419904 79.21179689 -38.56141608 79.15222537 -29.99847603 79.06609726 C-26.02142928 79.02675111 -22.04459967 78.99450022 -18.06738281 78.97900391 C-14.22212249 78.96375166 -10.37745966 78.92915721 -6.53246689 78.88169098 C-5.07267352 78.86696474 -3.6127948 78.85896406 -2.1529274 78.85811615 C7.51466185 78.84686393 15.88326553 78.17426038 23.93359375 72.35546875 C30.43445876 65.49111451 33.52671266 58.80388472 33.3125 49.25 C32.08667135 41.3832744 28.71641905 34.50939772 22.23828125 29.71484375 C18.30857324 27.36250545 15.30946865 26.18944611 10.75 25.875 C8.5 25.48828125 8.5 25.48828125 6.3125 24.25 C4.37120006 21.23142567 2.80788878 18.22691543 1.26147461 14.99926758 C-2.87474616 6.46516981 -8.98205235 1.84027331 -17.6875 -1.75 C-25.87342625 -4.47864208 -35.97773755 -3.57600571 -43.6875 0.25 C-52.94673578 5.22025867 -57.78358071 12.19661054 -62.6875 21.25 C-64.0075 20.92 -65.3275 20.59 -66.6875 20.25 C-67.62752072 17.71019247 -67.77911706 16.52211635 -66.90234375 13.91796875 C-61.44657429 3.32343173 -54.81182562 -4.08535296 -43.5 -8.5625 C-27.94045078 -13.40891697 -12.7451269 -10.04583147 0 0 Z " fill="#18E4F3" transform="translate(266.6875,190.75)"/>
<path d="M0 0 C0.10477512 5.78591511 -0.00749455 11.29309366 -1 17 C-0.34 17.33 0.32 17.66 1 18 C0.86179731 21.3128652 0.71316222 24.62517989 0.5625 27.9375 C0.52318359 28.88302734 0.48386719 29.82855469 0.44335938 30.80273438 C0.38051758 32.15141602 0.38051758 32.15141602 0.31640625 33.52734375 C0.26141968 34.77632446 0.26141968 34.77632446 0.20532227 36.05053711 C0 38 0 38 -1 39 C-3.85877909 39.23701239 -6.69883297 39.42219182 -9.5625 39.5625 C-10.36880859 39.60568359 -11.17511719 39.64886719 -12.00585938 39.69335938 C-14.00368805 39.79975262 -16.0018207 39.90040888 -18 40 C-18 39.34 -18 38.68 -18 38 C-26.91 38 -35.82 38 -45 38 C-46.33738519 35.32522961 -45.95141191 33.52855477 -45.6875 30.5625 C-45.60886719 29.59441406 -45.53023437 28.62632812 -45.44921875 27.62890625 C-45 25 -45 25 -43 22 C-43.33 21.34 -43.66 20.68 -44 20 C-44.46280992 13.75206612 -44.46280992 13.75206612 -42.5 10.5625 C-42.005 10.046875 -41.51 9.53125 -41 9 C-39.35 9.33 -37.7 9.66 -36 10 C-36 9.34 -36 8.68 -36 8 C-32.7 7.67 -29.4 7.34 -26 7 C-26 6.67 -26 6.34 -26 6 C-25.24074219 5.93941406 -24.48148438 5.87882813 -23.69921875 5.81640625 C-22.70535156 5.73261719 -21.71148437 5.64882812 -20.6875 5.5625 C-19.70136719 5.48128906 -18.71523437 5.40007812 -17.69921875 5.31640625 C-14.90624401 5.08187441 -14.90624401 5.08187441 -12 4 C-11.34 3.01 -10.68 2.02 -10 1 C-6.62851623 -0.00233301 -3.49306726 -0.02925517 0 0 Z " fill="#0FB6DC" transform="translate(201,225)"/>
<path d="M0 0 C0.845625 0.0103125 1.69125 0.020625 2.5625 0.03125 C3.408125 0.0209375 4.25375 0.010625 5.125 0 C8.44374433 0.72331607 9.62539558 1.75093542 11.5625 4.53125 C11.69140625 7.6953125 11.69140625 7.6953125 11.125 11.15625 C10.96128906 12.30351562 10.79757813 13.45078125 10.62890625 14.6328125 C9.5625 17.53125 9.5625 17.53125 7.08984375 18.7421875 C6.25582031 19.00257813 5.42179687 19.26296875 4.5625 19.53125 C3.5725 21.01625 3.5725 21.01625 2.5625 22.53125 C-0.51025391 22.87182617 -0.51025391 22.87182617 -4.4140625 22.82421875 C-5.09931 22.81997391 -5.7845575 22.81572906 -6.49057007 22.81135559 C-8.68161129 22.79454753 -10.87173632 22.75689405 -13.0625 22.71875 C-14.54686173 22.70370579 -16.03123785 22.69001693 -17.515625 22.67773438 C-21.15688786 22.64718687 -24.79616723 22.588477 -28.4375 22.53125 C-28.7675 28.80125 -29.0975 35.07125 -29.4375 41.53125 C-32.0775 41.53125 -34.7175 41.53125 -37.4375 41.53125 C-38.0975 40.54125 -38.7575 39.55125 -39.4375 38.53125 C-40.2109375 38.77875 -40.2109375 38.77875 -41 39.03125 C-44.24026514 39.69591977 -47.1402333 39.77549198 -50.4375 39.53125 C-52.75111802 36.06082297 -52.94770728 34.61290827 -52.4375 30.53125 C-50.4375 28.65625 -50.4375 28.65625 -48.4375 27.53125 C-52.15349191 27.33038557 -53.20958445 27.3793063 -56.4375 29.53125 C-63.00353774 28.96521226 -63.00353774 28.96521226 -64.4375 27.53125 C-64.71064815 21.79513889 -64.71064815 21.79513889 -64.4375 19.53125 C-62.4375 17.53125 -62.4375 17.53125 -58.9375 17.28125 C-55.4375 17.53125 -55.4375 17.53125 -53.4375 19.53125 C-50.08005888 19.77502883 -50.08005888 19.77502883 -46.3125 19.65625 C-45.03117187 19.63820312 -43.74984375 19.62015625 -42.4296875 19.6015625 C-40.94855469 19.56675781 -40.94855469 19.56675781 -39.4375 19.53125 C-39.34662109 18.64373047 -39.34662109 18.64373047 -39.25390625 17.73828125 C-39.17011719 16.94808594 -39.08632812 16.15789062 -39 15.34375 C-38.87818359 14.17779297 -38.87818359 14.17779297 -38.75390625 12.98828125 C-38.42973678 10.47096527 -37.94623664 8.01699876 -37.4375 5.53125 C-36.51936523 5.5219043 -35.60123047 5.51255859 -34.65527344 5.50292969 C-31.24044722 5.45885069 -27.82686892 5.39721268 -24.41259766 5.32373047 C-22.93647804 5.29554912 -21.46020831 5.27432034 -19.98388672 5.26025391 C-17.85826943 5.23878302 -15.73445121 5.19211957 -13.609375 5.140625 C-12.3315918 5.11967773 -11.05380859 5.09873047 -9.73730469 5.07714844 C-5.18404431 4.32388636 -4.15091466 0.90468653 0 0 Z M-46.4375 26.53125 C-43.34422105 29.50800459 -43.34422105 29.50800459 -39.4375 30.53125 C-39.1075 29.54125 -38.7775 28.55125 -38.4375 27.53125 C-41.0775 27.20125 -43.7175 26.87125 -46.4375 26.53125 Z " fill="#FACF9D" transform="translate(184.4375,206.46875)"/>
<path d="M0 0 C10.3905794 -0.12288464 20.63946908 0.16639406 31 1 C31.625 2.875 31.625 2.875 32 5 C29.51942372 7.48057628 28.63807536 7.29019005 25.2109375 7.4140625 C23.79941406 7.47207031 23.79941406 7.47207031 22.359375 7.53125 C21.37453125 7.5621875 20.3896875 7.593125 19.375 7.625 C17.88613281 7.68300781 17.88613281 7.68300781 16.3671875 7.7421875 C13.91164615 7.8366314 11.4561159 7.92219875 9 8 C9 8.99 9 9.98 9 11 C7.4221875 10.7215625 7.4221875 10.7215625 5.8125 10.4375 C2.39850498 10.04573008 0.21706994 9.89700459 -3 11 C-3.66 11.99 -4.32 12.98 -5 14 C-8.0390625 14.73046875 -8.0390625 14.73046875 -11.625 15.1875 C-12.81351562 15.34605469 -14.00203125 15.50460938 -15.2265625 15.66796875 C-16.14179688 15.77753906 -17.05703125 15.88710937 -18 16 C-18 16.33 -18 16.66 -18 17 C-21.63 17 -25.26 17 -29 17 C-29 17.66 -29 18.32 -29 19 C-30.65 19 -32.3 19 -34 19 C-35.61222148 22.52673449 -36.20358167 25.1319482 -36 29 C-36 32 -36 32 -37 34 C-37.33 37.96 -37.66 41.92 -38 46 C-24.635 46.495 -24.635 46.495 -11 47 C-11 47.33 -11 47.66 -11 48 C-12.57467041 48.029729 -12.57467041 48.029729 -14.18115234 48.06005859 C-18.06893261 48.13602198 -21.95633403 48.22475298 -25.84375 48.31738281 C-27.52759329 48.35571104 -29.21151955 48.39055712 -30.89550781 48.421875 C-33.31345306 48.46744287 -35.73082528 48.52544923 -38.1484375 48.5859375 C-39.28132706 48.60326431 -39.28132706 48.60326431 -40.43710327 48.62094116 C-44.67825198 48.60330066 -44.67825198 48.60330066 -48 51 C-51.625 50.625 -51.625 50.625 -55 50 C-56.52888746 46.53988627 -57.25669488 44.78719764 -56.0625 41.125 C-54 39 -54 39 -50.4375 38.5625 C-47 39 -47 39 -45 41 C-43.68 41 -42.36 41 -41 41 C-40.67 40.01 -40.34 39.02 -40 38 C-44.53916919 38.11796454 -49.07810642 38.24219113 -53.61694336 38.37231445 C-55.16214289 38.41571985 -56.70739214 38.45739071 -58.25268555 38.49731445 C-60.46939096 38.55488199 -62.6858448 38.61861424 -64.90234375 38.68359375 C-65.5971434 38.70030624 -66.29194305 38.71701874 -67.00779724 38.73423767 C-70.28762029 38.56502856 -70.28762029 38.56502856 -73 40 C-76.4375 40.1875 -76.4375 40.1875 -80 40 C-82 38 -82 38 -82.375 34.5625 C-82 31 -82 31 -80.3125 29 C-77.42011247 27.74923782 -75.95991344 28.04002807 -73 29 C-72.67 29.33 -72.34 29.66 -72 30 C-70.24183983 30.14599597 -68.47823187 30.22735795 -66.71484375 30.28125 C-65.08192383 30.33732422 -65.08192383 30.33732422 -63.41601562 30.39453125 C-62.26810547 30.42933594 -61.12019531 30.46414062 -59.9375 30.5 C-52.89866306 30.71857228 -45.97243781 30.97589653 -39 32 C-39.01160156 31.04738281 -39.02320313 30.09476563 -39.03515625 29.11328125 C-39.04417969 27.85902344 -39.05320313 26.60476562 -39.0625 25.3125 C-39.07410156 24.07113281 -39.08570313 22.82976562 -39.09765625 21.55078125 C-39.01435265 18.52186249 -38.63775451 15.94161508 -38 13 C-37.07662842 12.9906543 -36.15325684 12.98130859 -35.2019043 12.97167969 C-31.77405494 12.92765266 -28.34745949 12.86603893 -24.92016602 12.79248047 C-23.43721058 12.76426459 -21.95410457 12.74305298 -20.47094727 12.72900391 C-18.33792003 12.7075808 -16.20670394 12.66094218 -14.07421875 12.609375 C-12.79119873 12.58842773 -11.50817871 12.56748047 -10.1862793 12.54589844 C-6.90901122 12.33997701 -6.90901122 12.33997701 -5.30786133 9.96191406 C-4.66046997 8.9907666 -4.66046997 8.9907666 -4 8 C-2.68 8 -1.36 8 0 8 C0 5.36 0 2.72 0 0 Z " fill="#2ABADF" transform="translate(194,216)"/>
<path d="M0 0 C1.828125 0.18359375 1.828125 0.18359375 4 1 C5.484375 3.28515625 5.484375 3.28515625 6.75 6.0625 C7.17796875 6.98160156 7.6059375 7.90070313 8.046875 8.84765625 C8.36140625 9.55792969 8.6759375 10.26820313 9 11 C9.33 7.7 9.66 4.4 10 1 C12.1875 0.1875 12.1875 0.1875 15 0 C17.8125 2.4375 17.8125 2.4375 20 5 C20.86625 3.7625 20.86625 3.7625 21.75 2.5 C22.4925 1.675 23.235 0.85 24 0 C25.32 0 26.64 0 28 0 C28.495 5.94 28.495 5.94 29 12 C30.98 8.04 32.96 4.08 35 0 C39 1 39 1 40.703125 3.6171875 C41.21359375 4.69226563 41.7240625 5.76734375 42.25 6.875 C43.03117187 8.47988281 43.03117187 8.47988281 43.828125 10.1171875 C45 13 45 13 45 16 C43.68 16.33 42.36 16.66 41 17 C40.34 16.01 39.68 15.02 39 14 C36.5 13.5 36.5 13.5 34 14 C33.34 14.99 32.68 15.98 32 17 C29.36 16.67 26.72 16.34 24 16 C23.34 14.35 22.68 12.7 22 11 C20.35 11.33 18.7 11.66 17 12 C16.67 11.34 16.34 10.68 16 10 C15.67 11.98 15.34 13.96 15 16 C12.03 16.33 9.06 16.66 6 17 C5.34 16.01 4.68 15.02 4 14 C1.5 13.5 1.5 13.5 -1 14 C-1.99 15.485 -1.99 15.485 -3 17 C-4.32 16.34 -5.64 15.68 -7 15 C-6.21232408 13.06087416 -5.4197133 11.12375234 -4.625 9.1875 C-4.18414062 8.10855469 -3.74328125 7.02960938 -3.2890625 5.91796875 C-2 3 -2 3 0 0 Z " fill="#141314" transform="translate(212,279)"/>
<path d="M0 0 C0.66 0.66 1.32 1.32 2 2 C-2.1825555 1.55424012 -6.34596199 1.10511325 -10.5 0.4375 C-14.69174773 -0.08646847 -18.78288025 -0.08606367 -23 0 C-23 0.66 -23 1.32 -23 2 C-18.05 2 -13.1 2 -8 2 C-8 2.66 -8 3.32 -8 4 C-9.35931641 4.05607422 -9.35931641 4.05607422 -10.74609375 4.11328125 C-22.69682349 4.75824127 -33.31603799 6.69220153 -41.7578125 15.921875 C-44.93084552 20.0356565 -47.52870962 24.43761776 -50 29 C-51.32 28.67 -52.64 28.34 -54 28 C-54.94002072 25.46019247 -55.09161706 24.27211635 -54.21484375 21.66796875 C-48.75907429 11.07343173 -42.12432562 3.66464704 -30.8125 -0.8125 C-20.18717168 -4.12202849 -10.53436064 -3.58266867 0 0 Z " fill="#16CBF3" transform="translate(254,183)"/>
<path d="M0 0 C0.845625 0.0103125 1.69125 0.020625 2.5625 0.03125 C3.408125 0.0209375 4.25375 0.010625 5.125 0 C8.44992198 0.72466248 9.64026308 1.73027621 11.5625 4.53125 C11.515625 7.765625 11.515625 7.765625 10.8125 11.28125 C10.47992188 13.03695312 10.47992188 13.03695312 10.140625 14.828125 C9.85445312 16.16617188 9.85445312 16.16617188 9.5625 17.53125 C8.61375 17.634375 7.665 17.7375 6.6875 17.84375 C3.27142499 18.21664295 3.27142499 18.21664295 1.5625 21.53125 C0.2425 21.53125 -1.0775 21.53125 -2.4375 21.53125 C-2.4375 20.87125 -2.4375 20.21125 -2.4375 19.53125 C-1.7775 19.53125 -1.1175 19.53125 -0.4375 19.53125 C-0.4375 18.87125 -0.4375 18.21125 -0.4375 17.53125 C0.5525 17.53125 1.5425 17.53125 2.5625 17.53125 C2.8925 16.54125 3.2225 15.55125 3.5625 14.53125 C0.32171875 13.58658244 -2.70975655 13.34026172 -6.078125 13.21484375 C-7.14804688 13.17294922 -8.21796875 13.13105469 -9.3203125 13.08789062 C-10.43148437 13.04857422 -11.54265625 13.00925781 -12.6875 12.96875 C-13.81414062 12.92556641 -14.94078125 12.88238281 -16.1015625 12.83789062 C-18.88008954 12.73192985 -21.65870391 12.62985858 -24.4375 12.53125 C-24.1590625 11.6340625 -24.1590625 11.6340625 -23.875 10.71875 C-23.21656313 8.36716238 -23.21656313 8.36716238 -24.4375 5.53125 C-23.18453125 5.50546875 -21.9315625 5.4796875 -20.640625 5.453125 C-18.98954877 5.39683831 -17.33850845 5.3394911 -15.6875 5.28125 C-14.45 5.25998047 -14.45 5.25998047 -13.1875 5.23828125 C-8.22413239 5.13024533 -8.22413239 5.13024533 -4.171875 2.515625 C-2.4375 0.53125 -2.4375 0.53125 0 0 Z " fill="#F7C999" transform="translate(184.4375,206.46875)"/>
<path d="M0 0 C3.5 0.25 3.5 0.25 5.5 2.25 C8.08064129 2.39497985 10.54943884 2.43677545 13.125 2.375 C13.83140625 2.36597656 14.5378125 2.35695312 15.265625 2.34765625 C17.01056098 2.32407603 18.75532295 2.28820461 20.5 2.25 C20.5 4.89 20.5 7.53 20.5 10.25 C18.52 10.25 16.54 10.25 14.5 10.25 C17.40876913 11.640117 17.40876913 11.640117 20.5 12.25 C20.8125 15.5625 20.8125 15.5625 20.5 19.25 C17.64035352 21.93633457 15.71234045 22.22840606 11.8125 22.625 C10.719375 22.50125 9.62625 22.3775 8.5 22.25 C6.18638198 18.77957297 5.98979272 17.33165827 6.5 13.25 C8.5 11.375 8.5 11.375 10.5 10.25 C6.78400809 10.04913557 5.72791555 10.0980563 2.5 12.25 C-4.06603774 11.68396226 -4.06603774 11.68396226 -5.5 10.25 C-5.77314815 4.51388889 -5.77314815 4.51388889 -5.5 2.25 C-3.5 0.25 -3.5 0.25 0 0 Z " fill="#1C9CF2" transform="translate(125.5,223.75)"/>
<path d="M0 0 C1.21558594 0.30679687 2.43117187 0.61359375 3.68359375 0.9296875 C10.11308658 2.44565668 16.492134 2.21581846 23.0625 2.125 C24.93325195 2.11146484 24.93325195 2.11146484 26.84179688 2.09765625 C29.89473504 2.07426209 32.94726306 2.04148174 36 2 C36.33 1.34 36.66 0.68 37 0 C38.98 0 40.96 0 43 0 C43.495 1.485 43.495 1.485 44 3 C57.2 3 70.4 3 84 3 C84 3.33 84 3.66 84 4 C71.46 4 58.92 4 46 4 C45.34 5.32 44.68 6.64 44 8 C43.34 8 42.68 8 42 8 C42 8.66 42 9.32 42 10 C36.84002549 9.93093068 31.68084648 9.84287138 26.52148438 9.73754883 C24.76799373 9.7043878 23.01439862 9.67632858 21.26074219 9.65356445 C18.73327302 9.6198553 16.20675362 9.56753308 13.6796875 9.51171875 C12.90132538 9.50532883 12.12296326 9.4989389 11.3210144 9.49235535 C6.49930319 9.36343487 3.23993847 8.53275879 -1 6 C-1.042721 4.33388095 -1.04063832 2.66617115 -1 1 C-0.67 0.67 -0.34 0.34 0 0 Z " fill="#34A9DB" transform="translate(167,267)"/>
<path d="M0 0 C0.33 0.33 0.66 0.66 1 1 C2.76990577 1.1459561 4.545217 1.22734628 6.3203125 1.28125 C7.96 1.33732422 7.96 1.33732422 9.6328125 1.39453125 C10.78523438 1.42933594 11.93765625 1.46414062 13.125 1.5 C26.79825702 1.921436 26.79825702 1.921436 33 3 C33 4.98 33 6.96 33 9 C31.55379272 9.03758423 31.55379272 9.03758423 30.07836914 9.07592773 C26.51312158 9.16985306 22.94807567 9.27010939 19.38305664 9.37231445 C17.83785711 9.41571985 16.29260786 9.45739071 14.74731445 9.49731445 C12.53060904 9.55488199 10.3141552 9.61861424 8.09765625 9.68359375 C7.4028566 9.70030624 6.70805695 9.71701874 5.99220276 9.73423767 C2.71237971 9.56502856 2.71237971 9.56502856 0 11 C-3.4375 11.1875 -3.4375 11.1875 -7 11 C-9 9 -9 9 -9.375 5.5625 C-9 2 -9 2 -7.3125 0 C-4.42011247 -1.25076218 -2.95991344 -0.95997193 0 0 Z " fill="#2D92E0" transform="translate(121,245)"/>
<path d="M0 0 C3.2885563 2.5021624 4.79401403 3.90140815 5.5625 8 C4.87642343 11.65907504 3.57265686 13.35167676 1 16 C-1.7798816 17.3899408 -3.9186326 17.18488204 -7 17 C-9.58971247 16.13676251 -10.66500737 15.46898968 -12.25 13.25 C-13.24517055 10.26448836 -13.38368557 8.13343215 -13 5 C-9.41449866 -0.56370897 -6.38923544 -1.78898592 0 0 Z " fill="#05ECFA" transform="translate(290,191)"/>
<path d="M0 0 C-1.74506615 1.74506615 -4.19039143 1.23282784 -6.56640625 1.31640625 C-7.69111328 1.35830078 -8.81582031 1.40019531 -9.97460938 1.44335938 C-11.15861328 1.48267578 -12.34261719 1.52199219 -13.5625 1.5625 C-14.75037109 1.60568359 -15.93824219 1.64886719 -17.16210938 1.69335938 C-20.10794784 1.79983546 -23.0538743 1.90184841 -26 2 C-26.33 2.66 -26.66 3.32 -27 4 C-26.34 4.33 -25.68 4.66 -25 5 C-27.82321366 5.79471647 -30.38028224 6.14356017 -33.30957031 6.20532227 C-34.15013977 6.22526749 -34.99070923 6.24521271 -35.85675049 6.26576233 C-36.75480408 6.28247482 -37.65285767 6.29918732 -38.578125 6.31640625 C-39.5046991 6.33718735 -40.43127319 6.35796844 -41.38592529 6.37937927 C-44.34054272 6.44466961 -47.29524768 6.50366431 -50.25 6.5625 C-52.25521732 6.60570473 -54.26042585 6.64931965 -56.265625 6.69335938 C-61.17699404 6.80032999 -66.08845097 6.90165518 -71 7 C-71 5 -71 5 -69.39932251 2.91584778 C-66.31569826 0.45358827 -64.53044758 0.44844391 -60.61083984 0.34643555 C-59.31624847 0.30346848 -58.0216571 0.2605014 -56.68783569 0.2162323 C-55.27888045 0.18915855 -53.8699139 0.1626679 -52.4609375 0.13671875 C-51.01408627 0.09673944 -49.56727743 0.05519786 -48.12051392 0.01216125 C-45.09287895 -0.07401592 -42.06530274 -0.14763541 -39.03710938 -0.21118164 C-35.1514557 -0.29282715 -31.26676691 -0.39589671 -27.38185692 -0.50707722 C-23.67923185 -0.61220644 -19.97636449 -0.70699676 -16.2734375 -0.80078125 C-15.56509136 -0.81953119 -14.85674522 -0.83828114 -14.12693405 -0.85759926 C-12.12821696 -0.90856922 -10.12929229 -0.95119464 -8.13037109 -0.9934082 C-6.42305313 -1.03193657 -6.42305313 -1.03193657 -4.6812439 -1.07124329 C-2 -1 -2 -1 0 0 Z " fill="#0BCBF9" transform="translate(280,270)"/>
<path d="M0 0 C15.84 0 31.68 0 48 0 C48 0.99 48 1.98 48 3 C45.62609164 4.18695418 44.19755049 4.12075833 41.55029297 4.11352539 C40.62948944 4.11344986 39.70868591 4.11337433 38.75997925 4.11329651 C37.26617233 4.10555458 37.26617233 4.10555458 35.7421875 4.09765625 C34.72399933 4.0962413 33.70581116 4.09482635 32.6567688 4.09336853 C29.39614965 4.087759 26.13559849 4.07520488 22.875 4.0625 C20.66796974 4.05748623 18.46093841 4.05292311 16.25390625 4.04882812 C10.83591419 4.03778648 5.41796195 4.02103905 0 4 C0 2.68 0 1.36 0 0 Z " fill="#0EC3F7" transform="translate(203,239)"/>
<path d="M0 0 C1.20765015 0.00398804 1.20765015 0.00398804 2.43969727 0.00805664 C19.74388799 0.143796 19.74388799 0.143796 25.6875 2.125 C25.6875 3.445 25.6875 4.765 25.6875 6.125 C13.8075 6.125 1.9275 6.125 -10.3125 6.125 C-10.3125 4.475 -10.3125 2.825 -10.3125 1.125 C-7.07870004 -0.49189998 -3.5498705 -0.02062826 0 0 Z " fill="#0FC8F6" transform="translate(213.3125,256.875)"/>
<path d="M0 0 C9.23364486 -0.48598131 9.23364486 -0.48598131 12.5625 1.625 C14.3457723 4.57127597 14.92955543 6.54821594 15 10 C12.86956522 14.56521739 12.86956522 14.56521739 10 16 C8.29297265 16.06996014 6.58331997 16.08440154 4.875 16.0625 C3.26625 16.041875 1.6575 16.02125 0 16 C0 10.72 0 5.44 0 0 Z M5 5 C5 7.31 5 9.62 5 12 C6.65 11.34 8.3 10.68 10 10 C9.67 8.35 9.34 6.7 9 5 C7.68 5 6.36 5 5 5 Z " fill="#191717" transform="translate(159,279)"/>
<path d="M0 0 C3.4375 0.4375 3.4375 0.4375 5.4375 2.4375 C6.2625 2.56125 7.0875 2.685 7.9375 2.8125 C8.7625 3.01875 9.5875 3.225 10.4375 3.4375 C11.0975 4.7575 11.7575 6.0775 12.4375 7.4375 C25.8025 7.9325 25.8025 7.9325 39.4375 8.4375 C39.4375 8.7675 39.4375 9.0975 39.4375 9.4375 C38.38771973 9.45731934 37.33793945 9.47713867 36.25634766 9.49755859 C32.36856739 9.57352198 28.48116597 9.66225298 24.59375 9.75488281 C22.90990671 9.79321104 21.22598045 9.82805712 19.54199219 9.859375 C17.12404694 9.90494287 14.70667472 9.96294923 12.2890625 10.0234375 C11.15617294 10.04076431 11.15617294 10.04076431 10.00039673 10.05844116 C5.75924802 10.04080066 5.75924802 10.04080066 2.4375 12.4375 C-1.1875 12.0625 -1.1875 12.0625 -4.5625 11.4375 C-6.09138746 7.97738627 -6.81919488 6.22469764 -5.625 2.5625 C-3.5625 0.4375 -3.5625 0.4375 0 0 Z " fill="#2A9FE2" transform="translate(143.5625,254.5625)"/>
<path d="M0 0 C0.721875 0.00257813 1.44375 0.00515625 2.1875 0.0078125 C2.909375 0.00523437 3.63125 0.00265625 4.375 0 C6.1875 0.1328125 6.1875 0.1328125 7.1875 1.1328125 C7.31312235 2.90028979 7.36326558 4.67341542 7.375 6.4453125 C7.38917969 7.41082031 7.40335938 8.37632812 7.41796875 9.37109375 C7.08946712 13.30754546 5.80960542 15.386286 3.3125 18.3828125 C1.1875 20.1328125 1.1875 20.1328125 -2.8125 20.1328125 C-2.8125 19.4728125 -2.8125 18.8128125 -2.8125 18.1328125 C-2.1525 18.1328125 -1.4925 18.1328125 -0.8125 18.1328125 C-0.8125 17.4728125 -0.8125 16.8128125 -0.8125 16.1328125 C0.1775 16.1328125 1.1675 16.1328125 2.1875 16.1328125 C2.5175 15.1428125 2.8475 14.1528125 3.1875 13.1328125 C-0.37321312 12.08398859 -3.86777897 11.82894297 -7.5625 11.5703125 C-8.73296875 11.48652344 -9.9034375 11.40273437 -11.109375 11.31640625 C-12.44742188 11.22552734 -12.44742188 11.22552734 -13.8125 11.1328125 C-12.8125 9.1328125 -12.8125 9.1328125 -10.74609375 8.28125 C-9.92238281 8.02601563 -9.09867188 7.77078125 -8.25 7.5078125 C-7.42371094 7.24742187 -6.59742188 6.98703125 -5.74609375 6.71875 C-5.10800781 6.52539062 -4.46992188 6.33203125 -3.8125 6.1328125 C-3.668125 5.3284375 -3.52375 4.5240625 -3.375 3.6953125 C-2.60574714 0.19093837 -2.60574714 0.19093837 0 0 Z " fill="#F7BD84" transform="translate(184.8125,207.8671875)"/>
<path d="M0 0 C4.29 0 8.58 0 13 0 C12.67 1.65 12.34 3.3 12 5 C11.01 5.495 11.01 5.495 10 6 C10 7.32 10 8.64 10 10 C9.67 10.33 9.34 10.66 9 11 C10.32 11.33 11.64 11.66 13 12 C13 13.32 13 14.64 13 16 C8.71 16 4.42 16 0 16 C0 10.72 0 5.44 0 0 Z " fill="#171715" transform="translate(273,279)"/>
<path d="M0 0 C0.33 1.32 0.66 2.64 1 4 C1.33 3.67 1.66 3.34 2 3 C3.99958364 2.95919217 6.00045254 2.95745644 8 3 C7.319375 3.495 6.63875 3.99 5.9375 4.5 C-0.61958913 10.08050139 -5.14707811 16.32966702 -9 24 C-10.32 23.67 -11.64 23.34 -13 23 C-13.94002072 20.46019247 -14.09161706 19.27211635 -13.21484375 16.66796875 C-9.79613913 10.02919984 -6.29899625 4.19933083 0 0 Z " fill="#22BBE9" transform="translate(213,188)"/>
<path d="M0 0 C2.475 0.495 2.475 0.495 5 1 C5.0825 1.78375 5.165 2.5675 5.25 3.375 C5.72806339 6.14749104 5.72806339 6.14749104 8.0625 7.3125 C8.701875 7.539375 9.34125 7.76625 10 8 C9.34 9.32 8.68 10.64 8 12 C8.66 12 9.32 12 10 12 C10.08086376 14.93804996 10.1404283 17.87388075 10.1875 20.8125 C10.21263672 21.64587891 10.23777344 22.47925781 10.26367188 23.33789062 C10.27817383 24.54155273 10.27817383 24.54155273 10.29296875 25.76953125 C10.31653442 26.87711792 10.31653442 26.87711792 10.34057617 28.00708008 C9.90709353 30.54365267 8.85781682 31.28973757 7 33 C6.27802838 35.60611077 6.27802838 35.60611077 6 38 C5.01 37.34 4.02 36.68 3 36 C3.15597656 35.17757812 3.31195313 34.35515625 3.47265625 33.5078125 C5.23962916 23.37404736 4.98634573 14.83737417 2 5 C1.34 4.34 0.68 3.68 0 3 C0 2.01 0 1.02 0 0 Z " fill="#0DF1F6" transform="translate(295,222)"/>
<path d="M0 0 C1.32 0.33 2.64 0.66 4 1 C4 1.33 4 1.66 4 2 C10.83181793 2.91090906 17.61573366 3.1666138 24.5 3.25 C25.39686523 3.27126953 26.29373047 3.29253906 27.21777344 3.31445312 C28.0637207 3.31896484 28.90966797 3.32347656 29.78125 3.328125 C30.54501953 3.3374707 31.30878906 3.34681641 32.09570312 3.35644531 C32.72412109 3.23881836 33.35253906 3.12119141 34 3 C34.66 2.01 35.32 1.02 36 0 C36.66 0.33 37.32 0.66 38 1 C36.94213867 2.97558594 36.94213867 2.97558594 35 5 C31.8137207 5.45410156 31.8137207 5.45410156 27.92578125 5.390625 C27.2419487 5.38496521 26.55811615 5.37930542 25.8535614 5.37347412 C23.67249101 5.35110816 21.49307247 5.30091765 19.3125 5.25 C17.83270605 5.229935 16.3528863 5.21168422 14.87304688 5.1953125 C11.24755194 5.15464514 7.62562116 5.07637353 4 5 C3.67 11.27 3.34 17.54 3 24 C0.36 24 -2.28 24 -5 24 C-7.45153075 19.26101734 -7.23154206 14.87937667 -7.125 9.6875 C-7.11597656 8.85154297 -7.10695312 8.01558594 -7.09765625 7.15429688 C-7.07420989 5.10274031 -7.03834266 3.05133223 -7 1 C-6.34 1 -5.68 1 -5 1 C-4.86722656 2.19238281 -4.73445312 3.38476562 -4.59765625 4.61328125 C-4.41944017 6.17970678 -4.24104544 7.74611198 -4.0625 9.3125 C-3.97548828 10.09818359 -3.88847656 10.88386719 -3.79882812 11.69335938 C-3.71181641 12.45068359 -3.62480469 13.20800781 -3.53515625 13.98828125 C-3.456604 14.68477783 -3.37805176 15.38127441 -3.29711914 16.09887695 C-3.02003217 18.21648234 -3.02003217 18.21648234 -2 21 C-1.01 21.33 -0.02 21.66 1 22 C0.67 14.74 0.34 7.48 0 0 Z " fill="#C7D7C1" transform="translate(152,224)"/>
<path d="M0 0 C1.32 0 2.64 0 4 0 C5.0098473 1.91149668 6.00754495 3.82941569 7 5.75 C7.8353125 7.35101563 7.8353125 7.35101563 8.6875 8.984375 C10 12 10 12 10 16 C8.68 16.33 7.36 16.66 6 17 C5.67 15.68 5.34 14.36 5 13 C3.02 13 1.04 13 -1 13 C-1.66 14.32 -2.32 15.64 -3 17 C-3.99 16.67 -4.98 16.34 -6 16 C-5.52412884 9.97229862 -2.80277043 5.23321711 0 0 Z " fill="#19181A" transform="translate(180,279)"/>
<path d="M0 0 C1.01259888 0.23771118 1.01259888 0.23771118 2.0456543 0.48022461 C5.47918448 1.08430574 8.78427459 1.21600791 12.26953125 1.31640625 C12.95053391 1.33718735 13.63153656 1.35796844 14.33317566 1.37937927 C16.49285508 1.44437878 18.65264846 1.50352712 20.8125 1.5625 C22.28321456 1.6057325 23.75391791 1.64934825 25.22460938 1.69335938 C28.81628717 1.80000859 32.40809082 1.90141349 36 2 C36.495 3.98 36.495 3.98 37 6 C32.83741853 6.04969106 28.67499739 6.08585642 24.51220703 6.10986328 C23.09811391 6.11987856 21.68404127 6.13349474 20.27001953 6.15087891 C18.22944054 6.17532559 16.18913697 6.18652784 14.1484375 6.1953125 C12.92302246 6.20578613 11.69760742 6.21625977 10.43505859 6.22705078 C6.92832194 5.99526222 4.22409518 5.38537698 1 4 C0.125 1.875 0.125 1.875 0 0 Z " fill="#0FB5F8" transform="translate(167,269)"/>
<path d="M0 0 C1.134375 0.020625 2.26875 0.04125 3.4375 0.0625 C3.1075 0.7225 2.7775 1.3825 2.4375 2.0625 C1.7775 2.0625 1.1175 2.0625 0.4375 2.0625 C0.4375 2.7225 0.4375 3.3825 0.4375 4.0625 C-4.54051947 6.01730256 -8.98056236 6.43859194 -14.25 6.625 C-19.98809083 6.79561844 -19.98809083 6.79561844 -25.5625 8.0625 C-27.89549825 8.10204234 -30.22958189 8.10651732 -32.5625 8.0625 C-32.5625 7.4025 -32.5625 6.7425 -32.5625 6.0625 C-31.9025 5.7325 -31.2425 5.4025 -30.5625 5.0625 C-30.2325 4.0725 -29.9025 3.0825 -29.5625 2.0625 C-28.4343689 2.02491577 -28.4343689 2.02491577 -27.28344727 1.98657227 C-23.89710804 1.87099486 -20.51107387 1.74809655 -17.125 1.625 C-15.94099609 1.58568359 -14.75699219 1.54636719 -13.53710938 1.50585938 C-12.41240234 1.46396484 -11.28769531 1.42207031 -10.12890625 1.37890625 C-9.08677979 1.34224854 -8.04465332 1.30559082 -6.97094727 1.26782227 C-3.58792124 0.9794163 -3.8384178 0.06734066 0 0 Z " fill="#09E2F9" transform="translate(283.5625,268.9375)"/>
<path d="M0 0 C1.65 0.33 3.3 0.66 5 1 C4.814375 1.78375 4.62875 2.5675 4.4375 3.375 C3.74037734 5.97089775 3.74037734 5.97089775 5 8 C3.68 7.67 2.36 7.34 1 7 C1.66 10.3 2.32 13.6 3 17 C3.99 17.33 4.98 17.66 6 18 C6 23.28 6 28.56 6 34 C4.68 33.67 3.36 33.34 2 33 C0.74158054 26.25846717 -0.26404456 19.86515862 0 13 C-0.66 13 -1.32 13 -2 13 C-1.48041715 8.62065881 -0.94324258 4.31196609 0 0 Z " fill="#FBE8C4" transform="translate(147,212)"/>
<path d="M0 0 C1.7325 -0.0928125 1.7325 -0.0928125 3.5 -0.1875 C8.35267782 0.07246488 10.27838942 1.96195055 14 5 C13.67 6.98 13.34 8.96 13 11 C12.443125 10.74605469 11.88625 10.49210938 11.3125 10.23046875 C6.26740825 7.95506419 1.20121175 5.89134973 -4 4 C-4 3.01 -4 2.02 -4 1 C-8.95 1 -13.9 1 -19 1 C-19 0.34 -19 -0.32 -19 -1 C-12.41405033 -3.19531656 -6.51755028 -1.93112601 0 0 Z " fill="#0ADAF8" transform="translate(250,184)"/>
<path d="M0 0 C4.95 0 9.9 0 15 0 C15 1.32 15 2.64 15 4 C13.35 4 11.7 4 10 4 C10 7.96 10 11.92 10 16 C8.35 15.67 6.7 15.34 5 15 C5 11.37 5 7.74 5 4 C3.35 4 1.7 4 0 4 C0 2.68 0 1.36 0 0 Z " fill="#131314" transform="translate(190,279)"/>
<path d="M0 0 C4.95 0 9.9 0 15 0 C15 1.32 15 2.64 15 4 C13.35 4 11.7 4 10 4 C10 7.96 10 11.92 10 16 C8.35 16 6.7 16 5 16 C5 12.04 5 8.08 5 4 C3.35 4 1.7 4 0 4 C0 2.68 0 1.36 0 0 Z " fill="#151214" transform="translate(257,279)"/>
<path d="M0 0 C22.41109531 -0.29445235 22.41109531 -0.29445235 27 2 C27 2.99 27 3.98 27 5 C18.42 5 9.84 5 1 5 C0.67 3.35 0.34 1.7 0 0 Z " fill="#0EC0F8" transform="translate(196,216)"/>
<path d="M0 0 C1.59134766 -0.02126953 1.59134766 -0.02126953 3.21484375 -0.04296875 C6.0625 0.1875 6.0625 0.1875 9.0625 2.1875 C8.1875 6.0625 8.1875 6.0625 7.0625 7.1875 C4.75256618 7.31307162 2.43831464 7.36325729 0.125 7.375 C-1.14214844 7.38917969 -2.40929687 7.40335938 -3.71484375 7.41796875 C-6.9375 7.1875 -6.9375 7.1875 -8.9375 5.1875 C-8.6875 3.125 -8.6875 3.125 -7.9375 1.1875 C-5.2264923 -0.16800385 -3.02410831 0.01832793 0 0 Z " fill="#1DCFEE" transform="translate(236.9375,215.8125)"/>
<path d="M0 0 C6.81761894 -0.0252689 13.63522589 -0.04283244 20.45288086 -0.05493164 C22.77417451 -0.05997333 25.09546497 -0.06680651 27.41674805 -0.07543945 C30.74528795 -0.08751225 34.07378602 -0.09322979 37.40234375 -0.09765625 C38.44712387 -0.10281754 39.49190399 -0.10797882 40.56834412 -0.11329651 C41.52926468 -0.11337204 42.49018524 -0.11344757 43.48022461 -0.11352539 C44.33071884 -0.115746 45.18121307 -0.11796661 46.05747986 -0.12025452 C48 0 48 0 49 1 C49.04063832 2.66617115 49.042721 4.33388095 49 6 C47.68 5.67 46.36 5.34 45 5 C45.66 5 46.32 5 47 5 C47 4.01 47 3.02 47 2 C31.16 2 15.32 2 -1 2 C-0.67 1.34 -0.34 0.68 0 0 Z " fill="#37C1E2" transform="translate(204,237)"/>
<path d="M0 0 C-1.74506615 1.74506615 -4.19039143 1.23282784 -6.56640625 1.31640625 C-7.69111328 1.35830078 -8.81582031 1.40019531 -9.97460938 1.44335938 C-11.15861328 1.48267578 -12.34261719 1.52199219 -13.5625 1.5625 C-14.75037109 1.60568359 -15.93824219 1.64886719 -17.16210938 1.69335938 C-20.10794784 1.79983546 -23.0538743 1.90184841 -26 2 C-26.33 2.66 -26.66 3.32 -27 4 C-26.34 4.33 -25.68 4.66 -25 5 C-27.82321366 5.79471647 -30.38028224 6.14356017 -33.30957031 6.20532227 C-34.15013977 6.22526749 -34.99070923 6.24521271 -35.85675049 6.26576233 C-36.75480408 6.28247482 -37.65285767 6.29918732 -38.578125 6.31640625 C-39.5046991 6.33718735 -40.43127319 6.35796844 -41.38592529 6.37937927 C-44.34054272 6.44466961 -47.29524768 6.50366431 -50.25 6.5625 C-52.25521732 6.60570473 -54.26042585 6.64931965 -56.265625 6.69335938 C-61.17699404 6.80032999 -66.08845097 6.90165518 -71 7 C-71 6.34 -71 5.68 -71 5 C-70.08186523 4.97494385 -69.16373047 4.9498877 -68.21777344 4.92407227 C-64.80342975 4.8287973 -61.38924797 4.72957222 -57.97509766 4.62768555 C-56.4989061 4.58443965 -55.02266785 4.54275744 -53.54638672 4.50268555 C-51.42140652 4.44473154 -49.29665907 4.38111054 -47.171875 4.31640625 C-45.8940918 4.27974854 -44.61630859 4.24309082 -43.29980469 4.20532227 C-40.66122967 4.0411434 -38.52010788 3.6938544 -36 3 C-35.13375 3.04125 -34.2675 3.0825 -33.375 3.125 C-32.59125 3.08375 -31.8075 3.0425 -31 3 C-30.34 2.01 -29.68 1.02 -29 0 C-26.32617188 -0.44824219 -26.32617188 -0.44824219 -22.96875 -0.546875 C-21.76605469 -0.58683594 -20.56335938 -0.62679688 -19.32421875 -0.66796875 C-18.06222656 -0.69503906 -16.80023438 -0.72210938 -15.5 -0.75 C-14.23800781 -0.79253906 -12.97601563 -0.83507812 -11.67578125 -0.87890625 C-2.30043693 -1.15021847 -2.30043693 -1.15021847 0 0 Z " fill="#1DCDED" transform="translate(280,270)"/>
<path d="M0 0 C-1.50663783 3.01327566 -4.03166411 3.61056618 -7 5 C-7.41725678 8.37400578 -7.41725678 8.37400578 -7 12 C-4.80359527 14.1349293 -4.80359527 14.1349293 -2 15 C-1.01 14.67 -0.02 14.34 1 14 C1.70125 13.79375 2.4025 13.5875 3.125 13.375 C5.41900719 12.01463632 5.41900719 12.01463632 5.75 8.375 C5.8325 7.26125 5.915 6.1475 6 5 C4.35 5 2.7 5 1 5 C1 3.33333333 1 1.66666667 1 0 C4.65316671 1.24976756 5.78065836 1.67098753 8 5 C8.50835292 8.8973724 8.32962183 10.50556726 6.125 13.8125 C3.56894626 16.44373179 2.77721341 16.94931217 -0.875 17.1875 C-3.96075154 17.00235491 -5.51023567 16.77840309 -8 15 C-10.3020949 11.77706714 -10.47510654 8.88003676 -10 5 C-7.21934137 0.68518488 -5.2844547 -1.7614849 0 0 Z " fill="#2FDFEA" transform="translate(287,191)"/>
<path d="M0 0 C3.125 0.375 3.125 0.375 6 1 C6 1.66 6 2.32 6 3 C8.31 3 10.62 3 13 3 C12.67 4.32 12.34 5.64 12 7 C10.02 7 8.04 7 6 7 C6 7.99 6 8.98 6 10 C3.66705225 10.04241723 1.33297433 10.04092937 -1 10 C-2 9 -2 9 -2.1875 5.5625 C-2 2 -2 2 0 0 Z " fill="#1D8BEF" transform="translate(115,246)"/>
<path d="M0 0 C6.6 0 13.2 0 20 0 C20 1.65 20 3.3 20 5 C5.21867882 5.18451025 5.21867882 5.18451025 -1 4 C-0.67 2.68 -0.34 1.36 0 0 Z " fill="#149CF5" transform="translate(134,249)"/>
<path d="M0 0 C7.59 0 15.18 0 23 0 C23 1.32 23 2.64 23 4 C15.41 4 7.82 4 0 4 C0 2.68 0 1.36 0 0 Z " fill="#0DC3F6" transform="translate(203,249)"/>
<path d="M0 0 C2.35171131 0.59861742 4.6859378 1.26924352 7 2 C7.33 2.66 7.66 3.32 8 4 C7.34 4 6.68 4 6 4 C6.185625 4.94875 6.37125 5.8975 6.5625 6.875 C7 10 7 10 6 12 C-0.875 11.125 -0.875 11.125 -2 10 C-2.27314815 4.26388889 -2.27314815 4.26388889 -2 2 C-1.34 1.34 -0.68 0.68 0 0 Z " fill="#1791F4" transform="translate(122,224)"/>
<path d="M0 0 C7.59 0 15.18 0 23 0 C23 0.99 23 1.98 23 3 C20.65147472 4.17426264 19.26225935 4.11508173 16.6484375 4.09765625 C15.79765625 4.09443359 14.946875 4.09121094 14.0703125 4.08789062 C13.18085938 4.07951172 12.29140625 4.07113281 11.375 4.0625 C10.4778125 4.05798828 9.580625 4.05347656 8.65625 4.04882812 C6.43743352 4.03702591 4.21874982 4.02056155 2 4 C2 3.01 2 2.02 2 1 C1.34 0.67 0.68 0.34 0 0 Z " fill="#09D2F8" transform="translate(228,239)"/>
<path d="M0 0 C1.0625 1.875 1.0625 1.875 2 4 C1.67 4.66 1.34 5.32 1 6 C0.37432129 6.01458252 -0.25135742 6.02916504 -0.89599609 6.04418945 C-3.72296402 6.11852804 -6.54873208 6.21523234 -9.375 6.3125 C-10.35984375 6.33505859 -11.3446875 6.35761719 -12.359375 6.38085938 C-13.30039063 6.41630859 -14.24140625 6.45175781 -15.2109375 6.48828125 C-16.08024902 6.51446533 -16.94956055 6.54064941 -17.84521484 6.56762695 C-20.38600027 6.81345218 -20.38600027 6.81345218 -22 10 C-21.67 7.03 -21.34 4.06 -21 1 C-16.71 1 -12.42 1 -8 1 C-8 1.33 -8 1.66 -8 2 C-10.31 2.33 -12.62 2.66 -15 3 C-8.07 3.495 -8.07 3.495 -1 4 C-0.67 2.68 -0.34 1.36 0 0 Z " fill="#2CBDEA" transform="translate(224,227)"/>
<path d="M0 0 C1.98 0 3.96 0 6 0 C6.33 0.99 6.66 1.98 7 3 C20.2 3 33.4 3 47 3 C47 3.33 47 3.66 47 4 C33.14 4 19.28 4 5 4 C5 4.99 5 5.98 5 7 C3.125 6.75 3.125 6.75 1 6 C-0.3125 4.0625 -0.3125 4.0625 -1 2 C-0.67 1.34 -0.34 0.68 0 0 Z " fill="#39C3E6" transform="translate(204,267)"/>
<path d="M0 0 C4.71183028 1.28629527 7.60637383 3.00898051 11.1875 6.3125 C12.02667969 7.07175781 12.86585938 7.83101562 13.73046875 8.61328125 C15.96449581 10.96266255 17.5804949 13.08781943 19 16 C18.67 16.66 18.34 17.32 18 18 C16 17 16 17 15.125 14.5 C14.27117929 11.81740446 14.27117929 11.81740446 11.875 11.1875 C11.25625 11.125625 10.6375 11.06375 10 11 C10.680625 12.093125 11.36125 13.18625 12.0625 14.3125 C13.22265625 16.17578125 13.22265625 16.17578125 14 18 C13.67 18.99 13.34 19.98 13 21 C12.61328125 20.39671875 12.2265625 19.7934375 11.828125 19.171875 C7.92383803 13.17198187 7.92383803 13.17198187 3 8 C4.98 8 6.96 8 9 8 C7.03617993 6.49440461 5.21736634 5.10868317 3 4 C3 3.34 3 2.68 3 2 C2.01 2 1.02 2 0 2 C0 1.34 0 0.68 0 0 Z " fill="#26E7ED" transform="translate(285,211)"/>
<path d="M0 0 C2.31 0 4.62 0 7 0 C8.125 2.25 8.125 2.25 9 5 C8.125 7.3125 8.125 7.3125 7 9 C4.69 9 2.38 9 0 9 C-1.125 2.25 -1.125 2.25 0 0 Z " fill="#12E4F4" transform="translate(279,169)"/>
<path d="M0 0 C3.57713918 3.57713918 3.20944688 7.73268886 3.3125 12.625 C3.24706505 20.48537384 1.8914356 27.35498467 -3.75 33.125 C-4.86375 34.053125 -4.86375 34.053125 -6 35 C-6 33.35 -6 31.7 -6 30 C-5.34 30 -4.68 30 -4 30 C-3.71125 29.05125 -3.4225 28.1025 -3.125 27.125 C-2 24 -2 24 0 22 C0.36831081 20.06742145 0.36831081 20.06742145 0.4140625 17.8671875 C0.47207031 16.65869141 0.47207031 16.65869141 0.53125 15.42578125 C0.5621875 14.58402344 0.593125 13.74226562 0.625 12.875 C0.66367187 12.02550781 0.70234375 11.17601562 0.7421875 10.30078125 C0.83656494 8.20088316 0.91937586 6.10047109 1 4 C0.34 4 -0.32 4 -1 4 C-0.67 2.68 -0.34 1.36 0 0 Z " fill="#21EAEE" transform="translate(304,230)"/>
<path d="M0 0 C9.9 0.33 19.8 0.66 30 1 C30 1.33 30 1.66 30 2 C26.7 2.33 23.4 2.66 20 3 C20 3.33 20 3.66 20 4 C16.37 4 12.74 4 9 4 C9 4.66 9 5.32 9 6 C7.35 6 5.7 6 4 6 C5.32 5.67 6.64 5.34 8 5 C8 4.01 8 3.02 8 2 C5.69 2 3.38 2 1 2 C0.67 2.99 0.34 3.98 0 5 C0 3.35 0 1.7 0 0 Z " fill="#32C3DB" transform="translate(156,229)"/>
<path d="M0 0 C1.65 0.33 3.3 0.66 5 1 C4.814375 1.78375 4.62875 2.5675 4.4375 3.375 C3.74037734 5.97089775 3.74037734 5.97089775 5 8 C3.68 7.67 2.36 7.34 1 7 C1.0721875 7.70125 1.144375 8.4025 1.21875 9.125 C1.77225737 14.78307538 2.10724737 20.31588941 2 26 C1.67 26 1.34 26 1 26 C-0.10228696 21.59085217 -0.07654536 17.51617599 0 13 C-0.66 13 -1.32 13 -2 13 C-1.48041715 8.62065881 -0.94324258 4.31196609 0 0 Z " fill="#F3F3DD" transform="translate(147,212)"/>
<path d="M0 0 C0.66 0 1.32 0 2 0 C2 1.98 2 3.96 2 6 C2.66 6 3.32 6 4 6 C4 6.99 4 7.98 4 9 C2.88625 9.268125 1.7725 9.53625 0.625 9.8125 C-3.21840951 10.65809019 -3.21840951 10.65809019 -5 14 C-7.33837891 14.34057617 -7.33837891 14.34057617 -10.2265625 14.29296875 C-11.2578125 14.28330078 -12.2890625 14.27363281 -13.3515625 14.26367188 C-14.43179688 14.23853516 -15.51203125 14.21339844 -16.625 14.1875 C-17.71296875 14.17396484 -18.8009375 14.16042969 -19.921875 14.14648438 C-22.61507409 14.11104754 -25.30729374 14.06164331 -28 14 C-28 13.67 -28 13.34 -28 13 C-27.37955811 12.9906543 -26.75911621 12.98130859 -26.11987305 12.97167969 C-23.30827323 12.91799005 -20.4983402 12.83434354 -17.6875 12.75 C-16.71103516 12.73582031 -15.73457031 12.72164062 -14.72851562 12.70703125 C-13.79072266 12.67480469 -12.85292969 12.64257812 -11.88671875 12.609375 C-11.02264404 12.58842773 -10.15856934 12.56748047 -9.26831055 12.54589844 C-6.28802497 11.82865395 -5.77074343 10.40488325 -4 8 C-2.68 8 -1.36 8 0 8 C0 5.36 0 2.72 0 0 Z " fill="#4FB5CB" transform="translate(194,216)"/>
<path d="M0 0 C3.24745514 4.13312472 5 6.63932628 5 12 C3.68 12.33 2.36 12.66 1 13 C0.67 11.68 0.34 10.36 0 9 C-0.99 9 -1.98 9 -3 9 C-3.66 6.69 -4.32 4.38 -5 2 C-2.525 2.495 -2.525 2.495 0 3 C0 2.01 0 1.02 0 0 Z " fill="#1B1919" transform="translate(185,283)"/>
<path d="M0 0 C1.32 1.32 2.64 2.64 4 4 C2.8553125 4.8353125 2.8553125 4.8353125 1.6875 5.6875 C-0.96140888 7.96679369 -2.38288822 9.93599872 -4 13 C-5.32 12.34 -6.64 11.68 -8 11 C-7.57692877 9.68277821 -7.13602514 8.37127336 -6.6875 7.0625 C-6.44386719 6.33160156 -6.20023438 5.60070312 -5.94921875 4.84765625 C-5 3 -5 3 -2 2 C-1.34 1.34 -0.68 0.68 0 0 Z " fill="#110E0F" transform="translate(213,283)"/>
<path d="M0 0 C1.23556641 0.01740234 1.23556641 0.01740234 2.49609375 0.03515625 C3.32238281 0.04417969 4.14867187 0.05320312 5 0.0625 C5.63808594 0.07410156 6.27617187 0.08570313 6.93359375 0.09765625 C7.55859375 1.97265625 7.55859375 1.97265625 7.93359375 4.09765625 C5.93359375 6.09765625 5.93359375 6.09765625 3.98828125 6.29296875 C1.97005208 6.22786458 -0.04817708 6.16276042 -2.06640625 6.09765625 C-2.44859392 4.44150968 -2.78035727 2.77308601 -3.06640625 1.09765625 C-2.06640625 0.09765625 -2.06640625 0.09765625 0 0 Z " fill="#3DC8E0" transform="translate(248.06640625,257.90234375)"/>
<path d="M0 0 C3.5 0.1875 3.5 0.1875 5.5 1.1875 C5.17 2.8375 4.84 4.4875 4.5 6.1875 C1.53 6.1875 -1.44 6.1875 -4.5 6.1875 C-4.83 4.8675 -5.16 3.5475 -5.5 2.1875 C-3.5 0.1875 -3.5 0.1875 0 0 Z " fill="#1AD9F0" transform="translate(261.5,236.8125)"/>
<path d="M0 0 C1.58179615 -0.10867302 3.16577153 -0.18589827 4.75 -0.25 C5.63171875 -0.29640625 6.5134375 -0.3428125 7.421875 -0.390625 C10 0 10 0 12.375 1.59375 C14 4 14 4 13.953125 7.234375 C13.60507813 8.97460938 13.60507813 8.97460938 13.25 10.75 C13.02828125 11.92046875 12.8065625 13.0909375 12.578125 14.296875 C12.38734375 15.18890625 12.1965625 16.0809375 12 17 C10.68 16.67 9.36 16.34 8 16 C8.33 15.01 8.66 14.02 9 13 C9.0685495 11.10529184 9.08480372 9.2083166 9.0625 7.3125 C9.05347656 6.31863281 9.04445312 5.32476562 9.03515625 4.30078125 C9.02355469 3.54152344 9.01195312 2.78226563 9 2 C6.03 1.67 3.06 1.34 0 1 C0 0.67 0 0.34 0 0 Z " fill="#DEBFAA" transform="translate(182,207)"/>
<path d="M0 0 C1.32 0 2.64 0 4 0 C3.67 1.98 3.34 3.96 3 6 C2.01 5.67 1.02 5.34 0 5 C-0.66 6.98 -1.32 8.96 -2 11 C-3.65 11.33 -5.3 11.66 -7 12 C-5.63807813 6.79993466 -3.74943029 3.74943029 0 0 Z " fill="#171515" transform="translate(236,279)"/>
<path d="M0 0 C1.60332791 -0.08121924 3.20784026 -0.13929134 4.8125 -0.1875 C6.15248047 -0.23970703 6.15248047 -0.23970703 7.51953125 -0.29296875 C10 0 10 0 13 3 C8.545 3.495 8.545 3.495 4 4 C4 4.99 4 5.98 4 7 C3.01 7 2.02 7 1 7 C0.67 7.66 0.34 8.32 0 9 C0 6.03 0 3.06 0 0 Z " fill="#201D1F" transform="translate(159,279)"/>
<path d="M0 0 C2.05078125 0.03255208 4.1015625 0.06510417 6.15234375 0.09765625 C6.53453142 1.75380282 6.86629477 3.42222649 7.15234375 5.09765625 C6.15234375 6.09765625 6.15234375 6.09765625 4.3046875 6.1953125 C2.25390625 6.16276042 0.203125 6.13020833 -1.84765625 6.09765625 C-2.22984392 4.44150968 -2.56160727 2.77308601 -2.84765625 1.09765625 C-1.84765625 0.09765625 -1.84765625 0.09765625 0 0 Z " fill="#2DC7E8" transform="translate(229.84765625,226.90234375)"/>
<path d="M0 0 C6.6 0 13.2 0 20 0 C20 5 20 5 17.75 7.8125 C15 10 15 10 11 10 C11 9.34 11 8.68 11 8 C11.66 8 12.32 8 13 8 C13 7.34 13 6.68 13 6 C13.99 6 14.98 6 16 6 C16.33 5.01 16.66 4.02 17 3 C13.43928688 1.95117609 9.94472103 1.69613047 6.25 1.4375 C5.07953125 1.35371094 3.9090625 1.26992187 2.703125 1.18359375 C1.81109375 1.12300781 0.9190625 1.06242188 0 1 C0 0.67 0 0.34 0 0 Z " fill="#F0B47F" transform="translate(171,218)"/>
<path d="M0 0 C1.11375 0.185625 1.11375 0.185625 2.25 0.375 C2.25 1.695 2.25 3.015 2.25 4.375 C1.26 4.375 0.27 4.375 -0.75 4.375 C-0.75 5.035 -0.75 5.695 -0.75 6.375 C-1.74 6.375 -2.73 6.375 -3.75 6.375 C-3.42 8.025 -3.09 9.675 -2.75 11.375 C-4.4 11.375 -6.05 11.375 -7.75 11.375 C-7.16155993 6.37325939 -5.51571413 0.75214284 0 0 Z " fill="#1ABDF2" transform="translate(209.75,192.625)"/>
<path d="M0 0 C1.93166016 0.01740234 1.93166016 0.01740234 3.90234375 0.03515625 C5.19269531 0.04417969 6.48304688 0.05320313 7.8125 0.0625 C8.81152344 0.07410156 9.81054688 0.08570313 10.83984375 0.09765625 C10.83984375 0.75765625 10.83984375 1.41765625 10.83984375 2.09765625 C9.95683594 2.13503906 9.07382813 2.17242187 8.1640625 2.2109375 C0.35105512 2.63893253 -6.71416629 3.68150849 -14.16015625 6.09765625 C-14.49015625 5.10765625 -14.82015625 4.11765625 -15.16015625 3.09765625 C-13.84015625 3.42765625 -12.52015625 3.75765625 -11.16015625 4.09765625 C-11.16015625 3.43765625 -11.16015625 2.77765625 -11.16015625 2.09765625 C-9.45859375 1.88109375 -9.45859375 1.88109375 -7.72265625 1.66015625 C-4.02637385 1.07653271 -3.6179549 0.1118033 0 0 Z " fill="#2EC8E6" transform="translate(235.16015625,184.90234375)"/>
<path d="M0 0 C1.32 0.33 2.64 0.66 4 1 C2.3970947 1.81498562 0.79262722 2.62689927 -0.8125 3.4375 C-1.70582031 3.88996094 -2.59914063 4.34242188 -3.51953125 4.80859375 C-7.08109254 6.51926492 -9.76146828 7.12253842 -13.66796875 7.09765625 C-14.56064453 7.09443359 -15.45332031 7.09121094 -16.37304688 7.08789062 C-17.76620117 7.07532227 -17.76620117 7.07532227 -19.1875 7.0625 C-20.12787109 7.05798828 -21.06824219 7.05347656 -22.03710938 7.04882812 C-24.35813712 7.03704626 -26.67903644 7.02059558 -29 7 C-29 6.67 -29 6.34 -29 6 C-27.84242188 5.93941406 -26.68484375 5.87882812 -25.4921875 5.81640625 C-23.95311543 5.73194498 -22.41405345 5.64729982 -20.875 5.5625 C-20.11445313 5.52318359 -19.35390625 5.48386719 -18.5703125 5.44335938 C-14.31490797 5.20490998 -10.19629174 4.79769763 -6 4 C-6 3.34 -6 2.68 -6 2 C-4.02 2 -2.04 2 0 2 C0 1.34 0 0.68 0 0 Z " fill="#28D8E9" transform="translate(290,269)"/>
<path d="M0 0 C3.63 0 7.26 0 11 0 C11 0.66 11 1.32 11 2 C11.66 2.33 12.32 2.66 13 3 C11 5 11 5 9.0546875 5.1953125 C7.03645833 5.13020833 5.01822917 5.06510417 3 5 C2.67 4.01 2.34 3.02 2 2 C1.34 1.34 0.68 0.68 0 0 Z " fill="#FADFB4" transform="translate(149,212)"/>
<path d="M0 0 C1.65 0 3.3 0 5 0 C5.66 1.65 6.32 3.3 7 5 C6.01 5.99 5.02 6.98 4 8 C2.35 7.01 0.7 6.02 -1 5 C-0.67 3.35 -0.34 1.7 0 0 Z " fill="#EFC0AD" transform="translate(139,202)"/>
<path d="M0 0 C7.36611079 -0.36830554 13.99379683 0.61723511 21 3 C21.66 3.66 22.32 4.32 23 5 C15.30232994 4.2036893 7.65647079 3.12178733 0 2 C0 1.34 0 0.68 0 0 Z " fill="#18D2EF" transform="translate(233,180)"/>
<path d="M0 0 C2.4375 0.125 2.4375 0.125 5 1 C6.3125 3.5625 6.3125 3.5625 7 6 C5.35 7.32 3.7 8.64 2 10 C-0.4375 4.15 -0.4375 4.15 -1 1 C-0.67 0.67 -0.34 0.34 0 0 Z " fill="#191F1F" transform="translate(223,279)"/>
<path d="M0 0 C4.95 0 9.9 0 15 0 C15 0.33 15 0.66 15 1 C13.35 1.33 11.7 1.66 10 2 C9.67 2.99 9.34 3.98 9 5 C6.03 4.67 3.06 4.34 0 4 C0 2.68 0 1.36 0 0 Z " fill="#1F2024" transform="translate(190,279)"/>
<path d="M0 0 C0.66 0 1.32 0 2 0 C2.36272727 6.40818182 2.36272727 6.40818182 0.8125 8.9375 C-1.56041618 10.32851983 -3.29686424 10.21917317 -6 10 C-6.33 10.66 -6.66 11.32 -7 12 C-6.49396008 9.83125748 -6.00016187 8.00032373 -5 6 C-4.01 5.67 -3.02 5.34 -2 5 C-0.78130071 2.49552484 -0.78130071 2.49552484 0 0 Z " fill="#0DEEF6" transform="translate(296,259)"/>
<path d="M0 0 C0.99 0.33 1.98 0.66 3 1 C3.6875 3.0625 3.6875 3.0625 4 5 C4.66 5 5.32 5 6 5 C6.66 3.68 7.32 2.36 8 1 C8.268125 1.639375 8.53625 2.27875 8.8125 2.9375 C9.88667752 5.33131686 9.88667752 5.33131686 13 6 C12.67 6.66 12.34 7.32 12 8 C10.02 8 8.04 8 6 8 C6.33 9.32 6.66 10.64 7 12 C4 11 4 11 2.83203125 9.00390625 C2.49558594 8.19824219 2.15914063 7.39257812 1.8125 6.5625 C1.46832031 5.75941406 1.12414062 4.95632812 0.76953125 4.12890625 C0 2 0 2 0 0 Z " fill="#33D4E2" transform="translate(268,203)"/>
<path d="M0 0 C-0.99 0.33 -1.98 0.66 -3 1 C-3 1.66 -3 2.32 -3 3 C-4.32 2.67 -5.64 2.34 -7 2 C-6.67 2.99 -6.34 3.98 -6 5 C-6.94875 5.103125 -7.8975 5.20625 -8.875 5.3125 C-12.29107501 5.68539295 -12.29107501 5.68539295 -14 9 C-13.67 6.36 -13.34 3.72 -13 1 C-11.58622218 0.63447197 -10.16879424 0.28304505 -8.75 -0.0625 C-7.96109375 -0.25972656 -7.1721875 -0.45695313 -6.359375 -0.66015625 C-3.89605178 -1.01497267 -2.34395868 -0.76877544 0 0 Z " fill="#0EC7F8" transform="translate(227,186)"/>
<path d="M0 0 C3.3 0.33 6.6 0.66 10 1 C10.66 2.65 11.32 4.3 12 6 C9.03 5.67 6.06 5.34 3 5 C3 4.01 3 3.02 3 2 C1.68 2.33 0.36 2.66 -1 3 C-0.67 2.01 -0.34 1.02 0 0 Z " fill="#159FF3" transform="translate(144,257)"/>
<path d="M0 0 C2.97 0.495 2.97 0.495 6 1 C6 1.66 6 2.32 6 3 C8.31 3 10.62 3 13 3 C12.67 4.32 12.34 5.64 12 7 C9.83125748 6.49396008 8.00032373 6.00016187 6 5 C4.00448218 4.64080679 2.00451121 4.30503431 0 4 C0 2.68 0 1.36 0 0 Z " fill="#158EF9" transform="translate(115,246)"/>
<path d="M0 0 C0.90105469 0.02707031 1.80210937 0.05414063 2.73046875 0.08203125 C3.76107422 0.13423828 3.76107422 0.13423828 4.8125 0.1875 C5.1425 1.5075 5.4725 2.8275 5.8125 4.1875 C0.9375 3.3125 0.9375 3.3125 -0.1875 2.1875 C-0.5175 2.8475 -0.8475 3.5075 -1.1875 4.1875 C-3.4975 3.8575 -5.8075 3.5275 -8.1875 3.1875 C-5.67753317 0.01043235 -3.96125134 -0.15433447 0 0 Z " fill="#1697F3" transform="translate(139.1875,227.8125)"/>
<path d="M0 0 C-0.33 1.32 -0.66 2.64 -1 4 C-1.99 4 -2.98 4 -4 4 C-5.68798827 5.43750191 -5.68798827 5.43750191 -7 7 C-7.66 6.67 -8.32 6.34 -9 6 C-8.75 3.625 -8.75 3.625 -8 1 C-5.12800349 -1.17875597 -3.33791789 -1.19211353 0 0 Z " fill="#0E0B0D" transform="translate(251,285)"/>
<path d="M0 0 C4.29 0 8.58 0 13 0 C12.67 0.66 12.34 1.32 12 2 C9.36 2 6.72 2 4 2 C3.71125 3.134375 3.4225 4.26875 3.125 5.4375 C2.75375 6.613125 2.3825 7.78875 2 9 C1.01 9.495 1.01 9.495 0 10 C0 6.7 0 3.4 0 0 Z " fill="#1D2023" transform="translate(273,279)"/>
<path d="M0 0 C0.721875 0.144375 1.44375 0.28875 2.1875 0.4375 C3.5796875 0.7159375 3.5796875 0.7159375 5 1 C6.66666667 1.33333333 8.33333333 1.66666667 10 2 C9.67 2.99 9.34 3.98 9 5 C9.66 5.33 10.32 5.66 11 6 C9.54077307 5.88590407 8.08259402 5.75834456 6.625 5.625 C5.40683594 5.52058594 5.40683594 5.52058594 4.1640625 5.4140625 C2 5 2 5 0 3 C0 2.01 0 1.02 0 0 Z " fill="#13AAF1" transform="translate(167,269)"/>
<path d="M0 0 C0.33 0 0.66 0 1 0 C1 4.62 1 9.24 1 14 C-1.64 14 -4.28 14 -7 14 C-9.03684712 9.92630576 -9.0257259 7.41062136 -8 3 C-7.67 3 -7.34 3 -7 3 C-6.67 6.3 -6.34 9.6 -6 13 C-4.02 13 -2.04 13 0 13 C0 8.71 0 4.42 0 0 Z " fill="#85CFD9" transform="translate(154,234)"/>
<path d="M0 0 C0 0.99 0 1.98 0 3 C-4.95 3 -9.9 3 -15 3 C-14.67 2.34 -14.34 1.68 -14 1 C-9.30643695 0.06128739 -4.77567869 -0.09746283 0 0 Z " fill="#0EC4F8" transform="translate(223,228)"/>
<path d="M0 0 C2.875 -0.125 2.875 -0.125 6 0 C6.66 0.66 7.32 1.32 8 2 C10.58064129 2.14497985 13.04943884 2.18677545 15.625 2.125 C16.33140625 2.11597656 17.0378125 2.10695312 17.765625 2.09765625 C19.51056098 2.07407603 21.25532295 2.03820461 23 2 C23 4.64 23 7.28 23 10 C22.67 10 22.34 10 22 10 C21.67 8.35 21.34 6.7 21 5 C20.01257813 4.95101562 19.02515625 4.90203125 18.0078125 4.8515625 C16.72648437 4.77679688 15.44515625 4.70203125 14.125 4.625 C12.84882813 4.55539063 11.57265625 4.48578125 10.2578125 4.4140625 C7 4 7 4 5 2 C2.42938689 1.35232207 2.42938689 1.35232207 0 1 C0 0.67 0 0.34 0 0 Z " fill="#47A4E7" transform="translate(123,224)"/>
<path d="M0 0 C2.125 0.9375 2.125 0.9375 4 2 C3.67 3.65 3.34 5.3 3 7 C1.35 6.67 -0.3 6.34 -2 6 C-2 4.35 -2 2.7 -2 1 C-1.34 0.67 -0.68 0.34 0 0 Z " fill="#2BD7EB" transform="translate(272,182)"/>
<path d="M0 0 C1.65 0 3.3 0 5 0 C5 2.64 5 5.28 5 8 C3.68 7.67 2.36 7.34 1 7 C0.67 4.69 0.34 2.38 0 0 Z " fill="#F8E1B6" transform="translate(148,238)"/>
<path d="M0 0 C1.21236328 0.01353516 1.21236328 0.01353516 2.44921875 0.02734375 C3.37154297 0.04474609 3.37154297 0.04474609 4.3125 0.0625 C4.6425 1.0525 4.9725 2.0425 5.3125 3.0625 C1.0225 3.0625 -3.2675 3.0625 -7.6875 3.0625 C-7.6875 2.4025 -7.6875 1.7425 -7.6875 1.0625 C-4.80538698 0.10179566 -2.98899956 -0.04331883 0 0 Z " fill="#08D0F8" transform="translate(238.6875,181.9375)"/>
<path d="M0 0 C0.66 0 1.32 0 2 0 C2 0.66 2 1.32 2 2 C3.98 2.66 5.96 3.32 8 4 C8 4.99 8 5.98 8 7 C5.03 6.505 5.03 6.505 2 6 C2 5.34 2 4.68 2 4 C1.01 3.67 0.02 3.34 -1 3 C-0.67 2.01 -0.34 1.02 0 0 Z " fill="#06EEF8" transform="translate(286,213)"/>
<path d="M0 0 C0.66666667 2.66666667 1.33333333 5.33333333 2 8 C2.99 8 3.98 8 5 8 C5 8.66 5 9.32 5 10 C5.66 10.33 6.32 10.66 7 11 C0.125 10.125 0.125 10.125 -1 9 C-1.1328125 7.1875 -1.1328125 7.1875 -1.125 5 C-1.12757812 4.278125 -1.13015625 3.55625 -1.1328125 2.8125 C-1 1 -1 1 0 0 Z " fill="#2C8CE5" transform="translate(121,225)"/>
<path d="M0 0 C4.95 0 9.9 0 15 0 C15 0.33 15 0.66 15 1 C13.02 1 11.04 1 9 1 C9.061875 2.423125 9.061875 2.423125 9.125 3.875 C9 7 9 7 7 9 C6.67 6.69 6.34 4.38 6 2 C3.03 1.505 3.03 1.505 0 1 C0 0.67 0 0.34 0 0 Z " fill="#202526" transform="translate(257,279)"/>
<path d="M0 0 C0.66 0 1.32 0 2 0 C2 0.99 2 1.98 2 3 C2.66 3 3.32 3 4 3 C4.66 4.65 5.32 6.3 6 8 C4.02 8 2.04 8 0 8 C0 5.36 0 2.72 0 0 Z " fill="#169CF3" transform="translate(139,258)"/>
<path d="M0 0 C0.66 0 1.32 0 2 0 C2.13277344 1.16917969 2.26554688 2.33835938 2.40234375 3.54296875 C2.58062013 5.09115839 2.75901161 6.63933478 2.9375 8.1875 C3.02451172 8.95642578 3.11152344 9.72535156 3.20117188 10.51757812 C3.64964421 14.38772828 4.1529001 18.19186624 5 22 C4.34 22 3.68 22 3 22 C2.86722656 21.30132812 2.73445312 20.60265625 2.59765625 19.8828125 C2.42105469 18.97273438 2.24445313 18.06265625 2.0625 17.125 C1.88847656 16.22007812 1.71445313 15.31515625 1.53515625 14.3828125 C1.10036299 12.00043683 1.10036299 12.00043683 0 10 C-0.06996014 8.29297265 -0.08440154 6.58331997 -0.0625 4.875 C-0.05347656 3.96492187 -0.04445312 3.05484375 -0.03515625 2.1171875 C-0.02355469 1.41851562 -0.01195312 0.71984375 0 0 Z " fill="#C0D7D0" transform="translate(145,225)"/>
<path d="M0 0 C1.98 0 3.96 0 6 0 C5.34 0.66 4.68 1.32 4 2 C5.32 2.66 6.64 3.32 8 4 C8 4.33 8 4.66 8 5 C5.36 5.66 2.72 6.32 0 7 C0 4.69 0 2.38 0 0 Z " fill="#2393EC" transform="translate(128,228)"/>
<path d="M0 0 C2 0.25 2 0.25 4 1 C4.33 1.99 4.66 2.98 5 4 C2.36 4.99 -0.28 5.98 -3 7 C-1.125 1.125 -1.125 1.125 0 0 Z " fill="#1A1F1E" transform="translate(247,279)"/>
<path d="M0 0 C1.98 0.99 1.98 0.99 4 2 C3.67 3.98 3.34 5.96 3 8 C2.34 8 1.68 8 1 8 C0.67 8.99 0.34 9.98 0 11 C0 7.37 0 3.74 0 0 Z " fill="#0C0A0C" transform="translate(195,283)"/>
<path d="M0 0 C2.475 0.495 2.475 0.495 5 1 C4.814375 1.78375 4.62875 2.5675 4.4375 3.375 C3.74037734 5.97089775 3.74037734 5.97089775 5 8 C3.35 7.67 1.7 7.34 0 7 C0 4.69 0 2.38 0 0 Z " fill="#FAECCD" transform="translate(147,212)"/>
<path d="M0 0 C1.65 0.33 3.3 0.66 5 1 C4.67 2.65 4.34 4.3 4 6 C2.0625 5.6875 2.0625 5.6875 0 5 C-0.33 4.01 -0.66 3.02 -1 2 C-0.67 1.34 -0.34 0.68 0 0 Z " fill="#E49FC7" transform="translate(133,209)"/>
<path d="M0 0 C1.65 0 3.3 0 5 0 C5.33 0.66 5.66 1.32 6 2 C5.34 2 4.68 2 4 2 C3.34 3.32 2.68 4.64 2 6 C1.01 5.67 0.02 5.34 -1 5 C-0.67 3.35 -0.34 1.7 0 0 Z " fill="#161415" transform="translate(175,290)"/>
<path d="M0 0 C1.32 0 2.64 0 4 0 C3.67 1.98 3.34 3.96 3 6 C1.02 5.34 -0.96 4.68 -3 4 C-1.75 2 -1.75 2 0 0 Z " fill="#1D2322" transform="translate(236,279)"/>
<path d="M0 0 C5.59282842 1.36410449 8.91193811 4.15383526 13 8 C8.75354935 8 6.61475228 6.18249194 3 4 C3 3.34 3 2.68 3 2 C2.01 2 1.02 2 0 2 C0 1.34 0 0.68 0 0 Z " fill="#31DDE5" transform="translate(285,211)"/>
<path d="M0 0 C2.64 0 5.28 0 8 0 C8.66 1.32 9.32 2.64 10 4 C10.99 4 11.98 4 13 4 C13 4.66 13 5.32 13 6 C12.34 5.731875 11.68 5.46375 11 5.1875 C7.35060933 3.74294953 3.67754567 2.37128822 0 1 C0 0.67 0 0.34 0 0 Z " fill="#29D4EB" transform="translate(246,187)"/>
<path d="M0 0 C2.94289954 2.94289954 2.97327103 5.11473658 3.09765625 9.234375 C3.08605469 10.39453125 3.07445312 11.5546875 3.0625 12.75 C3.05347656 13.92046875 3.04445313 15.0909375 3.03515625 16.296875 C3.02355469 17.18890625 3.01195312 18.0809375 3 19 C2.67 19 2.34 19 2 19 C1.67 14.05 1.34 9.1 1 4 C0.34 4 -0.32 4 -1 4 C-0.67 2.68 -0.34 1.36 0 0 Z " fill="#36E2E1" transform="translate(304,230)"/>
<path d="M0 0 C-5.52967941 0.71033431 -10.49983036 1.30267176 -16 0 C-16 -0.33 -16 -0.66 -16 -1 C-10.49379367 -2.37655158 -4.86504849 -3.24336566 0 0 Z " fill="#0FD1F4" transform="translate(213,218)"/>
<path d="M0 0 C0.99 1.32 1.98 2.64 3 4 C2.67 4.66 2.34 5.32 2 6 C0 6 -2 6 -4 6 C-4.33 4.68 -4.66 3.36 -5 2 C-2.525 2.495 -2.525 2.495 0 3 C0 2.01 0 1.02 0 0 Z " fill="#110F0F" transform="translate(185,283)"/>
<path d="M0 0 C0.66 0 1.32 0 2 0 C2 3.96 2 7.92 2 12 C-1 9 -1 9 -1.07421875 6.73828125 C-0.94660156 5.93777344 -0.81898438 5.13726562 -0.6875 4.3125 C-0.56761719 3.50425781 -0.44773438 2.69601563 -0.32421875 1.86328125 C-0.21722656 1.24839844 -0.11023438 0.63351563 0 0 Z " fill="#26C0F2" transform="translate(154,249)"/>
<path d="M0 0 C1.134375 0.020625 2.26875 0.04125 3.4375 0.0625 C1.4375 2.0625 1.4375 2.0625 -1.1875 2.1875 C-1.97125 2.14625 -2.755 2.105 -3.5625 2.0625 C-2.5725 3.3825 -1.5825 4.7025 -0.5625 6.0625 C-2.2125 5.7325 -3.8625 5.4025 -5.5625 5.0625 C-4.43693182 0.07784091 -4.43693182 0.07784091 0 0 Z " fill="#36CEE5" transform="translate(261.5625,236.9375)"/>
<path d="M0 0 C2.31 0 4.62 0 7 0 C7 0.99 7 1.98 7 3 C4.69 3.66 2.38 4.32 0 5 C0 3.35 0 1.7 0 0 Z " fill="#21CEEC" transform="translate(157,231)"/>
<path d="M0 0 C1.32 0.33 2.64 0.66 4 1 C4 1.33 4 1.66 4 2 C7.3 2.33 10.6 2.66 14 3 C14 3.33 14 3.66 14 4 C9.38 4 4.76 4 0 4 C0 2.68 0 1.36 0 0 Z " fill="#F1E4BB" transform="translate(152,224)"/>
<path d="M0 0 C-0.66 1.32 -1.32 2.64 -2 4 C-3.65 3.67 -5.3 3.34 -7 3 C-6.67 2.01 -6.34 1.02 -6 0 C-3.50907189 -1.24546405 -2.58919267 -0.7767578 0 0 Z " fill="#1A1819" transform="translate(284,286)"/>
<path d="M0 0 C0.99 0.33 1.98 0.66 3 1 C2.34 5.29 1.68 9.58 1 14 C0.34 13.67 -0.32 13.34 -1 13 C-0.67 8.71 -0.34 4.42 0 0 Z " fill="#C6CACF" transform="translate(193,210)"/>
<path d="M0 0 C8.57142857 0.71428571 8.57142857 0.71428571 12 4 C10.56138706 3.91253716 9.12402492 3.80434652 7.6875 3.6875 C6.88699219 3.62949219 6.08648437 3.57148438 5.26171875 3.51171875 C2.63727666 2.91793306 1.69179328 2.04219706 0 0 Z " fill="#2BCDE6" transform="translate(244,181)"/>
<path d="M0 0 C1.98 0 3.96 0 6 0 C6 0.99 6 1.98 6 3 C4.02 3.33 2.04 3.66 0 4 C0 2.68 0 1.36 0 0 Z " fill="#07D8F6" transform="translate(247,259)"/>
<path d="M0 0 C-1.50663783 3.01327566 -4.03166411 3.61056618 -7 5 C-7 3.68 -7 2.36 -7 1 C-3.375 -1.125 -3.375 -1.125 0 0 Z " fill="#21DFF0" transform="translate(287,191)"/>
<path d="M0 0 C1.32 0 2.64 0 4 0 C3.34 1.32 2.68 2.64 2 4 C-0.31 4 -2.62 4 -5 4 C-4.67 3.01 -4.34 2.02 -4 1 C-2.68 1.66 -1.36 2.32 0 3 C0 2.01 0 1.02 0 0 Z " fill="#21A9D2" transform="translate(209,271)"/>
<path d="M0 0 C0.99 0 1.98 0 3 0 C3.3367697 4.93928888 3.16130459 5.78492722 0 10 C0 6.7 0 3.4 0 0 Z " fill="#14BBE1" transform="translate(156,251)"/>
<path d="M0 0 C0.33 0.99 0.66 1.98 1 3 C1.66 3.33 2.32 3.66 3 4 C0.36 4 -2.28 4 -5 4 C-5 3.01 -5 2.02 -5 1 C-3.35 0.67 -1.7 0.34 0 0 Z " fill="#269DED" transform="translate(151,250)"/>
<path d="M0 0 C0.33 0 0.66 0 1 0 C1 1.65 1 3.3 1 5 C2.32 5 3.64 5 5 5 C4.67 5.99 4.34 6.98 4 8 C2.68 7.67 1.36 7.34 0 7 C-0.93423645 3.98968256 -1.04449911 3.13349732 0 0 Z " fill="#36AFDC" transform="translate(200,204)"/>
<path d="M0 0 C2.475 0.495 2.475 0.495 5 1 C5.33 2.32 5.66 3.64 6 5 C4.125 4.75 4.125 4.75 2 4 C0.75 1.9375 0.75 1.9375 0 0 Z " fill="#538E9B" transform="translate(203,269)"/>
<path d="M0 0 C0.433125 0.639375 0.86625 1.27875 1.3125 1.9375 C2.91239177 4.26746003 2.91239177 4.26746003 6 5 C5.67 5.66 5.34 6.32 5 7 C2.69 7 0.38 7 -2 7 C-1.34 4.69 -0.68 2.38 0 0 Z " fill="#2CE4F0" transform="translate(275,204)"/>
<path d="M0 0 C1.98 0 3.96 0 6 0 C6 1.32 6 2.64 6 4 C4.02 3.34 2.04 2.68 0 2 C0 1.34 0 0.68 0 0 Z " fill="#7CB8C5" transform="translate(204,267)"/>
<path d="M0 0 C0.66 0.33 1.32 0.66 2 1 C1.34 3.97 0.68 6.94 0 10 C-2 8 -2 8 -2.25 5 C-2 2 -2 2 0 0 Z " fill="#3693DB" transform="translate(134,235)"/>
<path d="M0 0 C-0.33 0.99 -0.66 1.98 -1 3 C-2.84765625 3.73046875 -2.84765625 3.73046875 -5.0625 4.1875 C-5.79597656 4.34605469 -6.52945313 4.50460938 -7.28515625 4.66796875 C-8.13400391 4.83232422 -8.13400391 4.83232422 -9 5 C-4.32258065 0 -4.32258065 0 0 0 Z " fill="#26C3EA" transform="translate(224,183)"/>
<path d="M0 0 C0.66 0.33 1.32 0.66 2 1 C2 2.32 2 3.64 2 5 C0.68 5.33 -0.64 5.66 -2 6 C-1.125 1.125 -1.125 1.125 0 0 Z " fill="#131212" transform="translate(188,290)"/>
<path d="M0 0 C1.32 0 2.64 0 4 0 C4.33 2.31 4.66 4.62 5 7 C4.34 7 3.68 7 3 7 C2.814375 5.824375 2.814375 5.824375 2.625 4.625 C2.20882007 1.85942178 2.20882007 1.85942178 0 0 Z " fill="#212325" transform="translate(180,279)"/>
<path d="M0 0 C1.98 0 3.96 0 6 0 C6.33 1.32 6.66 2.64 7 4 C5.35 4.33 3.7 4.66 2 5 C2.66 4.67 3.32 4.34 4 4 C4 3.01 4 2.02 4 1 C2.68 0.67 1.36 0.34 0 0 Z " fill="#2ACCE7" transform="translate(249,258)"/>
<path d="M0 0 C0.66 0 1.32 0 2 0 C1.67 1.32 1.34 2.64 1 4 C0.34 3.67 -0.32 3.34 -1 3 C-1 4.98 -1 6.96 -1 9 C-2.1875 7.3125 -2.1875 7.3125 -3 5 C-1.75 2.25 -1.75 2.25 0 0 Z " fill="#3094DD" transform="translate(140,255)"/>
<path d="M0 0 C1.32 0 2.64 0 4 0 C4 1.32 4 2.64 4 4 C2.35 4 0.7 4 -1 4 C-0.67 2.68 -0.34 1.36 0 0 Z " fill="#1097FD" transform="translate(134,249)"/>
<path d="M0 0 C2 1 4 2 6 3 C6 3.66 6 4.32 6 5 C3.03 4.67 0.06 4.34 -3 4 C-2.34 3.67 -1.68 3.34 -1 3 C-0.67 2.01 -0.34 1.02 0 0 Z " fill="#1EA7F5" transform="translate(139,229)"/>
<path d="M0 0 C2.05078125 0.03255208 4.1015625 0.06510417 6.15234375 0.09765625 C6.15234375 0.42765625 6.15234375 0.75765625 6.15234375 1.09765625 C4.76015625 1.25234375 4.76015625 1.25234375 3.33984375 1.41015625 C0.11980017 2.10467545 -0.8734549 2.57506564 -2.84765625 5.09765625 C-2.84765625 0.15051037 -2.84765625 0.15051037 0 0 Z " fill="#F2BF8E" transform="translate(184.84765625,207.90234375)"/>
<path d="M0 0 C0.33 0.99 0.66 1.98 1 3 C1.66 3 2.32 3 3 3 C3 3.99 3 4.98 3 6 C4.65 6 6.3 6 8 6 C8 6.33 8 6.66 8 7 C5.69 7 3.38 7 1 7 C0.67 4.69 0.34 2.38 0 0 Z " fill="#2DDDEC" transform="translate(278,171)"/>
<path d="M0 0 C1.32 0 2.64 0 4 0 C4.33 1.32 4.66 2.64 5 4 C3.35 4.33 1.7 4.66 0 5 C0.66 4.67 1.32 4.34 2 4 C1.34 2.68 0.68 1.36 0 0 Z " fill="#2FBDDF" transform="translate(221,217)"/>
<path d="M0 0 C1.32 0 2.64 0 4 0 C3.67 1.65 3.34 3.3 3 5 C2.34 5 1.68 5 1 5 C0.34 3.68 -0.32 2.36 -1 1 C-0.67 0.67 -0.34 0.34 0 0 Z " fill="#F4B890" transform="translate(139,202)"/>
<path d="M0 0 C2.475 0.99 2.475 0.99 5 2 C5 2.99 5 3.98 5 5 C3.35 5 1.7 5 0 5 C0 3.33333333 0 1.66666667 0 0 Z " fill="#1BE6EC" transform="translate(288,191)"/>
<path d="M0 0 C1.65 0 3.3 0 5 0 C5 1.32 5 2.64 5 4 C3.0625 3.6875 3.0625 3.6875 1 3 C0.67 2.01 0.34 1.02 0 0 Z " fill="#0EC3F8" transform="translate(207,193)"/>
<path d="M0 0 C5.875 2.75 5.875 2.75 7 5 C4.69 5 2.38 5 0 5 C0 3.35 0 1.7 0 0 Z " fill="#25D4EE" transform="translate(257,185)"/>
<path d="M0 0 C0.66 0.66 1.32 1.32 2 2 C1.01 2.495 1.01 2.495 0 3 C0 2.01 0 1.02 0 0 Z " fill="#D3C5C2" transform="translate(137,198)"/>
</svg>
