<?xml version="1.0" encoding="UTF-8"?>
<svg version="1.1" xmlns="http://www.w3.org/2000/svg" width="500" height="500">
<path d="M0 0 C0.9796875 -0.00257813 1.959375 -0.00515625 2.96875 -0.0078125 C5.5 0.125 5.5 0.125 7.5 1.125 C7.5 4.095 7.5 7.065 7.5 10.125 C17.4 10.125 27.3 10.125 37.5 10.125 C37.995 12.105 37.995 12.105 38.5 14.125 C36.01942372 16.60557628 35.13807536 16.41519005 31.7109375 16.5390625 C30.29941406 16.59707031 30.29941406 16.59707031 28.859375 16.65625 C27.87453125 16.6871875 26.8896875 16.718125 25.875 16.75 C24.88242188 16.78867188 23.88984375 16.82734375 22.8671875 16.8671875 C20.41164615 16.9616314 17.9561159 17.04719875 15.5 17.125 C15.995 18.115 15.995 18.115 16.5 19.125 C23.43 19.455 30.36 19.785 37.5 20.125 C38.5 23.125 38.5 23.125 37.5 26.125 C27.105 26.62 27.105 26.62 16.5 27.125 C16.5 27.785 16.5 28.445 16.5 29.125 C17.09912704 29.13530746 17.69825409 29.14561493 18.3155365 29.15623474 C24.52810088 29.26406965 30.74051341 29.37868544 36.95288086 29.49731445 C39.27413773 29.54073739 41.59542808 29.58240684 43.91674805 29.62231445 C47.24538278 29.6798394 50.57384785 29.74358425 53.90234375 29.80859375 C54.94712387 29.82530624 55.99190399 29.84201874 57.06834412 29.85923767 C58.02926468 29.87918289 58.99018524 29.89912811 59.98022461 29.91967773 C60.83071884 29.93522202 61.68121307 29.9507663 62.55747986 29.96678162 C64.5 30.125 64.5 30.125 65.5 31.125 C65.5 32.775 65.5 34.425 65.5 36.125 C49.33 36.455 33.16 36.785 16.5 37.125 C16.17 38.115 15.84 39.105 15.5 40.125 C16.52939697 40.10928955 16.52939697 40.10928955 17.57958984 40.09326172 C20.67802289 40.05178126 23.77639761 40.02569931 26.875 40 C27.95523438 39.98324219 29.03546875 39.96648437 30.1484375 39.94921875 C31.1796875 39.94277344 32.2109375 39.93632812 33.2734375 39.9296875 C34.70308838 39.91397705 34.70308838 39.91397705 36.16162109 39.89794922 C38.5 40.125 38.5 40.125 40.5 42.125 C39.96428571 45.66071429 39.96428571 45.66071429 38.5 47.125 C36.79227642 47.21213831 35.08101351 47.23200007 33.37109375 47.22265625 C32.33662109 47.21943359 31.30214844 47.21621094 30.23632812 47.21289062 C29.14771484 47.20451172 28.05910156 47.19613281 26.9375 47.1875 C25.2987793 47.18073242 25.2987793 47.18073242 23.62695312 47.17382812 C20.91791505 47.16199826 18.20898401 47.14551543 15.5 47.125 C15.5 48.445 15.5 49.765 15.5 51.125 C28.04 51.125 40.58 51.125 53.5 51.125 C53.83 52.115 54.16 53.105 54.5 54.125 C53.84 55.115 53.18 56.105 52.5 57.125 C49.53393555 57.55737305 49.53393555 57.55737305 45.63671875 57.63671875 C44.91718521 57.65462463 44.19765167 57.67253052 43.45631409 57.690979 C41.03343782 57.74641603 38.61077907 57.7795632 36.1875 57.8125 C34.48208033 57.84695355 32.77667672 57.8822099 31.07128906 57.91821289 C20.45502521 58.12035665 9.84052813 58.13854486 -0.77734375 58.109375 C-2.57930962 58.10518303 -2.57930962 58.10518303 -4.41767883 58.10090637 C-10.40021705 58.08468576 -16.38217676 58.05398539 -22.36450195 58.00073242 C-24.57112534 57.98859374 -26.77774966 57.9766228 -28.984375 57.96484375 C-30.00454208 57.95132874 -31.02470917 57.93781372 -32.07579041 57.92388916 C-33.01209793 57.9205658 -33.94840546 57.91724243 -34.91308594 57.91381836 C-35.73033142 57.90636093 -36.5475769 57.8989035 -37.3895874 57.89122009 C-39.80282011 57.99486134 -39.80282011 57.99486134 -42.5 60.125 C-45.6178144 59.96910928 -47.07443326 59.4956549 -49.4375 57.4375 C-50.5 55.125 -50.5 55.125 -49.75 51.9375 C-48.5 49.125 -48.5 49.125 -47.5 48.125 C-44.0625 47.9375 -44.0625 47.9375 -40.5 48.125 C-39.84 48.785 -39.18 49.445 -38.5 50.125 C-36.43125966 50.7675235 -36.43125966 50.7675235 -34.5 51.125 C-34.5 50.135 -34.5 49.145 -34.5 48.125 C-38.89656173 48.10034496 -43.2930872 48.08216158 -47.68969727 48.07006836 C-49.18644918 48.06502879 -50.68319616 48.05819713 -52.17993164 48.04956055 C-54.32699807 48.03747841 -56.47399962 48.03176809 -58.62109375 48.02734375 C-59.9145874 48.02210693 -61.20808105 48.01687012 -62.54077148 48.01147461 C-65.38652404 47.78503068 -65.38652404 47.78503068 -66.5 49.125 C-69.9375 49.3125 -69.9375 49.3125 -73.5 49.125 C-75.5 47.125 -75.5 47.125 -75.875 43.6875 C-75.5 40.125 -75.5 40.125 -73.8125 38.125 C-70.90619157 36.86821797 -69.48152232 37.18346664 -66.5 38.125 C-65.84 38.455 -65.18 38.785 -64.5 39.125 C-62.87566762 39.17157584 -61.24956329 39.16267103 -59.625 39.125 C-53.53807026 39.06050273 -47.55422014 39.53331356 -41.5 40.125 C-41.83 39.135 -42.16 38.145 -42.5 37.125 C-43.03625 37.455 -43.5725 37.785 -44.125 38.125 C-47.12934544 39.38998755 -49.26767442 39.46886442 -52.5 39.125 C-54.375 38 -54.375 38 -55.5 36.125 C-55.6875 32.9375 -55.6875 32.9375 -55.5 30.125 C-54.18 29.465 -52.86 28.805 -51.5 28.125 C-51.5 27.465 -51.5 26.805 -51.5 26.125 C-52.345625 26.434375 -53.19125 26.74375 -54.0625 27.0625 C-57.59256913 28.15361228 -60.81510587 28.84689478 -64.5 29.125 C-67.5 27.125 -67.5 27.125 -67.8984375 25.25 C-67.89070313 24.54875 -67.88296875 23.8475 -67.875 23.125 C-67.88273437 22.42375 -67.89046875 21.7225 -67.8984375 21 C-67.5 19.125 -67.5 19.125 -64.5 17.125 C-61.4375 16.875 -61.4375 16.875 -58.5 17.125 C-57.84 17.785 -57.18 18.445 -56.5 19.125 C-54.13490639 19.42559943 -51.75558119 19.62015012 -49.375 19.75 C-48.09367187 19.82476562 -46.81234375 19.89953125 -45.4921875 19.9765625 C-44.50476563 20.02554688 -43.51734375 20.07453125 -42.5 20.125 C-42.52320313 19.54492188 -42.54640625 18.96484375 -42.5703125 18.3671875 C-42.58835938 17.58601563 -42.60640625 16.80484375 -42.625 16 C-42.64820313 15.23429688 -42.67140625 14.46859375 -42.6953125 13.6796875 C-42.46014262 10.60366541 -41.51009105 8.02944865 -40.5 5.125 C-36.40658501 5.10030425 -32.31319879 5.08214207 -28.21972656 5.07006836 C-26.82681523 5.0650357 -25.4339092 5.05820902 -24.04101562 5.04956055 C-22.04038754 5.03744848 -20.03972112 5.03229588 -18.0390625 5.02734375 C-16.83459473 5.02210693 -15.63012695 5.01687012 -14.38916016 5.01147461 C-11.5 5.125 -11.5 5.125 -9.5 6.125 C-9.21125 5.320625 -8.9225 4.51625 -8.625 3.6875 C-6.74325125 -0.59870548 -4.31609009 -0.01135813 0 0 Z M-47.5 26.125 C-47.5 26.785 -47.5 27.445 -47.5 28.125 C-45.52 29.115 -45.52 29.115 -43.5 30.125 C-43.17 28.805 -42.84 27.485 -42.5 26.125 C-44.15 26.125 -45.8 26.125 -47.5 26.125 Z " fill="#0DB5DB" transform="translate(187.5,206.875)"/>
<path d="M0 0 C5.85675393 5.16022205 9.83318553 11.39392048 11.33203125 19.0546875 C11.94949219 19.12945312 12.56695312 19.20421875 13.203125 19.28125 C22.38992103 20.70751057 29.24205002 24.85493953 35.0546875 32.1328125 C37.33335833 35.56127136 38.86879956 39.22073909 40.33203125 43.0546875 C40.95078125 44.6015625 40.95078125 44.6015625 41.58203125 46.1796875 C43.62750011 54.02065145 41.52564662 60.81959427 38.33203125 68.0546875 C32.972222 76.95604159 25.41963066 83.29052878 15.33203125 86.0546875 C11.72107031 86.46719629 8.14474499 86.46535062 4.51318359 86.44287109 C2.93117912 86.45075653 2.93117912 86.45075653 1.31721497 86.45880127 C-2.14935357 86.47194469 -5.6154585 86.46328425 -9.08203125 86.453125 C-11.50003141 86.45514705 -13.91803098 86.45805958 -16.33602905 86.46182251 C-21.39465156 86.46623795 -26.4531148 86.45983861 -31.51171875 86.44580078 C-37.99266516 86.42869125 -44.47323931 86.43856653 -50.95417213 86.45651817 C-55.94360151 86.46736131 -60.93294269 86.4639075 -65.92237473 86.4561348 C-68.31216857 86.45413522 -70.70197045 86.45658354 -73.09175491 86.46357346 C-76.43068912 86.47119842 -79.76902079 86.45956914 -83.10791016 86.44287109 C-84.09300064 86.44894379 -85.07809113 86.45501648 -86.09303284 86.46127319 C-91.39282334 86.41221215 -95.04967711 85.96725227 -99.66796875 83.0546875 C-99.66796875 81.4046875 -99.66796875 79.7546875 -99.66796875 78.0546875 C-96.89535562 76.98829783 -95.78446527 77.01372602 -92.92529297 78.01904297 C-89.46844938 79.11812336 -86.79097421 79.28443041 -83.17578125 79.25 C-81.97695312 79.24355469 -80.778125 79.23710937 -79.54296875 79.23046875 C-78.30546875 79.21371094 -77.06796875 79.19695312 -75.79296875 79.1796875 C-74.53226563 79.17066406 -73.2715625 79.16164063 -71.97265625 79.15234375 C-68.87089835 79.12884558 -65.76953223 79.09599084 -62.66796875 79.0546875 C-62.33796875 78.3946875 -62.00796875 77.7346875 -61.66796875 77.0546875 C-59.35796875 77.0546875 -57.04796875 77.0546875 -54.66796875 77.0546875 C-54.33796875 78.0446875 -54.00796875 79.0346875 -53.66796875 80.0546875 C-45.23504717 80.01648029 -36.80265142 79.95690302 -28.37009621 79.87078476 C-24.4535834 79.83144262 -20.53729096 79.79918982 -16.62060547 79.78369141 C-12.83369554 79.76843644 -9.04739199 79.73383742 -5.26075363 79.68637848 C-3.82328975 79.67165498 -2.38573926 79.66365172 -0.94820023 79.66280365 C8.85525204 79.65121414 16.70712743 78.55462766 25.14453125 73.3046875 C30.47130771 67.82571743 34.26967194 61.24610007 34.36328125 53.453125 C34.01714639 47.17077735 32.70630462 42.35885103 29.33203125 37.0546875 C28.77515625 36.1678125 28.21828125 35.2809375 27.64453125 34.3671875 C23.12762679 29.85028304 18.15992148 27.08876092 11.76953125 26.6796875 C9.515625 26.2890625 9.515625 26.2890625 7.33203125 25.0546875 C5.41747928 22.05928057 3.8791942 19.07133926 2.34692383 15.87426758 C-1.75125687 7.46497436 -7.87356538 1.811509 -16.79296875 -1.32421875 C-25.3074066 -3.16361497 -34.93131265 -3.32611136 -42.66796875 1.0546875 C-43.78945312 1.67537109 -43.78945312 1.67537109 -44.93359375 2.30859375 C-52.97111145 7.19231726 -57.27159284 13.93830121 -61.66796875 22.0546875 C-62.98796875 21.7246875 -64.30796875 21.3946875 -65.66796875 21.0546875 C-66.62739003 18.48438604 -66.75968068 17.31934191 -65.84765625 14.6875 C-60.08091204 3.60291982 -53.23239363 -3.09914856 -41.41796875 -7.8203125 C-26.4052372 -12.32413197 -12.45881883 -9.14300721 0 0 Z " fill="#0FE7F3" transform="translate(265.66796875,189.9453125)"/>
<path d="M0 0 C0.9796875 -0.00257813 1.959375 -0.00515625 2.96875 -0.0078125 C5.5 0.125 5.5 0.125 7.5 1.125 C7.17 6.405 6.84 11.685 6.5 17.125 C5.18 17.125 3.86 17.125 2.5 17.125 C2.0359375 18.0840625 2.0359375 18.0840625 1.5625 19.0625 C0.5 21.125 0.5 21.125 -0.5 22.125 C-2.79151417 22.21290975 -5.08572524 22.23194038 -7.37890625 22.22265625 C-8.40889992 22.22053383 -8.40889992 22.22053383 -9.45970154 22.21836853 C-11.66067801 22.21275479 -13.86155409 22.20020007 -16.0625 22.1875 C-17.55143083 22.18248676 -19.04036324 22.17792355 -20.52929688 22.17382812 C-24.18626805 22.16363021 -27.84302117 22.14405779 -31.5 22.125 C-31.83 27.735 -32.16 33.345 -32.5 39.125 C-41.5 39.125 -41.5 39.125 -44.5 37.125 C-45.16 37.785 -45.82 38.445 -46.5 39.125 C-49.60347254 39.45515665 -51.65781176 39.63031294 -54.375 38 C-55.9682099 35.34465017 -55.70214032 33.15710482 -55.5 30.125 C-54.18 29.465 -52.86 28.805 -51.5 28.125 C-51.5 27.465 -51.5 26.805 -51.5 26.125 C-52.7684375 26.5890625 -52.7684375 26.5890625 -54.0625 27.0625 C-57.59256913 28.15361228 -60.81510587 28.84689478 -64.5 29.125 C-67.5 27.125 -67.5 27.125 -67.8984375 25.25 C-67.89070313 24.54875 -67.88296875 23.8475 -67.875 23.125 C-67.88273437 22.42375 -67.89046875 21.7225 -67.8984375 21 C-67.5 19.125 -67.5 19.125 -64.5 17.125 C-61.4375 16.875 -61.4375 16.875 -58.5 17.125 C-57.84 17.785 -57.18 18.445 -56.5 19.125 C-54.13490639 19.42559943 -51.75558119 19.62015012 -49.375 19.75 C-48.09367187 19.82476562 -46.81234375 19.89953125 -45.4921875 19.9765625 C-44.50476563 20.02554688 -43.51734375 20.07453125 -42.5 20.125 C-42.52320313 19.54492188 -42.54640625 18.96484375 -42.5703125 18.3671875 C-42.59738281 17.19542969 -42.59738281 17.19542969 -42.625 16 C-42.64820313 15.23429688 -42.67140625 14.46859375 -42.6953125 13.6796875 C-42.46014262 10.60366541 -41.51009105 8.02944865 -40.5 5.125 C-36.40658501 5.10030425 -32.31319879 5.08214207 -28.21972656 5.07006836 C-26.82681523 5.0650357 -25.4339092 5.05820902 -24.04101562 5.04956055 C-22.04038754 5.03744848 -20.03972112 5.03229588 -18.0390625 5.02734375 C-16.83459473 5.02210693 -15.63012695 5.01687012 -14.38916016 5.01147461 C-11.5 5.125 -11.5 5.125 -9.5 6.125 C-9.21125 5.320625 -8.9225 4.51625 -8.625 3.6875 C-6.74325125 -0.59870548 -4.31609009 -0.01135813 0 0 Z M-47.5 26.125 C-47.5 26.785 -47.5 27.445 -47.5 28.125 C-45.52 29.115 -45.52 29.115 -43.5 30.125 C-43.17 28.805 -42.84 27.485 -42.5 26.125 C-44.15 26.125 -45.8 26.125 -47.5 26.125 Z " fill="#F7ECCC" transform="translate(187.5,206.875)"/>
<path d="M0 0 C0.99 0.33 1.98 0.66 3 1 C4.62567079 1.14715199 6.25586857 1.24721867 7.88671875 1.31640625 C8.82451172 1.35830078 9.76230469 1.40019531 10.72851562 1.44335938 C11.70498047 1.48267578 12.68144531 1.52199219 13.6875 1.5625 C15.16959961 1.62727539 15.16959961 1.62727539 16.68164062 1.69335938 C19.12095546 1.79941654 21.56037113 1.90147714 24 2 C25 5 25 5 24 8 C13.605 8.495 13.605 8.495 3 9 C3 9.66 3 10.32 3 11 C3.59912704 11.01030746 4.19825409 11.02061493 4.8155365 11.03123474 C11.02810088 11.13906965 17.24051341 11.25368544 23.45288086 11.37231445 C25.77413773 11.41573739 28.09542808 11.45740684 30.41674805 11.49731445 C33.74538278 11.5548394 37.07384785 11.61858425 40.40234375 11.68359375 C41.44712387 11.70030624 42.49190399 11.71701874 43.56834412 11.73423767 C45.00972496 11.7641555 45.00972496 11.7641555 46.48022461 11.79467773 C47.33071884 11.81022202 48.18121307 11.8257663 49.05747986 11.84178162 C51 12 51 12 52 13 C52 14.65 52 16.3 52 18 C35.83 18.33 19.66 18.66 3 19 C2.67 19.99 2.34 20.98 2 22 C2.68626465 21.98952637 3.3725293 21.97905273 4.07958984 21.96826172 C7.17802289 21.92678126 10.27639761 21.90069931 13.375 21.875 C14.45523438 21.85824219 15.53546875 21.84148437 16.6484375 21.82421875 C17.6796875 21.81777344 18.7109375 21.81132812 19.7734375 21.8046875 C21.20308838 21.78897705 21.20308838 21.78897705 22.66162109 21.77294922 C25 22 25 22 27 24 C26.46428571 27.53571429 26.46428571 27.53571429 25 29 C23.29227642 29.08713831 21.58101351 29.10700007 19.87109375 29.09765625 C18.31938477 29.09282227 18.31938477 29.09282227 16.73632812 29.08789062 C15.64771484 29.07951172 14.55910156 29.07113281 13.4375 29.0625 C11.7987793 29.05573242 11.7987793 29.05573242 10.12695312 29.04882812 C7.41791505 29.03699826 4.70898401 29.02051543 2 29 C2 30.32 2 31.64 2 33 C14.54 33 27.08 33 40 33 C40.33 33.99 40.66 34.98 41 36 C40.34 36.99 39.68 37.98 39 39 C36.0204901 39.26653946 33.2511418 39.34767784 30.2734375 39.29296875 C29.41062164 39.28872391 28.54780579 39.28447906 27.65884399 39.28010559 C24.89724803 39.26328392 22.13637617 39.22562598 19.375 39.1875 C17.50521886 39.17245764 15.6354263 39.15876846 13.765625 39.14648438 C9.17680342 39.11336906 4.58852456 39.06156339 0 39 C-0.8516366 35.30802425 -1.12859379 31.89115556 -1.1328125 28.10546875 C-1.13410156 26.98462891 -1.13539063 25.86378906 -1.13671875 24.70898438 C-1.13285156 23.54689453 -1.12898437 22.38480469 -1.125 21.1875 C-1.12886719 20.03701172 -1.13273438 18.88652344 -1.13671875 17.70117188 C-1.12984672 11.70532991 -0.91858652 5.92707013 0 0 Z " fill="#2EBDE1" transform="translate(201,225)"/>
<path d="M0 0 C1.21558594 0.30679687 2.43117187 0.61359375 3.68359375 0.9296875 C10.11308658 2.44565668 16.492134 2.21581846 23.0625 2.125 C24.93325195 2.11146484 24.93325195 2.11146484 26.84179688 2.09765625 C29.89473504 2.07426209 32.94726306 2.04148174 36 2 C36.33 1.34 36.66 0.68 37 0 C39.31 0 41.62 0 44 0 C44.495 1.485 44.495 1.485 45 3 C53.50178591 2.89228187 62.00348569 2.77960542 70.50512123 2.66066074 C74.45309391 2.60557995 78.40107417 2.55218443 82.34912109 2.50268555 C86.161718 2.45482211 89.97422971 2.40247275 93.78672409 2.34705925 C95.23869062 2.32673486 96.69068043 2.30800604 98.14268875 2.29092598 C100.1819623 2.26666087 102.22107809 2.23663882 104.26025391 2.20532227 C105.41941315 2.18977798 106.57857239 2.1742337 107.77285767 2.15821838 C110.92122503 2.00386213 113.90523232 1.5846478 117 1 C115.06745228 3.0245738 113.36841312 4.42105792 111 6 C113.31 6 115.62 6 118 6 C118 5.34 118 4.68 118 4 C119.98 4 121.96 4 124 4 C117.73876786 9.29796565 111.22632303 9.29425758 103.40820312 9.2746582 C102.35382553 9.27976913 101.29944794 9.28488007 100.21311951 9.29014587 C96.73577158 9.30402018 93.25862228 9.30308692 89.78125 9.30078125 C87.3603915 9.30466889 84.93953369 9.30900371 82.51867676 9.31376648 C77.4481383 9.3212237 72.37766947 9.32094064 67.30712891 9.31567383 C60.810449 9.30987495 54.31405379 9.326823 47.81742096 9.3500185 C42.81942072 9.36475038 37.82148917 9.36562835 32.82347107 9.36250877 C30.42808976 9.36302209 28.03270461 9.36826183 25.63734436 9.37832069 C22.28864012 9.39065905 18.94049223 9.38390894 15.59179688 9.37231445 C14.6035643 9.37995819 13.61533173 9.38760193 12.59715271 9.39547729 C7.28745927 9.35485 3.62594755 8.92183064 -1 6 C-1.042721 4.33388095 -1.04063832 2.66617115 -1 1 C-0.67 0.67 -0.34 0.34 0 0 Z " fill="#25CEE4" transform="translate(167,267)"/>
<path d="M0 0 C4.07435276 0.03950204 5.61806082 0.62565288 8.5546875 3.50390625 C9.32039062 4.51324219 10.08609375 5.52257812 10.875 6.5625 C11.65617188 7.57441406 12.43734375 8.58632813 13.2421875 9.62890625 C13.82226562 10.41136719 14.40234375 11.19382812 15 12 C15.50789063 11.21753906 16.01578125 10.43507813 16.5390625 9.62890625 C17.22742188 8.61699219 17.91578125 7.60507812 18.625 6.5625 C19.63433594 5.04849609 19.63433594 5.04849609 20.6640625 3.50390625 C23 1 23 1 26.1484375 0.02734375 C27.08945313 0.01832031 28.03046875 0.00929688 29 0 C31 2 31 2 31.24291992 4.68969727 C31.23881104 5.80401123 31.23470215 6.9183252 31.23046875 8.06640625 C31.22853516 9.27361328 31.22660156 10.48082031 31.22460938 11.72460938 C31.20624023 13.62436523 31.20624023 13.62436523 31.1875 15.5625 C31.18685547 16.83287109 31.18621094 18.10324219 31.18554688 19.41210938 C31.14010053 28.85989947 31.14010053 28.85989947 30 30 C27 30.125 27 30.125 24 30 C22.12175109 28.12175109 22.60897603 24.96064724 22.4375 22.4375 C22.31181641 20.64119141 22.31181641 20.64119141 22.18359375 18.80859375 C22.12300781 17.88175781 22.06242187 16.95492188 22 16 C21.443125 16.969375 20.88625 17.93875 20.3125 18.9375 C18 22 18 22 15.5 23.125 C13 23 13 23 10.8125 21.25 C9 19 9 19 7 16 C6.67 20.62 6.34 25.24 6 30 C3.69 30 1.38 30 -1 30 C-3.17425477 25.65149046 -2.18496474 19.77642634 -2.1875 15 C-2.19974609 13.78570312 -2.21199219 12.57140625 -2.22460938 11.3203125 C-2.22654297 10.16273438 -2.22847656 9.00515625 -2.23046875 7.8125 C-2.23457764 6.74644531 -2.23868652 5.68039062 -2.24291992 4.58203125 C-2 2 -2 2 0 0 Z " fill="#FBFBFB" transform="translate(223,283)"/>
<path d="M0 0 C4.63793743 2.10894891 7.45834989 4.56449038 9.5703125 9.31640625 C10.21600989 13.94019329 10.19359745 17.88285087 8.3203125 22.19140625 C3.54328547 27.99208193 3.54328547 27.99208193 -0.4296875 29.31640625 C-2.98303185 29.41222712 -5.50236766 29.45579903 -8.0546875 29.44140625 C-8.74820313 29.44527344 -9.44171875 29.44914062 -10.15625 29.453125 C-15.30302104 29.44307271 -15.30302104 29.44307271 -16.4296875 28.31640625 C-16.51735862 26.24378549 -16.53664623 24.16820331 -16.52734375 22.09375 C-16.52412109 20.83369141 -16.52089844 19.57363281 -16.51757812 18.27539062 C-16.50922153 16.93489516 -16.50075657 15.59440037 -16.4921875 14.25390625 C-16.4871741 12.90950683 -16.48261092 11.56510565 -16.47851562 10.22070312 C-16.46668238 6.91922684 -16.45019721 3.61783822 -16.4296875 0.31640625 C-11.73554716 -2.03066392 -4.94067 -1.39005989 0 0 Z M-8.4296875 7.31640625 C-8.4296875 11.93640625 -8.4296875 16.55640625 -8.4296875 21.31640625 C-2.08435053 21.87737763 -2.08435053 21.87737763 0.5078125 20.25390625 C2.23021042 17.11306299 2.06179491 14.81821839 1.5703125 11.31640625 C-0.4981762 8.74491235 -0.4981762 8.74491235 -3.4296875 7.31640625 C-5.0796875 7.31640625 -6.7296875 7.31640625 -8.4296875 7.31640625 Z " fill="#FBFBFB" transform="translate(119.4296875,283.68359375)"/>
<path d="M0 0 C0.928125 -0.01224609 1.85625 -0.02449219 2.8125 -0.03710938 C3.699375 -0.03904297 4.58625 -0.04097656 5.5 -0.04296875 C6.3146875 -0.04707764 7.129375 -0.05118652 7.96875 -0.05541992 C10 0.1875 10 0.1875 12 2.1875 C11.67 4.1675 11.34 6.1475 11 8.1875 C6.05 8.1875 1.1 8.1875 -4 8.1875 C-4 9.1775 -4 10.1675 -4 11.1875 C-3.37351562 11.17589844 -2.74703125 11.16429687 -2.1015625 11.15234375 C-1.28429687 11.14332031 -0.46703125 11.13429688 0.375 11.125 C1.18710937 11.11339844 1.99921875 11.10179687 2.8359375 11.08984375 C5 11.1875 5 11.1875 7 12.1875 C7.04254356 14.18704746 7.04080783 16.18791636 7 18.1875 C6 19.1875 6 19.1875 3.71484375 19.28515625 C2.34005859 19.26775391 2.34005859 19.26775391 0.9375 19.25 C0.01839844 19.24097656 -0.90070313 19.23195313 -1.84765625 19.22265625 C-2.55792969 19.21105469 -3.26820313 19.19945312 -4 19.1875 C-4 20.1775 -4 21.1675 -4 22.1875 C-2.64455078 22.13529297 -2.64455078 22.13529297 -1.26171875 22.08203125 C-0.08222656 22.05496094 1.09726562 22.02789062 2.3125 22 C3.48425781 21.96519531 4.65601563 21.93039062 5.86328125 21.89453125 C9 22.1875 9 22.1875 10.98046875 23.38671875 C12.40786781 25.90791019 11.64692544 27.44766289 11 30.1875 C7.35418313 30.21637512 3.70839537 30.23425585 0.0625 30.25 C-1.49887695 30.26256836 -1.49887695 30.26256836 -3.09179688 30.27539062 C-4.08115234 30.27861328 -5.07050781 30.28183594 -6.08984375 30.28515625 C-7.46450806 30.29301147 -7.46450806 30.29301147 -8.86694336 30.30102539 C-11 30.1875 -11 30.1875 -12 29.1875 C-12.08767112 27.11487924 -12.10695873 25.03929706 -12.09765625 22.96484375 C-12.09443359 21.70478516 -12.09121094 20.44472656 -12.08789062 19.14648438 C-12.07953403 17.80598891 -12.07106907 16.46549412 -12.0625 15.125 C-12.0574866 13.78060058 -12.05292342 12.4361994 -12.04882812 11.09179688 C-12.03699488 7.79032059 -12.02050971 4.48893197 -12 1.1875 C-8.34657606 -0.63921197 -4.02160841 0.00279278 0 0 Z " fill="#FBFBFB" transform="translate(328,282.8125)"/>
<path d="M0 0 C1.50433594 0.01353516 1.50433594 0.01353516 3.0390625 0.02734375 C3.80992187 0.03894531 4.58078125 0.05054688 5.375 0.0625 C5.87 1.0525 5.87 1.0525 6.375 2.0625 C5.715 2.0625 5.055 2.0625 4.375 2.0625 C4.38660156 2.82175781 4.39820313 3.58101562 4.41015625 4.36328125 C4.41917969 5.35714844 4.42820313 6.35101563 4.4375 7.375 C4.44910156 8.36113281 4.46070313 9.34726563 4.47265625 10.36328125 C4.375 13.0625 4.375 13.0625 3.375 16.0625 C2.385 16.0625 1.395 16.0625 0.375 16.0625 C0.230625 16.701875 0.08625 17.34125 -0.0625 18 C-0.625 20.0625 -0.625 20.0625 -1.625 21.0625 C-3.03107098 21.16146648 -4.44201438 21.19329515 -5.8515625 21.1953125 C-6.71910156 21.19660156 -7.58664063 21.19789063 -8.48046875 21.19921875 C-9.39441406 21.19535156 -10.30835938 21.19148438 -11.25 21.1875 C-12.14074219 21.19136719 -13.03148437 21.19523437 -13.94921875 21.19921875 C-18.94890526 21.19185544 -23.69718947 20.9130536 -28.625 20.0625 C-29.8327558 16.43923261 -29.16811128 15.42103631 -27.625 12.0625 C-28.945 11.4025 -30.265 10.7425 -31.625 10.0625 C-30.985625 9.77375 -30.34625 9.485 -29.6875 9.1875 C-27.47293921 8.23426549 -27.47293921 8.23426549 -26.625 6.0625 C-24.11405397 5.72158053 -21.7102383 5.5031169 -19.1875 5.375 C-18.49333984 5.32794922 -17.79917969 5.28089844 -17.08398438 5.23242188 C-11.89767316 4.92616342 -11.89767316 4.92616342 -9.625 6.0625 C-9.33625 5.258125 -9.0475 4.45375 -8.75 3.625 C-6.84357599 -0.71741023 -4.35953245 -0.05069224 0 0 Z " fill="#F8C48E" transform="translate(187.625,206.9375)"/>
<path d="M0 0 C3.43444651 1.47530597 4.45176605 5.1592415 5.9375 8.39477539 C6.2675 9.08635742 6.5975 9.77793945 6.9375 10.49047852 C7.60548898 11.8903851 8.26661026 13.29358895 8.92089844 14.69995117 C10.27426017 17.53863065 11.74356999 20.31357488 13.22753906 23.0859375 C14.24145072 25.57992308 13.86514867 27.35854561 12.9375 29.83227539 C11.2875 30.16227539 9.6375 30.49227539 7.9375 30.83227539 C7.48375 29.84227539 7.03 28.85227539 6.5625 27.83227539 C4.31403054 24.69423886 4.31403054 24.69423886 1.5859375 24.22290039 C-1.16734525 24.07670839 -3.39049933 24.13986326 -6.0625 24.83227539 C-8.77286916 27.64223622 -8.77286916 27.64223622 -10.0625 30.83227539 C-11.7125 30.50227539 -13.3625 30.17227539 -15.0625 29.83227539 C-16.33116135 25.53621505 -15.78987475 23.37663012 -13.859375 19.38305664 C-13.37339844 18.37049805 -12.88742188 17.35793945 -12.38671875 16.31469727 C-11.86722656 15.26862305 -11.34773437 14.22254883 -10.8125 13.14477539 C-10.05646484 11.55826172 -10.05646484 11.55826172 -9.28515625 9.93969727 C-4.27619112 -0.34774424 -4.27619112 -0.34774424 0 0 Z M-2.0625 13.83227539 C-2.0625 14.82227539 -2.0625 15.81227539 -2.0625 16.83227539 C-1.0725 16.50227539 -0.0825 16.17227539 0.9375 15.83227539 C0.6075 15.17227539 0.2775 14.51227539 -0.0625 13.83227539 C-0.7225 13.83227539 -1.3825 13.83227539 -2.0625 13.83227539 Z " fill="#FBFBFB" transform="translate(146.0625,283.167724609375)"/>
<path d="M0 0 C3.43444651 1.47530597 4.45176605 5.1592415 5.9375 8.39477539 C6.2675 9.08635742 6.5975 9.77793945 6.9375 10.49047852 C7.60548898 11.8903851 8.26661026 13.29358895 8.92089844 14.69995117 C10.27426017 17.53863065 11.74356999 20.31357488 13.22753906 23.0859375 C14.24145072 25.57992308 13.86514867 27.35854561 12.9375 29.83227539 C11.2875 30.16227539 9.6375 30.49227539 7.9375 30.83227539 C7.48375 29.84227539 7.03 28.85227539 6.5625 27.83227539 C4.31403054 24.69423886 4.31403054 24.69423886 1.5859375 24.22290039 C-1.16734525 24.07670839 -3.39049933 24.13986326 -6.0625 24.83227539 C-8.77286916 27.64223622 -8.77286916 27.64223622 -10.0625 30.83227539 C-11.7125 30.50227539 -13.3625 30.17227539 -15.0625 29.83227539 C-16.33116135 25.53621505 -15.78987475 23.37663012 -13.859375 19.38305664 C-13.37339844 18.37049805 -12.88742188 17.35793945 -12.38671875 16.31469727 C-11.86722656 15.26862305 -11.34773437 14.22254883 -10.8125 13.14477539 C-10.05646484 11.55826172 -10.05646484 11.55826172 -9.28515625 9.93969727 C-4.27619112 -0.34774424 -4.27619112 -0.34774424 0 0 Z M-1.0625 13.83227539 C-2.0525 15.31727539 -2.0525 15.31727539 -3.0625 16.83227539 C-1.7425 16.50227539 -0.4225 16.17227539 0.9375 15.83227539 C0.2775 15.17227539 -0.3825 14.51227539 -1.0625 13.83227539 Z " fill="#FBFBFB" transform="translate(206.0625,283.167724609375)"/>
<path d="M0 0 C2.73032965 1.10138388 3.22769505 2.32698145 4.53955078 4.93286133 C4.96880859 5.76881836 5.39806641 6.60477539 5.84033203 7.46606445 C6.27474609 8.34584961 6.70916016 9.22563477 7.15673828 10.13208008 C7.59888672 11.00026367 8.04103516 11.86844727 8.49658203 12.76293945 C9.68839341 15.10875551 10.86337607 17.46202031 12.03173828 19.81958008 C12.58643799 20.86795044 12.58643799 20.86795044 13.15234375 21.9375 C14.30318613 24.40053274 14.38492542 26.13535781 14.03173828 28.81958008 C11.03173828 30.81958008 11.03173828 30.81958008 8.96923828 30.81958008 C7.03173828 29.81958008 7.03173828 29.81958008 5.78173828 26.75708008 C5.53423828 25.78770508 5.28673828 24.81833008 5.03173828 23.81958008 C-1.72661245 23.56520086 -1.72661245 23.56520086 -7.58935547 26.22192383 C-8.81141675 28.03299798 -8.81141675 28.03299798 -9.96826172 30.81958008 C-11.94826172 30.15958008 -13.92826172 29.49958008 -15.96826172 28.81958008 C-15.41619158 24.59091656 -14.44256988 21.26411979 -12.53466797 17.45629883 C-12.050625 16.48756836 -11.56658203 15.51883789 -11.06787109 14.52075195 C-10.560625 13.52624023 -10.05337891 12.53172852 -9.53076172 11.50708008 C-9.02738281 10.49323242 -8.52400391 9.47938477 -8.00537109 8.43481445 C-3.58547996 -0.32866158 -3.58547996 -0.32866158 0 0 Z M-0.96826172 13.81958008 C-1.29826172 14.80958008 -1.62826172 15.79958008 -1.96826172 16.81958008 C-0.97826172 16.48958008 0.01173828 16.15958008 1.03173828 15.81958008 C0.37173828 15.15958008 -0.28826172 14.49958008 -0.96826172 13.81958008 Z " fill="#FBFBFB" transform="translate(270.96826171875,283.180419921875)"/>
<path d="M0 0 C3.75306325 0.32169114 6.21380434 1.34856769 8.796875 4.15234375 C12.63524191 10.04697866 14.9944692 18.0387156 14 25 C11.66444703 34.81208643 7.46865819 41.41962536 0.5 48.5625 C-2.788819 50.45357092 -5.27296678 50.29231633 -9 50 C-9 50.66 -9 51.32 -9 52 C-12.465 52.495 -12.465 52.495 -16 53 C-16 52.01 -16 51.02 -16 50 C-14.02 49.34 -12.04 48.68 -10 48 C-10 47.34 -10 46.68 -10 46 C-8.6403039 45.06983753 -7.23508116 44.20580596 -5.8125 43.375 C1.23663072 38.81966552 4.21832336 33.12838653 6 25 C6.08992752 21.66782073 5.87761183 18.38434563 5.625 15.0625 C5.56828125 14.18787109 5.5115625 13.31324219 5.453125 12.41210938 C5.31292119 10.27400131 5.15797033 8.13686887 5 6 C4.35546875 5.71382812 3.7109375 5.42765625 3.046875 5.1328125 C1 4 1 4 0.25 1.875 C0.1675 1.25625 0.085 0.6375 0 0 Z " fill="#07EBF9" transform="translate(294,221)"/>
<path d="M0 0 C1.084021 0.00523682 2.16804199 0.01047363 3.28491211 0.01586914 C5.03964844 0.02070313 5.03964844 0.02070313 6.82983398 0.02563477 C8.67738281 0.03820312 8.67738281 0.03820312 10.56225586 0.05102539 C12.41560547 0.05779297 12.41560547 0.05779297 14.30639648 0.06469727 C17.37089703 0.07652931 20.43530307 0.09301366 23.49975586 0.11352539 C24.56225586 2.48852539 24.56225586 2.48852539 25.49975586 5.11352539 C25.16975586 5.77352539 24.83975586 6.43352539 24.49975586 7.11352539 C21.19975586 7.11352539 17.89975586 7.11352539 14.49975586 7.11352539 C14.51135742 8.69004883 14.52295898 10.26657227 14.53491211 11.89086914 C14.54428829 13.94425338 14.55338868 15.99763889 14.56225586 18.05102539 C14.57063477 19.09194336 14.57901367 20.13286133 14.58764648 21.20532227 C14.59248047 22.68935547 14.59248047 22.68935547 14.59741211 24.20336914 C14.60526733 25.57803345 14.60526733 25.57803345 14.61328125 26.98046875 C14.49975586 29.11352539 14.49975586 29.11352539 13.49975586 30.11352539 C10.49975586 30.23852539 10.49975586 30.23852539 7.49975586 30.11352539 C6.49975586 29.11352539 6.49975586 29.11352539 6.38623047 26.98046875 C6.39146729 26.06402588 6.3967041 25.14758301 6.40209961 24.20336914 C6.40532227 23.21401367 6.40854492 22.2246582 6.41186523 21.20532227 C6.42024414 20.1644043 6.42862305 19.12348633 6.43725586 18.05102539 C6.44176758 17.00624023 6.4462793 15.96145508 6.45092773 14.88500977 C6.46275673 12.29445879 6.47923897 9.7040198 6.49975586 7.11352539 C5.54262695 7.13092773 5.54262695 7.13092773 4.56616211 7.14868164 C3.32672852 7.1622168 3.32672852 7.1622168 2.06225586 7.17602539 C0.82668945 7.19342773 0.82668945 7.19342773 -0.43383789 7.21118164 C-2.50024414 7.11352539 -2.50024414 7.11352539 -3.50024414 6.11352539 C-3.62524414 3.61352539 -3.62524414 3.61352539 -3.50024414 1.11352539 C-2.50024414 0.11352539 -2.50024414 0.11352539 0 0 Z " fill="#FBFBFB" transform="translate(289.500244140625,282.886474609375)"/>
<path d="M0 0 C1.21880859 -0.01224609 2.43761719 -0.02449219 3.69335938 -0.03710938 C5.43649414 -0.04000977 5.43649414 -0.04000977 7.21484375 -0.04296875 C8.28726318 -0.04707764 9.35968262 -0.05118652 10.46459961 -0.05541992 C13.0625 0.1875 13.0625 0.1875 15.0625 2.1875 C14.52678571 5.72321429 14.52678571 5.72321429 13.0625 7.1875 C11.54321962 7.25929964 10.02082518 7.27142007 8.5 7.25 C7.67371094 7.24097656 6.84742188 7.23195313 5.99609375 7.22265625 C5.35800781 7.21105469 4.71992188 7.19945312 4.0625 7.1875 C4.07035522 8.17931274 4.07035522 8.17931274 4.07836914 9.19116211 C4.09907656 12.16909851 4.11214012 15.14701982 4.125 18.125 C4.13337891 19.16591797 4.14175781 20.20683594 4.15039062 21.27929688 C4.15522461 22.76333008 4.15522461 22.76333008 4.16015625 24.27734375 C4.16801147 25.65200806 4.16801147 25.65200806 4.17602539 27.05444336 C4.0625 29.1875 4.0625 29.1875 3.0625 30.1875 C0.0625 30.3125 0.0625 30.3125 -2.9375 30.1875 C-3.9375 29.1875 -3.9375 29.1875 -4.05102539 27.05444336 C-4.04578857 26.13800049 -4.04055176 25.22155762 -4.03515625 24.27734375 C-4.03193359 23.28798828 -4.02871094 22.29863281 -4.02539062 21.27929688 C-4.01701172 20.23837891 -4.00863281 19.19746094 -4 18.125 C-3.99548828 17.08021484 -3.99097656 16.03542969 -3.98632812 14.95898438 C-3.97449913 12.3684334 -3.95801689 9.77799441 -3.9375 7.1875 C-4.89462891 7.20490234 -4.89462891 7.20490234 -5.87109375 7.22265625 C-7.11052734 7.23619141 -7.11052734 7.23619141 -8.375 7.25 C-9.61056641 7.26740234 -9.61056641 7.26740234 -10.87109375 7.28515625 C-12.9375 7.1875 -12.9375 7.1875 -13.9375 6.1875 C-14.0625 3.6875 -14.0625 3.6875 -13.9375 1.1875 C-11.29209403 -1.45790597 -3.56345815 0.00187847 0 0 Z " fill="#F9F9F9" transform="translate(174.9375,282.8125)"/>
<path d="M0 0 C0.66 0.66 1.32 1.32 2 2 C4.58064129 2.14497985 7.04943884 2.18677545 9.625 2.125 C10.33140625 2.11597656 11.0378125 2.10695312 11.765625 2.09765625 C13.51056098 2.07407603 15.25532295 2.03820461 17 2 C17 4.31 17 6.62 17 9 C15.02 9 13.04 9 11 9 C11 9.66 11 10.32 11 11 C13.97 11.495 13.97 11.495 17 12 C17.3125 15.3125 17.3125 15.3125 17 19 C14.30510404 21.45711102 12.47979223 21.94242493 8.875 22.375 C6 22 6 22 4.125 20.875 C2.5317901 18.21965017 2.79785968 16.03210482 3 13 C4.32 12.34 5.64 11.68 7 11 C7 10.34 7 9.68 7 9 C6.154375 9.309375 5.30875 9.61875 4.4375 9.9375 C0.90743087 11.02861228 -2.31510587 11.72189478 -6 12 C-9 10 -9 10 -9.3984375 8.125 C-9.39070313 7.42375 -9.38296875 6.7225 -9.375 6 C-9.38273437 5.29875 -9.39046875 4.5975 -9.3984375 3.875 C-8.39668864 -0.83911229 -3.8519647 -0.32782678 0 0 Z " fill="#208EE3" transform="translate(129,224)"/>
<path d="M0 0 C10.23 0.33 20.46 0.66 31 1 C31.495 2.98 31.495 2.98 32 5 C29.51942372 7.48057628 28.63807536 7.29019005 25.2109375 7.4140625 C23.79941406 7.47207031 23.79941406 7.47207031 22.359375 7.53125 C21.37453125 7.5621875 20.3896875 7.593125 19.375 7.625 C17.88613281 7.68300781 17.88613281 7.68300781 16.3671875 7.7421875 C13.91164615 7.8366314 11.4561159 7.92219875 9 8 C8.67 8.66 8.34 9.32 8 10 C7.01 9.67 6.02 9.34 5 9 C2.7536765 9.45640952 2.7536765 9.45640952 0.4375 10.3125 C-0.34753906 10.57675781 -1.13257813 10.84101563 -1.94140625 11.11328125 C-4.16879155 11.92233134 -4.16879155 11.92233134 -6 14 C-9.07275391 14.22705078 -9.07275391 14.22705078 -12.9765625 14.1953125 C-13.66181 14.1924826 -14.3470575 14.18965271 -15.05307007 14.18673706 C-17.24389027 14.17553281 -19.43430316 14.15042859 -21.625 14.125 C-23.1093691 14.11497048 -24.5937446 14.10584458 -26.078125 14.09765625 C-29.71888261 14.07559294 -33.35940156 14.04106176 -37 14 C-36.67 16.64 -36.34 19.28 -36 22 C-35.34 22 -34.68 22 -34 22 C-34.75 28.625 -34.75 28.625 -37 32 C-38.87939453 32.34057617 -38.87939453 32.34057617 -41.1328125 32.29296875 C-41.93847656 32.28330078 -42.74414062 32.27363281 -43.57421875 32.26367188 C-44.41597656 32.23853516 -45.25773438 32.21339844 -46.125 32.1875 C-47.39923828 32.16719727 -47.39923828 32.16719727 -48.69921875 32.14648438 C-50.79974837 32.11108219 -52.89995293 32.05727401 -55 32 C-55 31.67 -55 31.34 -55 31 C-52.69 31 -50.38 31 -48 31 C-47.67 30.34 -47.34 29.68 -47 29 C-44.36 29.33 -41.72 29.66 -39 30 C-39.01160156 29.19175781 -39.02320313 28.38351563 -39.03515625 27.55078125 C-39.04417969 26.48214844 -39.05320313 25.41351563 -39.0625 24.3125 C-39.07410156 23.25675781 -39.08570313 22.20101562 -39.09765625 21.11328125 C-39.00839469 18.26762256 -38.59407565 15.77303823 -38 13 C-37.07662842 12.9906543 -36.15325684 12.98130859 -35.2019043 12.97167969 C-31.77405494 12.92765266 -28.34745949 12.86603893 -24.92016602 12.79248047 C-23.43721058 12.76426459 -21.95410457 12.74305298 -20.47094727 12.72900391 C-18.33792003 12.7075808 -16.20670394 12.66094218 -14.07421875 12.609375 C-12.79119873 12.58842773 -11.50817871 12.56748047 -10.1862793 12.54589844 C-6.90901122 12.33997701 -6.90901122 12.33997701 -5.30786133 9.96191406 C-4.66046997 8.9907666 -4.66046997 8.9907666 -4 8 C-2.68 8 -1.36 8 0 8 C0 5.36 0 2.72 0 0 Z " fill="#4AB4C5" transform="translate(194,216)"/>
<path d="M0 0 C0.66 0.33 1.32 0.66 2 1 C4.73011585 1.07034115 7.44564282 0.99709374 10.17578125 0.9375 C12.93401489 0.99853975 15.30276104 1.45174816 18 2 C20.6068127 2.21881019 23.20220189 2.41012853 25.8125 2.5625 C26.85180664 2.62727539 26.85180664 2.62727539 27.91210938 2.69335938 C29.60788686 2.79861453 31.30392052 2.89972863 33 3 C33.495 6.96 33.495 6.96 34 11 C33.34 10.67 32.68 10.34 32 10 C29.68784489 9.90212905 27.37281842 9.86922377 25.05859375 9.8671875 C24.37571793 9.86623077 23.6928421 9.86527405 22.98927307 9.86428833 C21.54598905 9.86360777 20.10270197 9.8654534 18.65942383 9.86962891 C16.44280172 9.87498718 14.22638148 9.86967557 12.00976562 9.86328125 C10.60937455 9.86394189 9.2089836 9.86522277 7.80859375 9.8671875 C6.52782959 9.86831543 5.24706543 9.86944336 3.92749023 9.87060547 C1.10987252 9.66506296 1.10987252 9.66506296 0 11 C-3.4375 11.1875 -3.4375 11.1875 -7 11 C-9 9 -9 9 -9.375 5.5625 C-9 2 -9 2 -7.3125 0 C-4.40619157 -1.25678203 -2.98152232 -0.94153336 0 0 Z " fill="#2294E2" transform="translate(121,245)"/>
<path d="M0 0 C1.25965576 0.00193359 2.51931152 0.00386719 3.81713867 0.00585938 C15.70542321 0.05963562 27.56676125 0.4997867 39.4375 1.125 C39.9325 2.61 39.9325 2.61 40.4375 4.125 C37.18378455 5.20957182 34.8285068 5.24546857 31.40551758 5.23852539 C30.16445755 5.23844986 28.92339752 5.23837433 27.64472961 5.23829651 C26.29049642 5.23318991 24.93626363 5.22797391 23.58203125 5.22265625 C22.19626415 5.22079083 20.81049639 5.21936751 19.42472839 5.21836853 C15.7800209 5.2145531 12.13535335 5.20473113 8.49066162 5.19366455 C4.77047262 5.1834295 1.05027715 5.17886642 -2.66992188 5.17382812 C-9.96746611 5.16310798 -17.26497746 5.14604325 -24.5625 5.125 C-23.79858398 3.17138672 -23.79858398 3.17138672 -22.5625 1.125 C-15.15150241 -0.33114224 -7.53002369 -0.02801683 0 0 Z " fill="#09D7F7" transform="translate(235.5625,269.875)"/>
<path d="M0 0 C0.99 0.33 1.98 0.66 3 1 C2.67 1.99 2.34 2.98 2 4 C2.57073242 3.67402832 3.14146484 3.34805664 3.72949219 3.01220703 C6.16607646 1.92596204 7.68281107 1.7668973 10.328125 1.8046875 C11.12734375 1.81113281 11.9265625 1.81757813 12.75 1.82421875 C13.575 1.84097656 14.4 1.85773438 15.25 1.875 C16.09046875 1.88402344 16.9309375 1.89304688 17.796875 1.90234375 C19.86470604 1.92584183 21.93238995 1.96171092 24 2 C24 2.66 24 3.32 24 4 C23.01 4.03738281 22.02 4.07476562 21 4.11328125 C9.06203564 4.66224009 -1.2944233 6.68482542 -9.76171875 15.921875 C-12.92926642 20.0388891 -15.52898411 24.43812451 -18 29 C-19.32 28.67 -20.64 28.34 -22 28 C-22.95942128 25.42969854 -23.09171193 24.26465441 -22.1796875 21.6328125 C-16.68922619 11.07929105 -10.73470195 5.36735098 0 0 Z " fill="#23BCE1" transform="translate(222,183)"/>
<path d="M0 0 C2.90398503 2.11912421 3.84245093 3.50634623 4.9375 6.9375 C5.01327396 10.65042412 4.3135507 12.12800603 2 15 C-0.65499724 17.08606926 -2.06750504 16.99879455 -5.5 16.9375 C-9 16 -9 16 -11.4375 13.8125 C-13.31263988 10.43724821 -13.71235686 8.7992366 -13 5 C-8.71885816 -0.06977323 -6.4992211 -1.68979749 0 0 Z " fill="#0EE4F2" transform="translate(290,191)"/>
<path d="M0 0 C1.78058098 0.05333799 3.56118 0.10607715 5.34179688 0.15820312 C9.66560353 0.28606681 13.98908535 0.42202804 18.3125 0.5625 C18.3125 2.2125 18.3125 3.8625 18.3125 5.5625 C2.1425 5.5625 -14.0275 5.5625 -30.6875 5.5625 C-30.6875 3.9125 -30.6875 2.2625 -30.6875 0.5625 C-20.45920508 -0.83458515 -10.28037603 -0.33594749 0 0 Z " fill="#20C1E2" transform="translate(233.6875,236.4375)"/>
<path d="M0 0 C3.5625 0.1875 3.5625 0.1875 5.5625 2.1875 C8.64597826 2.35431109 8.64597826 2.35431109 11.5625 2.1875 C12.6875 5.9375 12.6875 5.9375 11.5625 8.1875 C12.58085937 8.1153125 13.59921875 8.043125 14.6484375 7.96875 C28.94811729 7.00906287 43.30105239 6.42837871 57.5625 8.1875 C57.5625 8.8475 57.5625 9.5075 57.5625 10.1875 C56.9051738 10.18305878 56.2478476 10.17861755 55.57060242 10.17404175 C48.74150766 10.1298634 41.91245337 10.09965646 35.08325195 10.07763672 C32.53310498 10.06756672 29.98296958 10.05390996 27.43286133 10.03662109 C23.7716181 10.01241688 20.11052726 10.00102695 16.44921875 9.9921875 C15.3053923 9.98186493 14.16156586 9.97154236 12.983078 9.96090698 C11.92220474 9.96075592 10.86133148 9.96060486 9.76831055 9.96044922 C8.83343307 9.956008 7.8985556 9.95156677 6.93534851 9.94699097 C4.29537889 10.02760466 4.29537889 10.02760466 1.5625 12.1875 C-1.5553144 12.03160928 -3.01193326 11.5581549 -5.375 9.5 C-6.4375 7.1875 -6.4375 7.1875 -5.6875 4 C-4.00685818 0.2185559 -4.00685818 0.2185559 0 0 Z " fill="#2597E1" transform="translate(143.4375,254.8125)"/>
<path d="M0 0 C-0.474375 0.61875 -0.94875 1.2375 -1.4375 1.875 C-3.02417441 3.90705546 -3.02417441 3.90705546 -4 6 C-4.50789063 5.66226563 -5.01578125 5.32453125 -5.5390625 4.9765625 C-9.59911488 2.34589186 -13.287806 0.29585335 -18 -1 C-18 -1.99 -18 -2.98 -18 -4 C-26.415 -3.505 -26.415 -3.505 -35 -3 C-35 -2.67 -35 -2.34 -35 -2 C-36.65 -2 -38.3 -2 -40 -2 C-40.33 -2.99 -40.66 -3.98 -41 -5 C-40.34 -5 -39.68 -5 -39 -5 C-39 -5.66 -39 -6.32 -39 -7 C-24.91450726 -10.84727905 -11.74992767 -8.65784144 0 0 Z " fill="#1AC8E6" transform="translate(264,189)"/>
<path d="M0 0 C1.50433594 0.01353516 1.50433594 0.01353516 3.0390625 0.02734375 C3.80992187 0.03894531 4.58078125 0.05054688 5.375 0.0625 C5.705 0.7225 6.035 1.3825 6.375 2.0625 C5.715 2.0625 5.055 2.0625 4.375 2.0625 C4.38660156 2.82175781 4.39820313 3.58101562 4.41015625 4.36328125 C4.41917969 5.35714844 4.42820313 6.35101563 4.4375 7.375 C4.44910156 8.36113281 4.46070313 9.34726563 4.47265625 10.36328125 C4.375 13.0625 4.375 13.0625 3.375 16.0625 C2.715 15.7325 2.055 15.4025 1.375 15.0625 C1.705 14.4025 2.035 13.7425 2.375 13.0625 C-5.545 12.7325 -13.465 12.4025 -21.625 12.0625 C-21.625 11.7325 -21.625 11.4025 -21.625 11.0625 C-16.18 10.0725 -16.18 10.0725 -10.625 9.0625 C-10.625 8.4025 -10.625 7.7425 -10.625 7.0625 C-12.605 7.0625 -14.585 7.0625 -16.625 7.0625 C-16.955 6.4025 -17.285 5.7425 -17.625 5.0625 C-11.875 4.9375 -11.875 4.9375 -9.625 6.0625 C-9.33625 5.258125 -9.0475 4.45375 -8.75 3.625 C-6.84357599 -0.71741023 -4.35953245 -0.05069224 0 0 Z " fill="#F5BA81" transform="translate(187.625,206.9375)"/>
<path d="M0 0 C1.53202706 0.25195908 3.05257128 0.57596777 4.5625 0.9375 C5.38878906 1.13214844 6.21507812 1.32679688 7.06640625 1.52734375 C8.02353516 1.76130859 8.02353516 1.76130859 9 2 C9 2.66 9 3.32 9 4 C17.91 4 26.82 4 36 4 C36 5.32 36 6.64 36 8 C30.61296691 9.7956777 24.82479205 9.2273489 19.1875 9.25 C17.91583984 9.270625 16.64417969 9.29125 15.33398438 9.3125 C14.10357422 9.31765625 12.87316406 9.3228125 11.60546875 9.328125 C9.92167114 9.34214355 9.92167114 9.34214355 8.20385742 9.35644531 C4.57946821 8.95321372 2.14601121 7.79907784 -1 6 C-1.042721 4.33388095 -1.04063832 2.66617115 -1 1 C-0.67 0.67 -0.34 0.34 0 0 Z " fill="#0FB4F8" transform="translate(167,267)"/>
<path d="M0 0 C10.89 0 21.78 0 33 0 C33 0.66 33 1.32 33 2 C32.34 2 31.68 2 31 2 C30.67 3.32 30.34 4.64 30 6 C27.36 6.33 24.72 6.66 22 7 C21.67 7.99 21.34 8.98 21 10 C20.01 9.67 19.02 9.34 18 9 C18 8.34 18 7.68 18 7 C11.97403427 5.9287172 6.11090483 5.90054585 0 6 C0 4.02 0 2.04 0 0 Z " fill="#0FB8DF" transform="translate(157,230)"/>
<path d="M0 0 C6.6 0 13.2 0 20 0 C20 0.33 20 0.66 20 1 C17.36 1 14.72 1 12 1 C11.690625 1.639375 11.38125 2.27875 11.0625 2.9375 C10 5 10 5 9 6 C9.66 6.33 10.32 6.66 11 7 C10.67 9.31 10.34 11.62 10 14 C12.31 14.33 14.62 14.66 17 15 C17 15.33 17 15.66 17 16 C14.73044814 16.22185844 12.45926245 16.42705515 10.1875 16.625 C8.29064453 16.79902344 8.29064453 16.79902344 6.35546875 16.9765625 C3 17 3 17 0 15 C-0.29296875 12.6171875 -0.29296875 12.6171875 -0.1875 9.875 C-0.16042969 8.96492187 -0.13335937 8.05484375 -0.10546875 7.1171875 C-0.07066406 6.41851562 -0.03585938 5.71984375 0 5 C0.66 5 1.32 5 2 5 C1.34 3.35 0.68 1.7 0 0 Z " fill="#FAE3B9" transform="translate(149,212)"/>
<path d="M0 0 C3.75306325 0.32169114 6.21380434 1.34856769 8.796875 4.15234375 C12.7376717 10.20428153 14.76254227 17.83210266 14 25 C13.67 25.99 13.34 26.98 13 28 C10.9375 28.6875 10.9375 28.6875 9 29 C7.7619986 25.42355152 8.25073929 22.66305234 9 19 C8.01 19 7.02 19 6 19 C4.89771304 14.59085217 4.92345464 10.51617599 5 6 C4.360625 5.7525 3.72125 5.505 3.0625 5.25 C1 4 1 4 0.25 1.875 C0.1675 1.25625 0.085 0.6375 0 0 Z " fill="#0FEBEF" transform="translate(294,221)"/>
<path d="M0 0 C11.55 0 23.1 0 35 0 C35 1.32 35 2.64 35 4 C23.12 4 11.24 4 -1 4 C-0.67 2.68 -0.34 1.36 0 0 Z " fill="#0CC7F8" transform="translate(204,259)"/>
<path d="M0 0 C2.31 0 4.62 0 7 0 C7.495 1.485 7.495 1.485 8 3 C11.3 3 14.6 3 18 3 C18 3.33 18 3.66 18 4 C15.03 4 12.06 4 9 4 C8.67 4.99 8.34 5.98 8 7 C9.98 7.33 11.96 7.66 14 8 C14 8.33 14 8.66 14 9 C8.06 9 2.12 9 -4 9 C-3.01 8.67 -2.02 8.34 -1 8 C-1 6.68 -1 5.36 -1 4 C-9.91 4 -18.82 4 -28 4 C-28 3.67 -28 3.34 -28 3 C-19.09 2.67 -10.18 2.34 -1 2 C-0.67 1.34 -0.34 0.68 0 0 Z " fill="#2FB4DE" transform="translate(204,267)"/>
<path d="M0 0 C4.09341499 -0.02469575 8.18680121 -0.04285793 12.28027344 -0.05493164 C13.67318477 -0.0599643 15.0660908 -0.06679098 16.45898438 -0.07543945 C18.45961246 -0.08755152 20.46027888 -0.09270412 22.4609375 -0.09765625 C23.66540527 -0.10289307 24.86987305 -0.10812988 26.11083984 -0.11352539 C29 0 29 0 31 1 C30.67 1.99 30.34 2.98 30 4 C20.1 4 10.2 4 0 4 C0 2.68 0 1.36 0 0 Z " fill="#15BDF1" transform="translate(195,218)"/>
<path d="M0 0 C3.50927055 0.08161094 4.76634669 0.76795255 7.2734375 3.2578125 C13.64400437 11.94925503 13.64400437 11.94925503 13 16.1875 C12.67 17.115625 12.34 18.04375 12 19 C11.01 18.67 10.02 18.34 9 18 C9 16.02 9 14.04 9 12 C7.68 12.33 6.36 12.66 5 13 C4.01216806 11.92456217 3.03506057 10.83926783 2.0625 9.75 C1.51722656 9.14671875 0.97195313 8.5434375 0.41015625 7.921875 C-1.0883018 5.87965516 -1.75545533 4.51828981 -2 2 C-1.34 1.34 -0.68 0.68 0 0 Z " fill="#0FD9F0" transform="translate(262,190)"/>
<path d="M0 0 C-0.33 5.28 -0.66 10.56 -1 16 C-2.32 16 -3.64 16 -5 16 C-5.309375 16.639375 -5.61875 17.27875 -5.9375 17.9375 C-7 20 -7 20 -8 21 C-10.29151417 21.08790975 -12.58572524 21.10694038 -14.87890625 21.09765625 C-15.90889992 21.09553383 -15.90889992 21.09553383 -16.95970154 21.09336853 C-19.16067801 21.08775479 -21.36155409 21.07520007 -23.5625 21.0625 C-25.05143083 21.05748676 -26.54036324 21.05292355 -28.02929688 21.04882812 C-31.68626805 21.03863021 -35.34302117 21.01905779 -39 21 C-39.33 26.61 -39.66 32.22 -40 38 C-40.33 38 -40.66 38 -41 38 C-41.33 32.06 -41.66 26.12 -42 20 C-31.11 19.67 -20.22 19.34 -9 19 C-8.34 17.68 -7.68 16.36 -7 15 C-6.01 15 -5.02 15 -4 15 C-3.95101562 14.00097656 -3.90203125 13.00195312 -3.8515625 11.97265625 C-3.77679688 10.68230469 -3.70203125 9.39195312 -3.625 8.0625 C-3.55539063 6.77472656 -3.48578125 5.48695313 -3.4140625 4.16015625 C-3.27742188 3.11730469 -3.14078125 2.07445312 -3 1 C-1 0 -1 0 0 0 Z " fill="#CEBEB4" transform="translate(195,208)"/>
<path d="M0 0 C0.33 1.32 0.66 2.64 1 4 C1.66 3.67 2.32 3.34 3 3 C3.66 3.66 4.32 4.32 5 5 C4.04258894 6.60471728 3.08403595 8.20875329 2.125 9.8125 C1.59132812 10.70582031 1.05765625 11.59914062 0.5078125 12.51953125 C-0.61883092 14.37294724 -1.79686611 16.19529917 -3 18 C-4.32 17.67 -5.64 17.34 -7 17 C-8.00579304 14.35672682 -8.08377402 13.23258313 -7.109375 10.52734375 C-6.66078125 9.67269531 -6.2121875 8.81804687 -5.75 7.9375 C-5.31171875 7.08027344 -4.8734375 6.22304687 -4.421875 5.33984375 C-3.12125426 3.19953654 -1.85425788 1.66337839 0 0 Z " fill="#20B4E3" transform="translate(207,194)"/>
<path d="M0 0 C5.28 0 10.56 0 16 0 C16.33 1.32 16.66 2.64 17 4 C15 6 15 6 11.8125 6.265625 C9.9253125 6.25789062 9.9253125 6.25789062 8 6.25 C6.741875 6.25515625 5.48375 6.2603125 4.1875 6.265625 C1 6 1 6 -1 4 C-0.67 2.68 -0.34 1.36 0 0 Z " fill="#26BADB" transform="translate(229,217)"/>
<path d="M0 0 C0 0.66 0 1.32 0 2 C-17.68510292 2.17924091 -35.32891902 1.62288614 -53 1 C-53 0.67 -53 0.34 -53 0 C-14.81883222 -1.82787358 -14.81883222 -1.82787358 0 0 Z " fill="#209CC1" transform="translate(201,263)"/>
<path d="M0 0 C7.59 0 15.18 0 23 0 C23 1.32 23 2.64 23 4 C15.41 4 7.82 4 0 4 C0 2.68 0 1.36 0 0 Z " fill="#0EC2F7" transform="translate(203,249)"/>
<path d="M0 0 C0.66 0.33 1.32 0.66 2 1 C2 0.34 2 -0.32 2 -1 C2.66 -1 3.32 -1 4 -1 C4 1.31 4 3.62 4 6 C-0.08456139 7.6148266 -2.76506878 8.41164374 -7 7 C-7.66 6.34 -8.32 5.68 -9 5 C-8.75 2.4375 -8.75 2.4375 -8 0 C-5.11541362 -1.44229319 -3.09360585 -0.64450122 0 0 Z " fill="#209AEB" transform="translate(142,237)"/>
<path d="M0 0 C10.23 0.33 20.46 0.66 31 1 C30.67 1.66 30.34 2.32 30 3 C20.43 2.67 10.86 2.34 1 2 C1 3.32 1 4.64 1 6 C10.57 6 20.14 6 30 6 C30 6.33 30 6.66 30 7 C19.605 7.495 19.605 7.495 9 8 C8.67 8.66 8.34 9.32 8 10 C7.01 9.67 6.02 9.34 5 9 C2.93381251 9.09268505 2.93381251 9.09268505 0.8125 9.4375 C-0.445625 9.623125 -1.70375 9.80875 -3 10 C-2.01 9.67 -1.02 9.34 0 9 C0 6.03 0 3.06 0 0 Z " fill="#39ABD0" transform="translate(194,216)"/>
<path d="M0 0 C12.54 0 25.08 0 38 0 C38.495 1.485 38.495 1.485 39 3 C38.34 3.99 37.68 4.98 37 6 C34.0204901 6.26653946 31.2511418 6.34767784 28.2734375 6.29296875 C27.41062164 6.28872391 26.54780579 6.28447906 25.65884399 6.28010559 C22.89724803 6.26328392 20.13637617 6.22562598 17.375 6.1875 C15.50521886 6.17245764 13.6354263 6.15876846 11.765625 6.14648438 C7.17680342 6.11336906 2.58852456 6.06156339 -2 6 C-2 5.67 -2 5.34 -2 5 C10.54 5 23.08 5 36 5 C36 3.68 36 2.36 36 1 C24.12 1 12.24 1 0 1 C0 0.67 0 0.34 0 0 Z " fill="#2DB8DB" transform="translate(203,258)"/>
<path d="M0 0 C0.66 0 1.32 0 2 0 C2 2.97 2 5.94 2 9 C2.99 9 3.98 9 5 9 C4.84687349 16.04381936 1.4204224 20.67099193 -3 26 C-3.66 26.33 -4.32 26.66 -5 27 C-6 24 -6 24 -5.25 21.9375 C-4 20 -4 20 -1 18 C-1 17.34 -1 16.68 -1 16 C-0.01 15.67 0.98 15.34 2 15 C2.73323796 12.98491642 2.73323796 12.98491642 3 11 C2.01 11 1.02 11 0 11 C0 11.99 0 12.98 0 14 C-0.66 14 -1.32 14 -2 14 C-2 14.99 -2 15.98 -2 17 C-2.66 17 -3.32 17 -4 17 C-2.68 11.39 -1.36 5.78 0 0 Z " fill="#22DFE3" transform="translate(301,240)"/>
<path d="M0 0 C0.33 0.99 0.66 1.98 1 3 C-1.91537441 3.38991633 -4.83121335 3.76239 -7.75 4.125 C-8.575 4.23714844 -9.4 4.34929687 -10.25 4.46484375 C-11.04921875 4.56152344 -11.8484375 4.65820312 -12.671875 4.7578125 C-13.4050293 4.8520752 -14.13818359 4.94633789 -14.89355469 5.04345703 C-17.39473847 4.99185635 -18.86305373 4.25429455 -21 3 C-20.360625 2.71125 -19.72125 2.4225 -19.0625 2.125 C-16.84793921 1.17176549 -16.84793921 1.17176549 -16 -1 C-10.04293229 -2.25411952 -5.75370394 -2.01884349 0 0 Z " fill="#FBCD97" transform="translate(177,214)"/>
<path d="M0 0 C1.19947266 0.00451172 2.39894531 0.00902344 3.63476562 0.01367188 C6.56906359 0.02536231 9.50325449 0.04174862 12.4375 0.0625 C12.4375 0.3925 12.4375 0.7225 12.4375 1.0625 C11.48230469 1.12308594 10.52710938 1.18367188 9.54296875 1.24609375 C1.82911337 1.74599465 -5.86819075 2.31066521 -13.5625 3.0625 C-13.2325 3.7225 -12.9025 4.3825 -12.5625 5.0625 C-16.5225 5.0625 -20.4825 5.0625 -24.5625 5.0625 C-23.9025 3.7425 -23.2425 2.4225 -22.5625 1.0625 C-15.14579333 -0.40243379 -7.53536959 -0.05421129 0 0 Z " fill="#13C6F3" transform="translate(235.5625,269.9375)"/>
<path d="M0 0 C1.53202706 0.25195908 3.05257128 0.57596777 4.5625 0.9375 C5.38878906 1.13214844 6.21507812 1.32679688 7.06640625 1.52734375 C8.02353516 1.76130859 8.02353516 1.76130859 9 2 C8.34 3.65 7.68 5.3 7 7 C19.87 7.495 19.87 7.495 33 8 C33 8.33 33 8.66 33 9 C28.45845522 9.08735463 23.91712768 9.14051247 19.375 9.1875 C17.44720703 9.22520508 17.44720703 9.22520508 15.48046875 9.26367188 C13.61455078 9.27817383 13.61455078 9.27817383 11.7109375 9.29296875 C9.99849854 9.31653442 9.99849854 9.31653442 8.25146484 9.34057617 C4.5917148 8.95723398 2.17066161 7.8205057 -1 6 C-1.042721 4.33388095 -1.04063832 2.66617115 -1 1 C-0.67 0.67 -0.34 0.34 0 0 Z " fill="#26A5E1" transform="translate(167,267)"/>
<path d="M0 0 C0.268125 0.639375 0.53625 1.27875 0.8125 1.9375 C1.88667752 4.33131686 1.88667752 4.33131686 5 5 C5 5.66 5 6.32 5 7 C4.34 7 3.68 7 3 7 C2.67 7.99 2.34 8.98 2 10 C-1.375 10.1875 -1.375 10.1875 -5 10 C-7 7 -7 7 -6.875 4.4375 C-6 2 -6 2 -4.0625 0.6875 C-2 0 -2 0 0 0 Z " fill="#1D88EB" transform="translate(119,246)"/>
<path d="M0 0 C0.74958984 0.00451172 1.49917969 0.00902344 2.27148438 0.01367188 C4.11852383 0.02543646 5.96552213 0.04337135 7.8125 0.0625 C7.8125 0.3925 7.8125 0.7225 7.8125 1.0625 C5.8325 1.0625 3.8525 1.0625 1.8125 1.0625 C1.8125 1.7225 1.8125 2.3825 1.8125 3.0625 C3.1325 3.7225 4.4525 4.3825 5.8125 5.0625 C4.4925 5.3925 3.1725 5.7225 1.8125 6.0625 C1.4825 5.4025 1.1525 4.7425 0.8125 4.0625 C-0.8375 4.7225 -2.4875 5.3825 -4.1875 6.0625 C-3.8575 7.7125 -3.5275 9.3625 -3.1875 11.0625 C-2.40375 11.206875 -1.62 11.35125 -0.8125 11.5 C1.8125 12.0625 1.8125 12.0625 3.8125 13.0625 C2.8125 14.0625 2.8125 14.0625 -0.0625 14.3125 C-3.1875 14.0625 -3.1875 14.0625 -5.0625 12.9375 C-6.6557099 10.28215017 -6.38964032 8.09460482 -6.1875 5.0625 C-4.8675 4.4025 -3.5475 3.7425 -2.1875 3.0625 C-2.1875 2.4025 -2.1875 1.7425 -2.1875 1.0625 C-3.033125 1.371875 -3.87875 1.68125 -4.75 2 C-8.2372854 3.07788821 -11.56927535 3.62831304 -15.1875 4.0625 C-13.8675 3.7325 -12.5475 3.4025 -11.1875 3.0625 C-11.1875 2.4025 -11.1875 1.7425 -11.1875 1.0625 C-7.42449626 -0.19183458 -3.91539091 -0.04445422 0 0 Z " fill="#238ED5" transform="translate(138.1875,231.9375)"/>
<path d="M0 0 C7.26 0.33 14.52 0.66 22 1 C23 4 23 4 22 7 C11.11 7.495 11.11 7.495 0 8 C0 7.34 0 6.68 0 6 C6.6 6 13.2 6 20 6 C20 5.01 20 4.02 20 3 C13.4 3 6.8 3 0 3 C0 2.01 0 1.02 0 0 Z " fill="#17ADD4" transform="translate(203,226)"/>
<path d="M0 0 C0.99 0.33 1.98 0.66 3 1 C3.6875 3.0625 3.6875 3.0625 4 5 C2.68 5.33 1.36 5.66 0 6 C0.33 6.66 0.66 7.32 1 8 C1.40229179 16.03400363 0.8958831 24.0170417 0 32 C-0.66 31.67 -1.32 31.34 -2 31 C-2.05831395 26.95839444 -2.09370212 22.91689795 -2.125 18.875 C-2.14175781 17.73289063 -2.15851563 16.59078125 -2.17578125 15.4140625 C-2.18222656 14.30546875 -2.18867188 13.196875 -2.1953125 12.0546875 C-2.20578613 11.03874512 -2.21625977 10.02280273 -2.22705078 8.97607422 C-1.97841818 5.71711571 -1.14878364 3.04884793 0 0 Z " fill="#E1E4D3" transform="translate(147,212)"/>
<path d="M0 0 C6.6 0 13.2 0 20 0 C20 0.33 20 0.66 20 1 C17.36 1 14.72 1 12 1 C11.690625 1.61875 11.38125 2.2375 11.0625 2.875 C10.375 4.25 9.6875 5.625 9 7 C5.625 7.125 5.625 7.125 2 7 C1.34 6.34 0.68 5.68 0 5 C0.66 5 1.32 5 2 5 C1.34 3.35 0.68 1.7 0 0 Z " fill="#F5D6AB" transform="translate(149,212)"/>
<path d="M0 0 C0.94875 0.04125 1.8975 0.0825 2.875 0.125 C4 2.375 4 2.375 4.875 5.125 C4 7.4375 4 7.4375 2.875 9.125 C0 9.25 0 9.25 -3.125 9.125 C-5.125 7.125 -5.125 7.125 -5.375 4.625 C-4.98192433 0.69424327 -3.8631953 0.15452781 0 0 Z " fill="#0EE2F1" transform="translate(283.125,168.875)"/>
<path d="M0 0 C0.66 0 1.32 0 2 0 C2 1.98 2 3.96 2 6 C2.66 6 3.32 6 4 6 C4.33 4.68 4.66 3.36 5 2 C5.66 2 6.32 2 7 2 C7.33 3.65 7.66 5.3 8 7 C11.3 7.66 14.6 8.32 18 9 C18 9.33 18 9.66 18 10 C12.80790596 10.21192221 8.873261 9.5912689 4 8 C4 8.99 4 9.98 4 11 C5.65 11.33 7.3 11.66 9 12 C9 12.33 9 12.66 9 13 C7.35 13 5.7 13 4 13 C3.13372601 11.40233897 2.28233535 9.79660056 1.4375 8.1875 C0.96183594 7.29417969 0.48617188 6.40085938 -0.00390625 5.48046875 C-1 3 -1 3 0 0 Z " fill="#19D4E3" transform="translate(269,202)"/>
<path d="M0 0 C-0.33 1.65 -0.66 3.3 -1 5 C-10.41002278 7.29612756 -10.41002278 7.29612756 -15 7 C-15 6.01 -15 5.02 -15 4 C-10.08042239 1.24023695 -5.6600858 0 0 0 Z " fill="#15A3F5" transform="translate(156,258)"/>
<path d="M0 0 C5.61 0 11.22 0 17 0 C17 1.32 17 2.64 17 4 C12.38 4 7.76 4 3 4 C2.67 3.01 2.34 2.02 2 1 C1.34 0.67 0.68 0.34 0 0 Z " fill="#139CF6" transform="translate(137,249)"/>
<path d="M0 0 C6.6 0 13.2 0 20 0 C20 0.99 20 1.98 20 3 C13.4 3 6.8 3 0 3 C0 2.01 0 1.02 0 0 Z " fill="#0FC1F7" transform="translate(203,229)"/>
<path d="M0 0 C1.23556641 0.01740234 1.23556641 0.01740234 2.49609375 0.03515625 C3.32238281 0.04417969 4.14867187 0.05320312 5 0.0625 C5.63808594 0.07410156 6.27617187 0.08570313 6.93359375 0.09765625 C7.55859375 1.97265625 7.55859375 1.97265625 7.93359375 4.09765625 C5.93359375 6.09765625 5.93359375 6.09765625 3.98828125 6.29296875 C1.97005208 6.22786458 -0.04817708 6.16276042 -2.06640625 6.09765625 C-2.44859392 4.44150968 -2.78035727 2.77308601 -3.06640625 1.09765625 C-2.06640625 0.09765625 -2.06640625 0.09765625 0 0 Z " fill="#2CC4E0" transform="translate(248.06640625,257.90234375)"/>
<path d="M0 0 C0.66 0.33 1.32 0.66 2 1 C3.53668865 1.22467831 5.07968054 1.40796805 6.625 1.5625 C7.44226563 1.64628906 8.25953125 1.73007813 9.1015625 1.81640625 C9.72804687 1.87699219 10.35453125 1.93757812 11 2 C11 2.66 11 3.32 11 4 C9.56274129 4.16873478 8.12518162 4.33490737 6.6875 4.5 C5.88699219 4.5928125 5.08648437 4.685625 4.26171875 4.78125 C2 5 2 5 -1 5 C-1.33 3.68 -1.66 2.36 -2 1 C-2.99 1.66 -3.98 2.32 -5 3 C-5.99 3 -6.98 3 -8 3 C-8 4.65 -8 6.3 -8 8 C-8.33 8 -8.66 8 -9 8 C-9.25 5.1875 -9.25 5.1875 -9 2 C-6.09913676 -1.33062076 -4.07453675 -1.28669582 0 0 Z " fill="#208CE3" transform="translate(121,245)"/>
<path d="M0 0 C3.5 0.25 3.5 0.25 5.5 2.25 C5.17 3.57 4.84 4.89 4.5 6.25 C1.53 6.25 -1.44 6.25 -4.5 6.25 C-4.83 4.93 -5.16 3.61 -5.5 2.25 C-3.5 0.25 -3.5 0.25 0 0 Z " fill="#3AC3D4" transform="translate(261.5,236.75)"/>
<path d="M0 0 C1.50433594 0.01353516 1.50433594 0.01353516 3.0390625 0.02734375 C3.80992187 0.03894531 4.58078125 0.05054688 5.375 0.0625 C5.705 0.7225 6.035 1.3825 6.375 2.0625 C2.415 2.0625 -1.545 2.0625 -5.625 2.0625 C-5.625 3.7125 -5.625 5.3625 -5.625 7.0625 C-7.275 7.7225 -8.925 8.3825 -10.625 9.0625 C-10.625 8.4025 -10.625 7.7425 -10.625 7.0625 C-12.605 7.0625 -14.585 7.0625 -16.625 7.0625 C-16.955 6.4025 -17.285 5.7425 -17.625 5.0625 C-11.875 4.9375 -11.875 4.9375 -9.625 6.0625 C-9.33625 5.258125 -9.0475 4.45375 -8.75 3.625 C-6.84357599 -0.71741023 -4.35953245 -0.05069224 0 0 Z " fill="#DFB992" transform="translate(187.625,206.9375)"/>
<path d="M0 0 C3.36591866 1.44253657 5.51047079 3.33264727 8 6 C7.67 6.66 7.34 7.32 7 8 C4.525 7.01 4.525 7.01 2 6 C3.86566488 9.62793998 3.86566488 9.62793998 7 12 C7 13.65 7 15.3 7 17 C4.97137117 14.46421396 2.94382465 11.9285041 0.9375 9.375 C-0.62944607 7.4542274 -2.20602511 5.70427615 -4 4 C-2.68 3.67 -1.36 3.34 0 3 C0 2.01 0 1.02 0 0 Z " fill="#23DBE2" transform="translate(292,215)"/>
<path d="M0 0 C0.33 0.66 0.66 1.32 1 2 C4.63 2 8.26 2 12 2 C12.33 2.99 12.66 3.98 13 5 C5.74 5 -1.52 5 -9 5 C-7 3 -7 3 -3.375 2.875 C-1.704375 2.936875 -1.704375 2.936875 0 3 C0 2.01 0 1.02 0 0 Z " fill="#0AC6F7" transform="translate(214,236)"/>
<path d="M0 0 C3.37462715 0.54723683 5.08235 1.0549 8 3 C8.51171875 5.1640625 8.51171875 5.1640625 8.6875 7.625 C8.78611328 8.85089844 8.78611328 8.85089844 8.88671875 10.1015625 C8.92410156 10.72804687 8.96148437 11.35453125 9 12 C7.68 11.67 6.36 11.34 5 11 C5 9.35 5 7.7 5 6 C4.360625 5.7525 3.72125 5.505 3.0625 5.25 C1 4 1 4 0.25 1.875 C0.1675 1.25625 0.085 0.6375 0 0 Z " fill="#09F0F6" transform="translate(294,221)"/>
<path d="M0 0 C2.64 0 5.28 0 8 0 C8.38218767 1.65614657 8.71395102 3.32457024 9 5 C8 6 8 6 6.15234375 6.09765625 C4.1015625 6.06510417 2.05078125 6.03255208 0 6 C-1.125 2.25 -1.125 2.25 0 0 Z " fill="#1FBBE0" transform="translate(228,227)"/>
<path d="M0 0 C-0.625 3.375 -0.625 3.375 -2 7 C-5.125 8.4375 -5.125 8.4375 -8 9 C-8.66 8.34 -9.32 7.68 -10 7 C-7.67908903 1.38095238 -7.67908903 1.38095238 -4.4375 -0.4375 C-2 -1 -2 -1 0 0 Z " fill="#17BEF1" transform="translate(216,190)"/>
<path d="M0 0 C-0.165 0.598125 -0.33 1.19625 -0.5 1.8125 C-1.1114124 4.11344336 -1.1114124 4.11344336 -1 7 C-1.31421071 9.00309329 -1.6451046 11.00371336 -2 13 C-2.66 13 -3.32 13 -4 13 C-4.33 12.01 -4.66 11.02 -5 10 C-5.66 9.34 -6.32 8.68 -7 8 C-6.34 8 -5.68 8 -5 8 C-5.33 5.36 -5.66 2.72 -6 0 C-3 -1 -3 -1 0 0 Z " fill="#16BEE3" transform="translate(160,248)"/>
<path d="M0 0 C0.84755859 0.04833984 1.69511719 0.09667969 2.56835938 0.14648438 C3.44943359 0.20255859 4.33050781 0.25863281 5.23828125 0.31640625 C6.13095703 0.36861328 7.02363281 0.42082031 7.94335938 0.47460938 C10.14619685 0.60418805 12.34856998 0.73914871 14.55078125 0.87890625 C14.55078125 1.53890625 14.55078125 2.19890625 14.55078125 2.87890625 C6.96078125 2.87890625 -0.62921875 2.87890625 -8.44921875 2.87890625 C-6.65226963 -0.71499198 -3.55844643 -0.21493972 0 0 Z " fill="#06D6F7" transform="translate(236.44921875,238.12109375)"/>
<path d="M0 0 C3.63 0 7.26 0 11 0 C11 0.66 11 1.32 11 2 C8.69 2.33 6.38 2.66 4 3 C10.27 3.33 16.54 3.66 23 4 C23 4.33 23 4.66 23 5 C15.41 5 7.82 5 0 5 C0 3.35 0 1.7 0 0 Z " fill="#18BBE9" transform="translate(203,237)"/>
<path d="M0 0 C6.1105424 -0.11269443 11.95170514 0.10395632 18 1 C17.67 1.66 17.34 2.32 17 3 C8.585 3.495 8.585 3.495 0 4 C0 2.68 0 1.36 0 0 Z " fill="#25CAE9" transform="translate(157,230)"/>
<path d="M0 0 C2.5625 0.1875 2.5625 0.1875 4.5625 2.1875 C4.4375 4.1875 4.4375 4.1875 3.5625 6.1875 C1.5 7.4375 1.5 7.4375 -0.4375 8.1875 C-1.4275 7.5275 -2.4175 6.8675 -3.4375 6.1875 C-3.6875 3.625 -3.6875 3.625 -3.4375 1.1875 C-2.4375 0.1875 -2.4375 0.1875 0 0 Z " fill="#E2B29C" transform="translate(141.4375,201.8125)"/>
<path d="M0 0 C0.99 0 1.98 0 3 0 C2.67 1.65 2.34 3.3 2 5 C1.01 5 0.02 5 -1 5 C-0.67 5.99 -0.34 6.98 0 8 C-1.32 8.33 -2.64 8.66 -4 9 C-3.67 9.99 -3.34 10.98 -3 12 C-3.66 12.66 -4.32 13.32 -5 14 C-5 14.66 -5 15.32 -5 16 C-6.32 15.67 -7.64 15.34 -9 15 C-7.35 12.03 -5.7 9.06 -4 6 C-3.34 6 -2.68 6 -2 6 C-2 5.01 -2 4.02 -2 3 C-1.34 3 -0.68 3 0 3 C0 2.01 0 1.02 0 0 Z " fill="#08F2F7" transform="translate(301,251)"/>
<path d="M0 0 C1.65 0 3.3 0 5 0 C5 0.66 5 1.32 5 2 C6.65 2.33 8.3 2.66 10 3 C10 3.99 10 4.98 10 6 C4.57960425 6.40652968 0.92984325 5.03993514 -4 3 C-2.68 2.67 -1.36 2.34 0 2 C0 1.34 0 0.68 0 0 Z " fill="#1ECBE7" transform="translate(250,185)"/>
<path d="M0 0 C2.31 0 4.62 0 7 0 C7.625 1.8125 7.625 1.8125 8 4 C7.01 5.485 7.01 5.485 6 7 C1.125 6.125 1.125 6.125 0 5 C-0.04063832 3.33382885 -0.042721 1.66611905 0 0 Z " fill="#C5D8D1" transform="translate(204,267)"/>
<path d="M0 0 C8.57142857 -0.14285714 8.57142857 -0.14285714 12 1 C12 1.99 12 2.98 12 4 C7.71 4 3.42 4 -1 4 C-0.67 2.68 -0.34 1.36 0 0 Z " fill="#0ECEF6" transform="translate(232,218)"/>
<path d="M0 0 C7.59 0 15.18 0 23 0 C23 0.33 23 0.66 23 1 C16.4 1 9.8 1 3 1 C2.67 6.61 2.34 12.22 2 18 C1.67 18 1.34 18 1 18 C0.67 12.06 0.34 6.12 0 0 Z " fill="#AEDFD0" transform="translate(153,228)"/>
<path d="M0 0 C0 3.69418201 -1.28179295 5.77836178 -3 9 C-2.01 9.66 -1.02 10.32 0 11 C-2.475 12.485 -2.475 12.485 -5 14 C-5.33 13.01 -5.66 12.02 -6 11 C-7.98 11 -9.96 11 -12 11 C-11.278125 10.443125 -10.55625 9.88625 -9.8125 9.3125 C-7.02282044 7.01876348 -4.51793656 4.5859889 -2 2 C-1.34 1.34 -0.68 0.68 0 0 Z " fill="#25D8E1" transform="translate(296,257)"/>
<path d="M0 0 C0 0.33 0 0.66 0 1 C-5.52967941 1.71033431 -10.49983036 2.30267176 -16 1 C-16.33 2.32 -16.66 3.64 -17 5 C-18.65 5 -20.3 5 -22 5 C-22.33 4.01 -22.66 3.02 -23 2 C-15.05318991 -0.98005378 -8.26148836 -1.24304802 0 0 Z " fill="#10CCF6" transform="translate(246,182)"/>
<path d="M0 0 C6.27 0 12.54 0 19 0 C19 0.66 19 1.32 19 2 C16.47524538 3.26237731 14.68799534 3.09856404 11.875 3.0625 C10.96492187 3.05347656 10.05484375 3.04445312 9.1171875 3.03515625 C8.41851562 3.02355469 7.71984375 3.01195312 7 3 C7 2.67 7 2.34 7 2 C4.69 1.67 2.38 1.34 0 1 C0 0.67 0 0.34 0 0 Z " fill="#27BAD7" transform="translate(167,230)"/>
<path d="M0 0 C1.98 0 3.96 0 6 0 C7.83691257 3.78187881 8.15837626 5.94568308 7 10 C6.01 9.67 5.02 9.34 4 9 C4 7.02 4 5.04 4 3 C3.01 3.33 2.02 3.66 1 4 C0.67 2.68 0.34 1.36 0 0 Z " fill="#0DE0F4" transform="translate(267,199)"/>
<path d="M0 0 C-0.185625 0.763125 -0.37125 1.52625 -0.5625 2.3125 C-1.22819173 5.08967375 -1.22819173 5.08967375 0 8 C-0.99 8.33 -1.98 8.66 -3 9 C-4.5625 7.8125 -4.5625 7.8125 -6 6 C-5.8125 3.375 -5.8125 3.375 -5 1 C-3 0 -3 0 0 0 Z " fill="#1397F9" transform="translate(139,236)"/>
<path d="M0 0 C0 2.97 0 5.94 0 9 C-1.65 8.67 -3.3 8.34 -5 8 C-4.814375 7.21625 -4.62875 6.4325 -4.4375 5.625 C-3.74037734 3.02910225 -3.74037734 3.02910225 -5 1 C-2 0 -2 0 0 0 Z " fill="#FBE3BB" transform="translate(153,237)"/>
<path d="M0 0 C0.66 0 1.32 0 2 0 C2 5.28 2 10.56 2 16 C1.67 16 1.34 16 1 16 C1 13.03 1 10.06 1 7 C-0.32 7.33 -1.64 7.66 -3 8 C-1.125 1.125 -1.125 1.125 0 0 Z " fill="#F0E7C3" transform="translate(152,230)"/>
<path d="M0 0 C1.98 0 3.96 0 6 0 C7.125 2.25 7.125 2.25 8 5 C7.125 7.3125 7.125 7.3125 6 9 C4.02 9 2.04 9 0 9 C-0.33 8.34 -0.66 7.68 -1 7 C0.98 6.67 2.96 6.34 5 6 C5 4.35 5 2.7 5 1 C3.02 1.33 1.04 1.66 -1 2 C-0.67 1.34 -0.34 0.68 0 0 Z " fill="#27CCDA" transform="translate(280,169)"/>
<path d="M0 0 C1.15242187 0.10183594 2.30484375 0.20367187 3.4921875 0.30859375 C4.36101562 0.39238281 5.22984375 0.47617188 6.125 0.5625 C6.125 0.8925 6.125 1.2225 6.125 1.5625 C3.52090255 1.73031295 0.9167318 1.89679651 -1.6875 2.0625 C-2.79448242 2.13404297 -2.79448242 2.13404297 -3.92382812 2.20703125 C-6.91324588 2.39640613 -9.87874574 2.5625 -12.875 2.5625 C-12.875 1.9025 -12.875 1.2425 -12.875 0.5625 C-8.41295824 -0.3529645 -4.52954615 -0.41597873 0 0 Z " fill="#19C1E1" transform="translate(169.875,233.4375)"/>
<path d="M0 0 C0.74958984 0.00451172 1.49917969 0.00902344 2.27148438 0.01367188 C4.11852383 0.02543646 5.96552213 0.04337135 7.8125 0.0625 C7.8125 0.3925 7.8125 0.7225 7.8125 1.0625 C5.5025 1.0625 3.1925 1.0625 0.8125 1.0625 C0.8125 1.7225 0.8125 2.3825 0.8125 3.0625 C-0.1775 3.0625 -1.1675 3.0625 -2.1875 3.0625 C-2.1875 2.4025 -2.1875 1.7425 -2.1875 1.0625 C-3.033125 1.371875 -3.87875 1.68125 -4.75 2 C-8.2372854 3.07788821 -11.56927535 3.62831304 -15.1875 4.0625 C-13.8675 3.7325 -12.5475 3.4025 -11.1875 3.0625 C-11.1875 2.4025 -11.1875 1.7425 -11.1875 1.0625 C-7.42449626 -0.19183458 -3.91539091 -0.04445422 0 0 Z " fill="#1B84C9" transform="translate(138.1875,231.9375)"/>
<path d="M0 0 C0.99 0 1.98 0 3 0 C2.55530671 5.03985731 0.28656638 7.37634988 -3 11 C-3.66 10.01 -4.32 9.02 -5 8 C-3.63016497 4.83884224 -3.0109362 4.0072908 0 2 C0 1.34 0 0.68 0 0 Z " fill="#1AE6EB" transform="translate(300,256)"/>
<path d="M0 0 C0.66 0 1.32 0 2 0 C2.625 1.875 2.625 1.875 3 4 C1 6 1 6 -1.875 6.3125 C-5.26379801 5.9736202 -6.53884629 5.27183419 -9 3 C-6.03 3 -3.06 3 0 3 C0 2.01 0 1.02 0 0 Z " fill="#129AF7" transform="translate(132,246)"/>
<path d="M0 0 C0.66 0 1.32 0 2 0 C2 2.64 2 5.28 2 8 C1.01 8.33 0.02 8.66 -1 9 C-1 8.34 -1 7.68 -1 7 C-1.66 7 -2.32 7 -3 7 C-3 5.68 -3 4.36 -3 3 C-2.34 3 -1.68 3 -1 3 C-0.67 2.01 -0.34 1.02 0 0 Z " fill="#06EDFB" transform="translate(291,196)"/>
<path d="M0 0 C1.65 0 3.3 0 5 0 C5.33 1.65 5.66 3.3 6 5 C4.34385343 5.38218767 2.67542976 5.71395102 1 6 C0 5 0 5 -0.0625 2.4375 C-0.041875 1.633125 -0.02125 0.82875 0 0 Z " fill="#1CCBE0" transform="translate(270,183)"/>
<path d="M0 0 C0.99 0 1.98 0 3 0 C3 1.65 3 3.3 3 5 C2.01 5 1.02 5 0 5 C0 5.66 0 6.32 0 7 C-1.32 7 -2.64 7 -4 7 C-3.6875 5.0625 -3.6875 5.0625 -3 3 C-2.01 2.67 -1.02 2.34 0 2 C0 1.34 0 0.68 0 0 Z " fill="#1291FA" transform="translate(127,228)"/>
<path d="M0 0 C2.64 0 5.28 0 8 0 C8.33 0.99 8.66 1.98 9 3 C6.35261084 4.4606285 5.10551666 5 2 5 C1.34 3.35 0.68 1.7 0 0 Z " fill="#FAE5BD" transform="translate(149,212)"/>
<path d="M0 0 C1.65 0.33 3.3 0.66 5 1 C4.67 2.65 4.34 4.3 4 6 C2.68 6 1.36 6 0 6 C-1.125 2.25 -1.125 2.25 0 0 Z " fill="#D79DBE" transform="translate(133,209)"/>
<path d="M0 0 C2.64 0 5.28 0 8 0 C7.67 1.32 7.34 2.64 7 4 C5.02 4 3.04 4 1 4 C0.67 2.68 0.34 1.36 0 0 Z " fill="#0CD6F6" transform="translate(246,259)"/>
<path d="M0 0 C0 0.66 0 1.32 0 2 C-3.13498292 3.85776765 -5.37471432 4.20140476 -9 4 C-9 3.01 -9 2.02 -9 1 C-5.57367167 -0.61798838 -3.61944899 -1.34053666 0 0 Z " fill="#178DFA" transform="translate(124,251)"/>
<path d="M0 0 C-2.63904371 1.41377341 -5.07120629 2.37240135 -8 3 C-8 4.65 -8 6.3 -8 8 C-8.33 8 -8.66 8 -9 8 C-9.25 5.1875 -9.25 5.1875 -9 2 C-6.09797328 -1.3319566 -4.08536588 -1.24830624 0 0 Z " fill="#227FCE" transform="translate(121,245)"/>
<path d="M0 0 C2.97 0.495 2.97 0.495 6 1 C6 1.99 6 2.98 6 4 C3.69 4 1.38 4 -1 4 C-0.67 2.68 -0.34 1.36 0 0 Z " fill="#0FDAF4" transform="translate(259,238)"/>
<path d="M0 0 C2.31 0 4.62 0 7 0 C6.67 0.66 6.34 1.32 6 2 C6.66 2.66 7.32 3.32 8 4 C5.36 4 2.72 4 0 4 C0 2.68 0 1.36 0 0 Z " fill="#1993EF" transform="translate(130,228)"/>
<path d="M0 0 C2.31 0.33 4.62 0.66 7 1 C7.33 1.99 7.66 2.98 8 4 C5.36 3.67 2.72 3.34 0 3 C0 2.01 0 1.02 0 0 Z " fill="#05E7FA" transform="translate(273,210)"/>
<path d="M0 0 C3 1 3 1 4.25 2.625 C5.30061312 5.95194155 4.64998375 8.62008449 4 12 C3.67 12 3.34 12 3 12 C3 9.36 3 6.72 3 4 C2.01 4 1.02 4 0 4 C0 2.68 0 1.36 0 0 Z " fill="#27DAE0" transform="translate(290,192)"/>
<path d="M0 0 C-0.33 1.32 -0.66 2.64 -1 4 C-2.65 4.33 -4.3 4.66 -6 5 C-6 3.68 -6 2.36 -6 1 C-3 0 -3 0 0 0 Z " fill="#0DC6F8" transform="translate(223,186)"/>
<path d="M0 0 C2.31 0.66 4.62 1.32 7 2 C7 2.99 7 3.98 7 5 C5.68 5 4.36 5 3 5 C3 4.34 3 3.68 3 3 C2.01 2.67 1.02 2.34 0 2 C0 1.34 0 0.68 0 0 Z " fill="#08DCF9" transform="translate(253,186)"/>
<path d="M0 0 C0.99 0.33 1.98 0.66 3 1 C2.67 2.65 2.34 4.3 2 6 C0.35 5.67 -1.3 5.34 -3 5 C-2.01 4.67 -1.02 4.34 0 4 C0 2.68 0 1.36 0 0 Z " fill="#C0E8F6" transform="translate(208,268)"/>
<path d="M0 0 C3.3 0 6.6 0 10 0 C10 1.32 10 2.64 10 4 C6.7 3.01 3.4 2.02 0 1 C0 0.67 0 0.34 0 0 Z " fill="#24DDE6" transform="translate(278,215)"/>
<path d="M0 0 C0.99 0.33 1.98 0.66 3 1 C3 1.66 3 2.32 3 3 C1.35 3 -0.3 3 -2 3 C-1.67 4.32 -1.34 5.64 -1 7 C-2.32 5.68 -3.64 4.36 -5 3 C-2 1 -2 1 0 0 Z " fill="#21D1E8" transform="translate(269,196)"/>
<path d="M0 0 C0.33 0.99 0.66 1.98 1 3 C-1.97 3 -4.94 3 -8 3 C-6.23110084 -0.53779831 -3.70375662 0 0 0 Z " fill="#0DCCF9" transform="translate(236,238)"/>
<path d="M0 0 C0.66 0.33 1.32 0.66 2 1 C2 4.3 2 7.6 2 11 C-1 8 -1 8 -1.07421875 5.95703125 C-0.71614583 3.97135417 -0.35807292 1.98567708 0 0 Z " fill="#2AC6F1" transform="translate(201,225)"/>
<path d="M0 0 C1.98 0 3.96 0 6 0 C2.79663178 2.83374881 0.21912747 3.5205537 -4 4 C-4 3.34 -4 2.68 -4 2 C-2.68 2 -1.36 2 0 2 C0 1.34 0 0.68 0 0 Z " fill="#2BD9E1" transform="translate(285,271)"/>
<path d="M0 0 C0.66 0 1.32 0 2 0 C2 1.98 2 3.96 2 6 C2.66 6.33 3.32 6.66 4 7 C3.01 8.485 3.01 8.485 2 10 C1.01 7.03 0.02 4.06 -1 1 C-0.67 0.67 -0.34 0.34 0 0 Z " fill="#26D2E2" transform="translate(269,202)"/>
<path d="M0 0 C0.33 0.66 0.66 1.32 1 2 C2.8871875 1.4121875 2.8871875 1.4121875 4.8125 0.8125 C6.95703125 0.14453125 6.95703125 0.14453125 9 0 C9.99 0.99 10.98 1.98 12 3 C8.04 3 4.08 3 0 3 C0 2.01 0 1.02 0 0 Z " fill="#15BCF2" transform="translate(203,260)"/>
<path d="M0 0 C0.99 0.33 1.98 0.66 3 1 C3 1.99 3 2.98 3 4 C1.35 4 -0.3 4 -2 4 C-2 3.01 -2 2.02 -2 1 C-1.34 0.67 -0.68 0.34 0 0 Z " fill="#109BFB" transform="translate(143,261)"/>
<path d="M0 0 C0.33 0 0.66 0 1 0 C1 2.64 1 5.28 1 8 C-0.32 8 -1.64 8 -3 8 C-2.690625 7.236875 -2.38125 6.47375 -2.0625 5.6875 C-1.32106407 3.81210323 -0.63771783 1.91315348 0 0 Z " fill="#F9DBB0" transform="translate(152,238)"/>
<path d="M0 0 C0.99 0 1.98 0 3 0 C2.67 1.32 2.34 2.64 2 4 C1.01 3.67 0.02 3.34 -1 3 C-0.67 2.01 -0.34 1.02 0 0 Z " fill="#DFDBCB" transform="translate(137,198)"/>
</svg>
